<svg xmlns="http://www.w3.org/2000/svg" xmlns:xlink="http://www.w3.org/1999/xlink" viewBox="0 0 500 500"><defs><style>.cls-1{fill:none;}.cls-2{isolation:isolate;}.cls-3{fill:#562500;}.cls-4{fill:#d1940d;}.cls-5{fill:#efb933;}.cls-25,.cls-6,.cls-9{fill:#fff;}.cls-25,.cls-6{mix-blend-mode:overlay;}.cls-7{fill:#00a388;}.cls-8{fill:#00755f;}.cls-10,.cls-11,.cls-26,.cls-27,.cls-9{mix-blend-mode:soft-light;}.cls-10{opacity:0.62;}.cls-12{fill:#92278f;}.cls-13{fill:#6a006d;}.cls-14{fill:#3fa9f5;}.cls-15{fill:#0393db;}.cls-16{fill:#ec4963;}.cls-17{fill:#b20830;}.cls-18{fill:#d3950b;}.cls-19{fill:#8c6239;}.cls-20{opacity:0.64;}.cls-21{clip-path:url(#clip-path);}.cls-22{fill:#63391d;}.cls-23{fill:#ffdd50;}.cls-24{fill:#724f00;}.cls-25{opacity:0.71;}.cls-26{opacity:0.51;}.cls-27{opacity:0.74;}</style><clipPath id="clip-path"><path id="SVGID" class="cls-1" d="M249,243.15H89.89s2.19,102.33,34.63,147.92c0,0,64.88,10.52,124.51,10.52s124.5-10.52,124.5-10.52c32.45-45.59,34.64-147.92,34.64-147.92Z"/></clipPath></defs><title>工作區域 1</title><g class="cls-2"><g id="OBJECTS"><path class="cls-3" d="M419.12,141c-6.13,59.74-33.33,104.64-33.33,104.64L250,267.84,118.46,246.3l-4.24-.68S87,200.72,80.9,141a56.83,56.83,0,0,1,9-4.6c17.76-7.76,64.24-22.57,160.12-22.57C379.87,113.81,419.12,141,419.12,141Z"/><path class="cls-4" d="M121.33,245.91l-2.87.39-4.24-.68S87,200.72,80.9,141a56.83,56.83,0,0,1,9-4.6C93.86,212.47,121.33,245.91,121.33,245.91Z"/><path class="cls-4" d="M378.69,245.91l2.86.39,4.24-.68S413,200.72,419.12,141a57.36,57.36,0,0,0-9-4.6C406.15,212.47,378.69,245.91,378.69,245.91Z"/><path class="cls-5" d="M413.85,105.91C357.74,79.6,247.73,81.34,247.73,81.34h0c-15.75-.08-110.25.51-161.58,24.57,0,0-14.91,19.29-14.91,42.08,0,0,62-28.93,178.76-28.93S428.76,148,428.76,148C428.76,125.2,413.85,105.91,413.85,105.91Z"/><path class="cls-6" d="M416.37,118.18,412,108.54c-73.39-26.73-156.93-23.9-162.26-23.69-5.32-.21-88.86-3-162.26,23.69l-4.38,9.64s54.05-28.45,166.64-28.49S416.37,118.18,416.37,118.18Z"/><polygon class="cls-7" points="400.06 214.46 379.94 220.24 379.81 220.28 359.69 226.06 353.24 240.79 383.23 232.18 383.36 232.14 413.35 223.53 400.06 214.46"/><polygon class="cls-8" points="383.36 232.14 383.23 232.18 353.24 240.79 394.7 271.87 413.35 223.53 383.36 232.14"/><polygon class="cls-9" points="356.12 238.63 361.12 226.34 365.99 224.94 364.43 236.24 356.12 238.63"/><polygon class="cls-9" points="367.92 224.38 367.15 235.46 370.8 234.41 369.74 223.86 367.92 224.38"/><polygon class="cls-10" points="411.23 223.53 399.37 215.35 388.77 218.4 394.39 228.36 411.23 223.53"/><polygon class="cls-11" points="409.42 223.32 399.07 215.88 397.17 216.43 405.23 224.52 409.42 223.32"/><polygon class="cls-9" points="394.19 270.08 356.81 241.02 365.21 238.6 394.19 270.08"/><polygon class="cls-10" points="395.06 230.03 411.72 225.25 395.6 266.98 395.06 230.03"/><polygon class="cls-11" points="397.49 257.04 406.2 227.97 410.41 226.76 397.49 257.04"/><polygon class="cls-12" points="280.54 214.32 261.5 207.69 261.37 207.64 242.34 201.01 229.08 209.03 257.45 218.91 257.58 218.95 285.95 228.84 280.54 214.32"/><polygon class="cls-13" points="257.58 218.95 257.45 218.91 229.08 209.03 244.43 256.49 285.95 228.84 257.58 218.95"/><polygon class="cls-9" points="232.55 208.92 243.31 202.03 247.92 203.64 240.41 211.66 232.55 208.92"/><polygon class="cls-9" points="249.75 204.27 242.99 212.56 246.44 213.76 251.46 204.87 249.75 204.27"/><polygon class="cls-10" points="284.28 227.65 279.49 214.64 269.46 211.14 268.35 222.1 284.28 227.65"/><polygon class="cls-11" points="282.98 226.49 278.97 214.89 277.16 214.26 279.01 225.11 282.98 226.49"/><polygon class="cls-9" points="245.02 254.81 231.76 211.18 239.71 213.95 245.02 254.81"/><polygon class="cls-10" points="267.95 223.79 283.71 229.28 247.85 253.15 267.95 223.79"/><polygon class="cls-11" points="254.86 246.38 277.86 228.35 281.84 229.74 254.86 246.38"/><polygon class="cls-14" points="365.96 224.91 349.27 212.28 349.15 212.2 332.46 199.57 316.8 203.26 341.68 222.08 341.8 222.16 366.68 240.98 365.96 224.91"/><polygon class="cls-15" points="341.8 222.16 341.68 222.08 316.8 203.26 316.82 255.07 366.68 240.98 341.8 222.16"/><polygon class="cls-9" points="320.26 204.26 333.09 200.89 337.13 203.94 327.15 209.48 320.26 204.26"/><polygon class="cls-9" points="338.74 205.16 329.41 211.19 332.44 213.48 340.24 206.29 338.74 205.16"/><polygon class="cls-10" points="365.41 239.28 364.83 224.89 356.03 218.24 351.44 228.71 365.41 239.28"/><polygon class="cls-11" points="364.49 237.71 364.23 224.97 362.65 223.78 361.02 235.08 364.49 237.71"/><polygon class="cls-9" points="317.94 253.59 318.76 206.25 325.73 211.52 317.94 253.59"/><polygon class="cls-10" points="350.5 230.25 364.33 240.71 321.27 252.86 350.5 230.25"/><polygon class="cls-11" points="330.36 248.4 358.84 237.92 362.33 240.56 330.36 248.4"/><polygon class="cls-14" points="226.23 204.72 207.37 213.78 207.24 213.84 188.37 222.91 184.48 238.52 212.6 225.01 212.73 224.95 240.85 211.44 226.23 204.72"/><polygon class="cls-15" points="212.73 224.94 212.6 225.01 184.48 238.52 230.55 262.21 240.85 211.44 212.73 224.94"/><polygon class="cls-9" points="186.96 235.9 189.83 222.94 194.4 220.75 194.75 232.16 186.96 235.9"/><polygon class="cls-9" points="196.21 219.88 197.3 230.93 200.73 229.28 197.91 219.06 196.21 219.88"/><polygon class="cls-10" points="238.76 211.79 225.7 205.71 215.76 210.49 222.96 219.37 238.76 211.79"/><polygon class="cls-11" points="236.94 211.89 225.5 206.28 223.71 207.15 233.02 213.77 236.94 211.89"/><polygon class="cls-9" points="229.75 260.54 188.03 238.14 195.91 234.35 229.75 260.54"/><polygon class="cls-10" points="223.9 220.91 239.53 213.4 230.63 257.24 223.9 220.91"/><polygon class="cls-11" points="230.82 247.13 234.54 217.01 238.49 215.11 230.82 247.13"/><polygon class="cls-7" points="188.58 196.73 171.29 208.53 171.17 208.61 153.88 220.4 152.38 236.42 178.15 218.84 178.27 218.76 204.04 201.18 188.58 196.73"/><polygon class="cls-8" points="178.27 218.76 178.15 218.84 152.38 236.42 201.49 252.92 204.04 201.18 178.27 218.76"/><polygon class="cls-9" points="154.43 233.46 155.32 220.22 159.51 217.37 161.57 228.59 154.43 233.46"/><polygon class="cls-9" points="161.17 216.23 163.91 227 167.05 224.85 162.73 215.17 161.17 216.23"/><polygon class="cls-10" points="202.02 201.84 188.2 197.8 179.09 204.01 187.55 211.71 202.02 201.84"/><polygon class="cls-11" points="200.24 202.21 188.09 198.39 186.45 199.51 196.64 204.66 200.24 202.21"/><polygon class="cls-9" points="200.44 251.39 155.83 235.51 163.06 230.59 200.44 251.39"/><polygon class="cls-10" points="188.71 213.09 203.03 203.31 200.81 248 188.71 213.09"/><polygon class="cls-11" points="199.49 237.97 198.64 207.63 202.26 205.16 199.49 237.97"/><polygon class="cls-16" points="319.5 252.84 313.47 230.84 313.43 230.69 307.4 208.69 291.42 201.47 300.41 234.26 300.45 234.41 309.44 267.2 319.5 252.84"/><polygon class="cls-17" points="300.45 234.41 300.41 234.26 291.42 201.47 257.02 246.23 309.44 267.2 300.45 234.41"/><polygon class="cls-9" points="293.75 204.64 307.07 210.25 308.53 215.57 296.24 213.72 293.75 204.64"/><polygon class="cls-9" points="309.11 217.69 297.05 216.7 298.15 220.69 309.65 219.67 309.11 217.69"/><polygon class="cls-10" points="309.47 264.89 318.54 252.07 315.36 240.48 304.43 246.47 309.47 264.89"/><polygon class="cls-11" points="309.72 262.92 317.96 251.75 317.39 249.66 308.46 258.34 309.72 262.92"/><polygon class="cls-9" points="258.96 245.7 291.13 205.35 293.65 214.54 258.96 245.7"/><polygon class="cls-10" points="302.6 247.18 307.59 265.4 262.33 247.28 302.6 247.18"/><polygon class="cls-11" points="273.13 249.47 304.7 259.35 305.96 263.95 273.13 249.47"/><polygon class="cls-16" points="132.84 199.84 112.48 210.14 112.34 210.21 91.99 220.51 88.1 237.61 118.44 222.26 118.58 222.19 148.92 206.84 132.84 199.84"/><polygon class="cls-17" points="118.58 222.19 118.44 222.26 88.1 237.61 138.83 262.39 148.92 206.84 118.58 222.19"/><polygon class="cls-9" points="90.74 234.7 93.58 220.52 98.5 218.03 99.14 230.45 90.74 234.7"/><polygon class="cls-9" points="100.46 217.04 101.9 229.05 105.59 227.18 102.29 216.11 100.46 217.04"/><polygon class="cls-10" points="146.64 207.27 132.28 200.94 121.55 206.37 129.6 215.89 146.64 207.27"/><polygon class="cls-11" points="144.67 207.42 132.07 201.57 130.14 202.55 140.43 209.56 144.67 207.42"/><polygon class="cls-9" points="137.91 260.59 91.96 237.11 100.46 232.81 137.91 260.59"/><polygon class="cls-10" points="130.66 217.54 147.52 209.01 138.79 256.98 130.66 217.54"/><polygon class="cls-11" points="138.78 245.95 142.16 213.05 146.43 210.9 138.78 245.95"/><polygon class="cls-12" points="165.42 236.17 153.4 219.99 153.32 219.88 141.3 203.7 125.83 202.88 143.74 226.99 143.82 227.1 161.74 251.22 165.42 236.17"/><polygon class="cls-13" points="143.82 227.1 143.74 226.99 125.83 202.88 111.86 250.77 161.74 251.22 143.82 227.1"/><polygon class="cls-9" points="128.76 204.74 141.53 205.09 144.44 209 133.72 211.42 128.76 204.74"/><polygon class="cls-9" points="145.59 210.56 135.35 213.61 137.53 216.55 146.68 212.02 145.59 210.56"/><polygon class="cls-10" points="161.03 249.3 164.38 235.85 158.04 227.32 150.97 235.76 161.03 249.3"/><polygon class="cls-11" points="160.6 247.61 163.8 235.76 162.66 234.23 158.1 244.24 160.6 247.61"/><polygon class="cls-9" points="113.29 249.7 126.84 206.17 131.86 212.93 113.29 249.7"/><polygon class="cls-10" points="149.69 236.93 159.64 250.33 116.56 249.93 149.69 236.93"/><polygon class="cls-11" points="126.16 248.26 155.32 246.27 157.83 249.66 126.16 248.26"/><path class="cls-18" d="M117.18,371.18,92.85,415.57s8.22,5.42,17.26,2l25.48-27.46Z"/><path class="cls-18" d="M381.55,371.18l24.33,44.39s-8.22,5.42-17.26,2l-25.48-27.46Z"/><path class="cls-19" d="M249,243.15H89.89s2.19,102.33,34.63,147.92c0,0,64.88,10.52,124.51,10.52s124.5-10.52,124.5-10.52c32.45-45.59,34.64-147.92,34.64-147.92Z"/><g class="cls-20"><g class="cls-21"><path class="cls-22" d="M401.5,393.14s-42.56-1.11-88.66-1.76-87.86-.1-97.65,3.61,42,16,93.45,20.29c0,0-52.29-6.91-56.32-12.82s19.16-10.72,75.95-6.43,73.41,9.48,73.41,9.48Z"/><path class="cls-22" d="M394.61,407.58S328.8,396.34,306,397.23,288.78,408,317.7,410.59s30.21-1.86,25.58-3.18S326,405.48,326,405.48s13.41,1.36,13.44,3.18S314,410.22,304.79,407s-8.79-8.38,10.4-6.85,59.18,5.78,77.38,11.74S394.61,407.58,394.61,407.58Z"/><path class="cls-22" d="M110.73,390.49c3.12-.42,10.3,4.28,42.28,9.05s65.11,17.55,65.11,17.55l-17.68-1.25s-6.75-8.93-48.17-13.12S98.13,391.2,98.13,391.2Z"/><path class="cls-22" d="M110.34,400.1s21.58,3.57,37.12,6.56,19.47,6.81,19.47,6.81l-4.53-.32s-.45-3.8-15.71-5.64-37.36-4.38-37.36-4.38Z"/><path class="cls-22" d="M109,379.46s22.1,3.26,41.05,5.82,78-2.27,85.85-1.84a146.58,146.58,0,0,0-26.2-.26c-13,1.22-37.38,2.77-56.32.69S108,376,108,376Z"/><path class="cls-22" d="M110.9,374.7s32.06,6.53,46.92,8,36.12,0,36.12,0-25.21.36-37.06-1.93-48-8.68-48-8.68Z"/><path class="cls-22" d="M394.64,354.13a521.41,521.41,0,0,0-87.51-2.56c-46.43,2.78-115.29,8.53-152,4.7s-39.6-14.71-23.47-16.2,53.13-3.73,65.42,1.75-7.78,6.88-15.26,7.06c0,0,20.89,1.24,27.12-4.25s-31.68-11.74-60.41-9.22-36.15,6.41-31.35,11.73,12.78,12.31,78.59,13.48,162.39-11.28,201.71.77Z"/><path class="cls-22" d="M394,363.72s-34-6.64-71.36-4-65.28,8.27-60.11,11.61,133.67,8.19,133.67,8.19l-.05-3.37s-70.68-2.38-96.16-2.7-50.4-4.55-4.08-9.45,91.81,1,100.13,4.27S394,363.72,394,363.72Z"/><path class="cls-22" d="M396,368.27s-43.81-5.62-67-3.42-34.24,2.52-31.45,4.89,49,.26,49,.26-29.72.76-30.14-1,43.26-5.43,79.61,2.63Z"/><path class="cls-22" d="M400.14,297.27s-112.4.53-149.11,4.33-65.73,4.83-94.37-.8S120,284.3,120,284.3l8.42,1.15s10.3,12.71,55.9,15.38,127.49-10.27,221.57-6Z"/><path class="cls-22" d="M392.29,299.17s-72.49,0-116.53,5.37-29.69,20.25,31,21.21,72.61-10.91,68.35-14.64-45.24-4.95-65.13.05c0,0,45.49-4.18,53.07,1.33s-15.11,8-41.63,8.53-51-.86-52.38-8.06,91.71-15,123.3-9.43Z"/><path class="cls-22" d="M102.82,305.1s31.88-2,56.76,2.29,96.76,21.94,96.76,21.94l-14.12-.54s-47.07-13.56-68.38-15.72-71-3.47-71-3.47Z"/><path class="cls-22" d="M101,311.89s61.47.92,74.93,5.82S143.24,322,143.24,322s24.42-.74,24.4-2.19-59.17-5-64.69-5.26-4.36-2.38-4.36-2.38"/><path class="cls-22" d="M396.28,275s-31.74-6.3-62.83-13.66-117.31-12.45-137.15-3.6,32.85,18.18,70.12,16.89c0,0-39.45-2.71-42.68-8.08s15.56-14.3,66.09-6.62,106.93,21,111.66,21.43S396.28,275,396.28,275Z"/><path class="cls-22" d="M97.67,255s53,5.85,74.11,14.21,29.57,11.05,29.57,11.05H187.07S172.83,269.68,145,266.51s-52.59-4.4-52.59-4.4l-8-5.38Z"/></g></g><path class="cls-18" d="M371.34,378.79S327.94,389.32,249,388.88s-125.82-8.77-124.51-10.09,3.13,12.77,3.13,12.77,104.72,28.1,240.62,0Z"/><path class="cls-5" d="M408.17,243.15H89.89c-3.32,104.23,32.22,148.14,32.22,148.14,7.45,7.45,17.8,2,17.8,2C108.51,335.68,110.06,266,110.06,266H388s1.55,69.73-29.85,127.36c0,0,10.34,5.43,17.8-2C376,391.29,411.48,347.38,408.17,243.15Z"/><path class="cls-23" d="M263.91,244.59l-2.09-8.83L249,233.2l-12.79,2.56-2.09,8.83-19.54,4.24s8.61,34.83,12.56,40.18S249,302.5,249,302.5s17.9-8.14,21.86-13.49,12.55-40.18,12.55-40.18Z"/><path class="cls-24" d="M254,259.87A6.07,6.07,0,1,0,244.6,265l-2.75,16.94H254L251.24,265A6.07,6.07,0,0,0,254,259.87Z"/><path class="cls-11" d="M271.7,289.74c-2.74,3.95-20.58,13.7-22.67,13.92-2.1-.22-19.94-10-22.68-13.92s-12.76-40.22-12.76-40.22,7.2,39,11,44.17c4.51,6.06,24.43,17.75,24.43,17.75s19.92-11.69,24.43-17.75c3.81-5.13,10.65-44.17,10.65-44.17S274.44,285.8,271.7,289.74Z"/><polygon class="cls-6" points="215.65 249.52 235.05 245.25 237.19 236.28 249.03 233.66 249.03 237.03 238.51 239.08 236.45 246.97 216.23 251.9 215.65 249.52"/><polygon class="cls-25" points="282.4 249.52 263 245.25 260.87 236.28 249.03 233.66 249.03 237.03 259.55 239.08 261.61 246.97 281.83 251.9 282.4 249.52"/><path class="cls-11" d="M249,283.39v16.87s16.82-7.06,20.51-11.61,10.35-31.22,11-34.07c0,0-6.69,27.71-14,32.2S252.08,290,249,283.39Z"/><path class="cls-11" d="M263.65,291.85s-13.12,5.84-13.65,5.88v-9.12S255.55,294.61,263.65,291.85Z"/><path class="cls-26" d="M138.64,393.14s-10.71-20.1-14.76-34.9c0,0-12.83,1.54-19.84-7.56,0,0,9.39,30.89,19.07,40.22C123.11,390.9,129.07,396.57,138.64,393.14Z"/><path class="cls-27" d="M124.08,361.4s-12.65.86-18-7.08c0,0,6.22,19.09,12.87,27.34,0,0-5.47-10-4.39-13.67s12-.52,13.72,4.67C128.26,372.66,124.4,363.43,124.08,361.4Z"/><path class="cls-9" d="M118.51,342.68,123,356.6s-11.51,1.1-19-7.67c0,0-5.26-17.43-7.34-28.5,0,0,5,20.61,11.72,26.31S119.16,348.05,118.51,342.68Z"/><path class="cls-26" d="M359.81,392.64s10.71-20.1,14.76-34.9c0,0,12.83,1.54,19.84-7.56,0,0-9.39,30.89-19.07,40.22C375.34,390.4,369.38,396.07,359.81,392.64Z"/><path class="cls-27" d="M374.37,360.9s12.65.85,18-7.08c0,0-6.21,19.09-12.86,27.34,0,0,5.47-10,4.39-13.67s-12-.52-13.72,4.67C370.19,372.16,374.05,362.93,374.37,360.9Z"/><path class="cls-9" d="M379.94,342.18l-4.49,13.92s11.51,1.09,19-7.67c0,0,5.26-17.43,7.34-28.5,0,0-5,20.61-11.72,26.3S379.29,347.55,379.94,342.18Z"/><path class="cls-26" d="M121.34,331.39s6.55,32.26,14.3,47.32c0,0,49,8.25,112.75,8.25s112.75-8.25,112.75-8.25c7.75-15.06,14.31-47.32,14.31-47.32C344.09,391.06,152.08,391,121.34,331.39Z"/><polygon class="cls-11" points="229.53 244.26 90.78 244.26 90.78 247.55 211.78 247.55 229.53 244.26"/><polygon class="cls-11" points="268.26 243.97 407.01 243.97 407.01 247.25 286.01 247.25 268.26 243.97"/><polygon class="cls-9" points="94.61 415.13 114.22 380.22 118.51 388.93 97.9 416.44 94.61 415.13"/><polygon class="cls-9" points="404.33 414.55 384.73 379.65 380.44 388.36 401.04 415.87 404.33 414.55"/></g></g></svg>