<svg xmlns="http://www.w3.org/2000/svg" xmlns:xlink="http://www.w3.org/1999/xlink" viewBox="0 0 500 500"><defs><style>.cls-1{fill:none;}.cls-2{isolation:isolate;}.cls-3{fill:#d3950b;}.cls-4{fill:#8c6239;}.cls-5{opacity:0.64;}.cls-6{clip-path:url(#clip-path);}.cls-7{fill:#63391d;}.cls-8{clip-path:url(#clip-path-2);}.cls-9{fill:#efb933;}.cls-10{fill:#ffdd50;}.cls-11{fill:#724f00;}.cls-12,.cls-15,.cls-16,.cls-17,.cls-18{mix-blend-mode:soft-light;}.cls-13,.cls-14,.cls-17,.cls-18{fill:#fff;}.cls-13,.cls-14{mix-blend-mode:overlay;}.cls-14{opacity:0.71;}.cls-15{opacity:0.51;}.cls-16{opacity:0.74;}.cls-18{opacity:0.49;}</style><clipPath id="clip-path"><path id="SVGID" class="cls-1" d="M379.43,138.89S317.9,119.79,250,119.79s-129.43,19.1-129.43,19.1c-17,23.34-29.71,65.78-29.71,65.78H409.14S396.41,162.23,379.43,138.89Z"/></clipPath><clipPath id="clip-path-2"><path id="SVGID-2" data-name="SVGID" class="cls-1" d="M250,204.67H90.86S93.05,307,125.49,352.59c0,0,64.89,10.52,124.51,10.52s124.51-10.52,124.51-10.52C407,307,409.14,204.67,409.14,204.67Z"/></clipPath></defs><title>Prancheta 2</title><g class="cls-2"><g id="OBJECTS"><path class="cls-3" d="M118.15,332.69,93.82,377.08s8.22,5.43,17.26,2l25.48-27.46Z"/><path class="cls-3" d="M382.52,332.69l24.34,44.39s-8.22,5.43-17.27,2L364.11,351.6Z"/><path class="cls-4" d="M379.43,138.89S317.9,119.79,250,119.79s-129.43,19.1-129.43,19.1c-17,23.34-29.71,65.78-29.71,65.78H409.14S396.41,162.23,379.43,138.89Z"/><path class="cls-4" d="M250,204.67H90.86S93.05,307,125.49,352.59c0,0,64.89,10.52,124.51,10.52s124.51-10.52,124.51-10.52C407,307,409.14,204.67,409.14,204.67Z"/><g class="cls-5"><g class="cls-6"><path class="cls-7" d="M385.72,177.85s-39.18-1.12-81.61-1.76-80.86-.1-89.88,3.61,38.65,16,86,20.28c0,0-48.13-6.9-51.83-12.81s17.62-10.72,69.89-6.44,67.57,9.49,67.57,9.49Z"/><path class="cls-7" d="M379.38,192.29s-60.58-11.24-81.6-10.35S282,192.69,308.59,195.3s27.81-1.86,23.54-3.18-15.87-1.93-15.87-1.93,12.35,1.36,12.37,3.18-23.43,1.56-31.93-1.62-8.09-8.39,9.58-6.85,54.47,5.78,71.22,11.73S379.38,192.29,379.38,192.29Z"/><path class="cls-7" d="M118.09,175.2c2.87-.42,9.48,4.28,38.91,9.05s59.93,17.55,59.93,17.55l-16.27-1.25s-6.21-8.93-44.34-13.12-49.83-11.52-49.83-11.52Z"/><path class="cls-7" d="M117.73,184.81s19.87,3.57,34.17,6.56,17.91,6.81,17.91,6.81l-4.16-.32s-.42-3.8-14.47-5.64-34.38-4.38-34.38-4.38Z"/><path class="cls-7" d="M116.49,164.16s20.35,3.27,37.79,5.83,71.76-2.27,79-1.84a124.33,124.33,0,0,0-24.12-.26c-12,1.22-34.41,2.77-51.84.69s-41.8-7.9-41.8-7.9Z"/><path class="cls-7" d="M118.24,159.41s29.51,6.53,43.19,8,33.25,0,33.25,0-23.21.36-34.11-1.93-44.17-8.69-44.17-8.69Z"/><path class="cls-7" d="M379.41,138.84a442.09,442.09,0,0,0-80.55-2.56c-42.73,2.78-106.11,8.53-139.88,4.7s-36.46-14.71-21.61-16.2,48.9-3.74,60.22,1.75-7.17,6.88-14.05,7.06c0,0,19.23,1.24,25-4.25s-29.16-11.74-55.6-9.22-33.27,6.41-28.85,11.73,11.76,12.31,72.33,13.48,149.47-11.28,185.66.77Z"/><path class="cls-7" d="M378.81,148.43s-31.27-6.64-65.68-4S253,152.7,257.8,156s123,8.19,123,8.19l-.05-3.38s-65-2.37-88.51-2.7-46.38-4.54-3.74-9.44,84.49,1,92.15,4.27S378.81,148.43,378.81,148.43Z"/><path class="cls-7" d="M380.68,153s-40.32-5.62-61.69-3.42-31.51,2.52-28.94,4.89,45.14.26,45.14.26-27.36.76-27.74-1,39.81-5.43,73.27,2.63Z"/><path class="cls-7" d="M384.47,82S281,82.51,247.22,86.3s-60.5,4.84-86.86-.8S126.61,69,126.61,69l7.75,1.15s9.48,12.71,51.45,15.38,117.35-10.27,203.94-6Z"/><path class="cls-7" d="M377.24,83.88s-66.72,0-107.26,5.37-27.32,20.25,28.54,21.21,66.84-10.91,62.92-14.64-41.64-4.95-59.95.05c0,0,41.87-4.18,48.85,1.33s-13.91,8-38.32,8.53-46.93-.86-48.21-8.06,84.41-15,113.49-9.43Z"/><path class="cls-7" d="M110.81,89.81s29.34-2,52.24,2.29S252.12,114,252.12,114l-13-.54s-43.32-13.56-62.93-15.73-65.31-3.46-65.31-3.46Z"/><path class="cls-7" d="M109.08,96.6s56.58.92,69,5.81-30,4.33-30,4.33,22.48-.74,22.46-2.19-54.46-5-59.54-5.26-4-2.38-4-2.38"/><path class="cls-7" d="M380.91,59.74s-29.21-6.3-57.83-13.66-108-12.46-126.23-3.6,30.24,18.18,64.53,16.89c0,0-36.3-2.71-39.27-8.08s14.31-14.3,60.83-6.62,98.41,21,102.77,21.43S380.91,59.74,380.91,59.74Z"/><path class="cls-7" d="M106.07,39.68s48.76,5.85,68.21,14.21,27.22,11,27.22,11H188.35s-13.1-10.56-38.76-13.73-48.41-4.4-48.41-4.4l-7.36-5.38Z"/></g></g><g class="cls-5"><g class="cls-8"><path class="cls-7" d="M402.47,354.66s-42.56-1.12-88.66-1.76-87.85-.1-97.65,3.61,42,16,93.46,20.28c0,0-52.3-6.9-56.32-12.81s19.15-10.72,75.94-6.44S402.65,367,402.65,367Z"/><path class="cls-7" d="M395.59,369.09s-65.82-11.23-88.66-10.35-17.18,10.76,11.75,13.36,30.21-1.86,25.57-3.17S327,367,327,367s13.41,1.37,13.44,3.19-25.46,1.55-34.69-1.62-8.79-8.39,10.41-6.85,59.17,5.78,77.38,11.73S395.59,369.09,395.59,369.09Z"/><path class="cls-7" d="M111.7,352c3.12-.43,10.3,4.28,42.28,9.05s65.11,17.55,65.11,17.55l-17.68-1.25s-6.75-8.93-48.17-13.12S99.1,352.72,99.1,352.72Z"/><path class="cls-7" d="M111.31,361.61s21.59,3.58,37.12,6.56S167.9,375,167.9,375l-4.53-.33s-.45-3.79-15.71-5.63-37.36-4.38-37.36-4.38Z"/><path class="cls-7" d="M110,341s22.1,3.27,41.05,5.83,78-2.27,85.86-1.84a146.71,146.71,0,0,0-26.21-.26c-13,1.22-37.38,2.77-56.32.69s-45.42-7.9-45.42-7.9Z"/><path class="cls-7" d="M111.87,336.21s32.06,6.54,46.92,8,36.12,0,36.12,0-25.21.36-37.06-1.93-48-8.69-48-8.69Z"/><path class="cls-7" d="M395.62,315.65a521.57,521.57,0,0,0-87.52-2.56c-46.42,2.77-115.28,8.53-152,4.7s-39.6-14.71-23.47-16.21,53.13-3.73,65.42,1.76-7.78,6.88-15.26,7.06c0,0,20.9,1.24,27.12-4.25s-31.68-11.74-60.4-9.22-36.16,6.41-31.35,11.73S131,321,196.76,322.14s162.39-11.28,201.72.76Z"/><path class="cls-7" d="M395,325.23s-34-6.63-71.36-4-65.28,8.27-60.11,11.61S397.16,341,397.16,341l-.05-3.38S326.43,335.29,301,335s-50.39-4.54-4.08-9.44,91.81,1,100.13,4.27S395,325.23,395,325.23Z"/><path class="cls-7" d="M397,329.79s-43.81-5.62-67-3.43-34.24,2.53-31.45,4.9,49,.26,49,.26-29.72.76-30.14-1,43.26-5.43,79.62,2.62Z"/><path class="cls-7" d="M401.11,258.79s-112.4.53-149.11,4.32-65.73,4.84-94.37-.8S121,245.82,121,245.82l8.42,1.14s10.3,12.72,55.9,15.39,127.49-10.27,221.58-6Z"/><path class="cls-7" d="M393.26,260.69s-72.49,0-116.53,5.37-29.69,20.25,31,21.21,72.61-10.92,68.36-14.64-45.25-4.95-65.14.05c0,0,45.49-4.18,53.07,1.33s-15.11,8-41.63,8.53-51-.86-52.38-8.06,91.71-15,123.3-9.43Z"/><path class="cls-7" d="M103.79,266.62s31.88-2,56.76,2.29,96.77,21.94,96.77,21.94l-14.13-.54s-47.07-13.56-68.37-15.73-71-3.46-71-3.46Z"/><path class="cls-7" d="M101.92,273.41s61.47.92,74.93,5.81-32.64,4.33-32.64,4.33,24.42-.74,24.4-2.19-59.17-5-64.68-5.26-4.37-2.38-4.37-2.38"/><path class="cls-7" d="M397.25,236.55s-31.73-6.3-62.83-13.66-117.31-12.46-137.14-3.6,32.84,18.18,70.11,16.88c0,0-39.45-2.71-42.68-8.07s15.56-14.3,66.09-6.62,106.93,21,111.66,21.43S397.25,236.55,397.25,236.55Z"/><path class="cls-7" d="M98.64,216.49s53,5.85,74.11,14.21,29.57,11.05,29.57,11.05H188S173.81,231.2,145.92,228s-52.59-4.4-52.59-4.4l-8-5.38Z"/></g></g><path class="cls-9" d="M380.21,138.32c-10.2-12.28-23.89-5.49-23.89-5.49,20.4,16.55,25.64,51.41,25.64,51.41H118s5.24-34.86,25.64-51.41c0,0-13.69-6.79-23.89,5.49,0,0-17.53,21.9-28.93,66.35H409.14C397.74,160.22,380.21,138.32,380.21,138.32Z"/><path class="cls-3" d="M372.31,340.31S328.91,350.83,250,350.4s-125.82-8.77-124.51-10.09,3.13,12.76,3.13,12.76,104.72,28.11,240.63,0Z"/><path class="cls-9" d="M409.14,204.67H90.86c-3.32,104.23,32.22,148.14,32.22,148.14,7.45,7.45,17.8,2,17.8,2C109.48,297.19,111,227.47,111,227.47H389s1.55,69.72-29.85,127.36c0,0,10.35,5.43,17.8-2C376.92,352.81,412.46,308.9,409.14,204.67Z"/><path class="cls-10" d="M264.88,206.11l-2.09-8.83L250,194.72l-12.79,2.56-2.09,8.83-19.54,4.23s8.61,34.84,12.56,40.19S250,264,250,264s17.91-8.14,21.86-13.48,12.56-40.19,12.56-40.19Z"/><path class="cls-11" d="M255,221.39a6.07,6.07,0,1,0-9.39,5.08l-2.75,16.94H255l-2.75-16.94A6.08,6.08,0,0,0,255,221.39Z"/><path class="cls-12" d="M272.67,251.26c-2.74,4-20.57,13.7-22.67,13.92-2.1-.22-19.93-10-22.67-13.92S214.56,211,214.56,211s7.2,39,11,44.17C230.08,261.26,250,273,250,273s19.92-11.7,24.43-17.75c3.81-5.13,10.66-44.17,10.66-44.17S275.41,247.31,272.67,251.26Z"/><polygon class="cls-13" points="216.63 211.04 236.03 206.76 238.16 197.8 250 195.17 250 198.54 239.48 200.6 237.42 208.49 217.2 213.42 216.63 211.04"/><polygon class="cls-14" points="283.37 211.04 263.97 206.76 261.84 197.8 250 195.17 250 198.54 260.52 200.6 262.58 208.49 282.8 213.42 283.37 211.04"/><path class="cls-12" d="M250,244.9v16.88s16.83-7.06,20.51-11.62,10.35-31.21,11-34.06c0,0-6.69,27.71-14,32.2S253.06,251.48,250,244.9Z"/><path class="cls-12" d="M264.62,253.37s-13.11,5.84-13.65,5.88v-9.13S256.52,256.12,264.62,253.37Z"/><path class="cls-15" d="M139.61,354.65s-10.71-20.09-14.76-34.89c0,0-12.82,1.54-19.84-7.56,0,0,9.4,30.89,19.07,40.22C124.08,352.42,130,358.09,139.61,354.65Z"/><path class="cls-16" d="M125.05,322.91s-12.65.86-18-7.07c0,0,6.22,19.09,12.86,27.34,0,0-5.46-10-4.39-13.67s12-.53,13.72,4.66C129.23,334.17,125.37,325,125.05,322.91Z"/><path class="cls-17" d="M119.48,304.2,124,318.12s-11.51,1.09-19-7.67c0,0-5.26-17.43-7.34-28.5,0,0,5,20.6,11.72,26.3S120.14,309.57,119.48,304.2Z"/><path class="cls-15" d="M360.78,354.15s10.71-20.09,14.76-34.89c0,0,12.83,1.53,19.84-7.56,0,0-9.39,30.88-19.07,40.22C376.31,351.92,370.36,357.59,360.78,354.15Z"/><path class="cls-16" d="M375.34,322.41s12.66.86,18-7.07c0,0-6.22,19.08-12.87,27.34,0,0,5.47-10,4.4-13.67s-12-.53-13.73,4.66C371.16,333.67,375,324.45,375.34,322.41Z"/><path class="cls-17" d="M380.92,303.7l-4.5,13.92s11.51,1.09,19-7.68c0,0,5.26-17.42,7.35-28.49,0,0-5.05,20.6-11.73,26.3S380.26,309.07,380.92,303.7Z"/><path class="cls-15" d="M122.31,292.91s6.56,32.26,14.31,47.32c0,0,49,8.25,112.75,8.25s112.75-8.25,112.75-8.25c7.75-15.06,14.3-47.32,14.3-47.32C345.06,352.58,153.05,352.49,122.31,292.91Z"/><path class="cls-18" d="M121.36,175.8a140,140,0,0,1,20.38-40.39s43.43-13.19,107.15-13.19,107.22,13.19,107.22,13.19c15,16.39,22.36,40.12,22.36,40.12C347.11,115.86,152.1,116.22,121.36,175.8Z"/><path class="cls-13" d="M124.27,158.37s7.3-18.43,17.47-25.08c0,0-11.88-3.2-18.54,3.22S108.6,157.29,107,162.62C107,162.62,116.49,152.45,124.27,158.37Z"/><path class="cls-13" d="M375.28,158s-7.3-18.44-17.47-25.08c0,0,11.89-3.2,18.54,3.22s14.6,20.77,16.18,26.11C392.53,162.23,383.06,152.06,375.28,158Z"/><polygon class="cls-12" points="230.5 205.78 91.75 205.78 91.75 209.06 212.75 209.06 230.5 205.78"/><polygon class="cls-12" points="269.23 205.49 407.99 205.49 407.99 208.77 286.99 208.77 269.23 205.49"/><polygon class="cls-17" points="95.58 376.64 115.19 341.74 119.48 350.45 98.87 377.96 95.58 376.64"/><polygon class="cls-17" points="405.3 376.07 385.7 341.17 381.41 349.88 402.01 377.39 405.3 376.07"/></g></g></svg>