<svg xmlns="http://www.w3.org/2000/svg" xmlns:xlink="http://www.w3.org/1999/xlink" viewBox="0 0 500 500"><defs><style>.cls-1{fill:none;}.cls-2{isolation:isolate;}.cls-3{fill:#562500;}.cls-4{fill:#d1940d;}.cls-5{fill:#efb933;}.cls-17,.cls-20,.cls-6{fill:#fff;}.cls-17,.cls-6{mix-blend-mode:overlay;}.cls-7{fill:#d69a12;}.cls-8{fill:#af7500;}.cls-9{fill:#d3950b;}.cls-10{fill:#8c6239;}.cls-11{opacity:0.64;}.cls-12{clip-path:url(#clip-path);}.cls-13{fill:#63391d;}.cls-14{fill:#ffdd50;}.cls-15{fill:#724f00;}.cls-16,.cls-18,.cls-19,.cls-20{mix-blend-mode:soft-light;}.cls-17{opacity:0.71;}.cls-18{opacity:0.51;}.cls-19{opacity:0.74;}</style><clipPath id="clip-path"><path id="SVGID" class="cls-1" d="M249,243.15H89.89s2.19,102.33,34.63,147.92c0,0,64.88,10.52,124.51,10.52s124.5-10.52,124.5-10.52c32.45-45.59,34.64-147.92,34.64-147.92Z"/></clipPath></defs><title>Prancheta 4</title><g class="cls-2"><g id="OBJECTS"><path class="cls-3" d="M419.12,141c-6.13,59.74-33.33,104.64-33.33,104.64L250,267.84,118.46,246.3l-4.24-.68S87,200.72,80.9,141a56.83,56.83,0,0,1,9-4.6c17.76-7.76,64.24-22.57,160.12-22.57C379.87,113.81,419.12,141,419.12,141Z"/><path class="cls-4" d="M121.33,245.91l-2.87.39-4.24-.68S87,200.72,80.9,141a56.83,56.83,0,0,1,9-4.6C93.86,212.47,121.33,245.91,121.33,245.91Z"/><path class="cls-4" d="M378.69,245.91l2.86.39,4.24-.68S413,200.72,419.12,141a57.36,57.36,0,0,0-9-4.6C406.15,212.47,378.69,245.91,378.69,245.91Z"/><path class="cls-5" d="M413.85,105.91C357.74,79.6,247.73,81.34,247.73,81.34h0c-15.75-.08-110.25.51-161.58,24.57,0,0-14.91,19.29-14.91,42.08,0,0,62-28.93,178.76-28.93S428.76,148,428.76,148C428.76,125.2,413.85,105.91,413.85,105.91Z"/><path class="cls-6" d="M416.37,118.18,412,108.54c-73.39-26.73-156.93-23.9-162.26-23.69-5.32-.21-88.86-3-162.26,23.69l-4.38,9.64s54.05-28.45,166.64-28.49S416.37,118.18,416.37,118.18Z"/><rect class="cls-5" x="144.66" y="243.14" width="40.97" height="7.01"/><rect class="cls-7" x="166.03" y="243.98" width="18.74" height="5.43"/><rect class="cls-8" x="167.31" y="243.98" width="3.95" height="5.43"/><rect class="cls-6" x="145.92" y="243.98" width="11.73" height="5.43"/><rect class="cls-5" x="139.84" y="236.12" width="40.97" height="7.01"/><rect class="cls-7" x="161.21" y="236.97" width="18.74" height="5.43"/><rect class="cls-8" x="162.49" y="236.97" width="3.95" height="5.43"/><rect class="cls-6" x="141.1" y="236.97" width="11.73" height="5.43"/><rect class="cls-5" x="136.22" y="229.02" width="40.97" height="7.01"/><rect class="cls-7" x="157.59" y="229.87" width="18.74" height="5.43"/><rect class="cls-8" x="158.88" y="229.87" width="3.95" height="5.43"/><rect class="cls-6" x="137.48" y="229.87" width="11.73" height="5.43"/><rect class="cls-5" x="144.66" y="221.93" width="40.97" height="7.01"/><rect class="cls-7" x="166.03" y="222.78" width="18.74" height="5.43"/><rect class="cls-8" x="167.31" y="222.78" width="3.95" height="5.43"/><rect class="cls-6" x="145.92" y="222.78" width="11.73" height="5.43"/><rect class="cls-5" x="143.34" y="214.91" width="40.97" height="7.01"/><rect class="cls-7" x="164.72" y="215.76" width="18.74" height="5.43"/><rect class="cls-8" x="166" y="215.76" width="3.95" height="5.43"/><rect class="cls-6" x="144.6" y="215.76" width="11.73" height="5.43"/><rect class="cls-5" x="139.84" y="207.9" width="40.97" height="7.01"/><rect class="cls-7" x="161.21" y="208.75" width="18.74" height="5.43"/><rect class="cls-8" x="162.49" y="208.75" width="3.95" height="5.43"/><rect class="cls-6" x="141.1" y="208.75" width="11.73" height="5.43"/><rect class="cls-5" x="143.34" y="200.89" width="40.97" height="7.01"/><rect class="cls-7" x="164.72" y="201.74" width="18.74" height="5.43"/><rect class="cls-8" x="166" y="201.74" width="3.95" height="5.43"/><rect class="cls-6" x="144.6" y="201.74" width="11.73" height="5.43"/><rect class="cls-5" x="144.66" y="193.88" width="40.97" height="7.01"/><rect class="cls-7" x="166.03" y="194.73" width="18.74" height="5.43"/><rect class="cls-8" x="167.31" y="194.73" width="3.95" height="5.43"/><rect class="cls-6" x="145.92" y="194.73" width="11.73" height="5.43"/><rect class="cls-5" x="146.7" y="186.86" width="40.97" height="7.01"/><rect class="cls-7" x="168.07" y="187.71" width="18.74" height="5.43"/><rect class="cls-8" x="169.36" y="187.71" width="3.95" height="5.43"/><rect class="cls-6" x="147.96" y="187.71" width="11.73" height="5.43"/><rect class="cls-5" x="141.73" y="179.85" width="40.97" height="7.01"/><rect class="cls-7" x="163.1" y="180.7" width="18.74" height="5.43"/><rect class="cls-8" x="164.38" y="180.7" width="3.95" height="5.43"/><rect class="cls-6" x="142.99" y="180.7" width="11.73" height="5.43"/><rect class="cls-5" x="137.66" y="172.84" width="40.97" height="7.01"/><rect class="cls-7" x="159.03" y="173.68" width="18.74" height="5.43"/><rect class="cls-8" x="160.32" y="173.68" width="3.95" height="5.43"/><rect class="cls-6" x="138.92" y="173.68" width="11.73" height="5.43"/><rect class="cls-5" x="144.66" y="165.83" width="40.97" height="7.01"/><rect class="cls-7" x="166.03" y="166.68" width="18.74" height="5.43"/><rect class="cls-8" x="167.31" y="166.68" width="3.95" height="5.43"/><rect class="cls-6" x="145.92" y="166.68" width="11.73" height="5.43"/><rect class="cls-5" x="285.79" y="248.04" width="40.97" height="7.01"/><rect class="cls-7" x="307.16" y="248.89" width="18.74" height="5.43"/><rect class="cls-8" x="308.45" y="248.89" width="3.95" height="5.43"/><rect class="cls-6" x="287.05" y="248.89" width="11.73" height="5.43"/><rect class="cls-5" x="281.29" y="241.53" width="40.97" height="7.01"/><rect class="cls-7" x="302.66" y="242.38" width="18.74" height="5.43"/><rect class="cls-8" x="303.94" y="242.38" width="3.95" height="5.43"/><rect class="cls-6" x="282.55" y="242.38" width="11.73" height="5.43"/><rect class="cls-5" x="282.18" y="234.51" width="40.97" height="7.01"/><rect class="cls-7" x="303.55" y="235.36" width="18.74" height="5.43"/><rect class="cls-8" x="304.83" y="235.36" width="3.95" height="5.43"/><rect class="cls-6" x="283.44" y="235.36" width="11.73" height="5.43"/><rect class="cls-5" x="281.29" y="228.35" width="40.97" height="7.01"/><rect class="cls-7" x="302.66" y="229.2" width="18.74" height="5.43"/><rect class="cls-8" x="303.94" y="229.2" width="3.95" height="5.43"/><rect class="cls-6" x="282.55" y="229.2" width="11.73" height="5.43"/><rect class="cls-5" x="281.29" y="222.91" width="40.97" height="7.01"/><rect class="cls-7" x="302.66" y="223.76" width="18.74" height="5.43"/><rect class="cls-8" x="303.94" y="223.76" width="3.95" height="5.43"/><rect class="cls-6" x="282.55" y="223.76" width="11.73" height="5.43"/><rect class="cls-5" x="285.79" y="216.13" width="40.97" height="7.01"/><rect class="cls-7" x="307.16" y="216.98" width="18.74" height="5.43"/><rect class="cls-8" x="308.45" y="216.98" width="3.95" height="5.43"/><rect class="cls-6" x="287.05" y="216.98" width="11.73" height="5.43"/><rect class="cls-5" x="282.08" y="209.17" width="40.97" height="7.01"/><rect class="cls-7" x="303.45" y="210.02" width="18.74" height="5.43"/><rect class="cls-8" x="304.74" y="210.02" width="3.95" height="5.43"/><rect class="cls-6" x="283.34" y="210.02" width="11.73" height="5.43"/><rect class="cls-5" x="285.45" y="202.1" width="40.97" height="7.01"/><rect class="cls-7" x="306.82" y="202.95" width="18.74" height="5.43"/><rect class="cls-8" x="308.1" y="202.95" width="3.95" height="5.43"/><rect class="cls-6" x="286.71" y="202.95" width="11.73" height="5.43"/><rect class="cls-5" x="279.33" y="195.08" width="40.97" height="7.01"/><rect class="cls-7" x="300.7" y="195.93" width="18.74" height="5.43"/><rect class="cls-8" x="301.99" y="195.93" width="3.95" height="5.43"/><rect class="cls-6" x="280.59" y="195.93" width="11.73" height="5.43"/><rect class="cls-5" x="282.12" y="188.07" width="40.97" height="7.01"/><rect class="cls-7" x="303.5" y="188.92" width="18.74" height="5.43"/><rect class="cls-8" x="304.78" y="188.92" width="3.95" height="5.43"/><rect class="cls-6" x="283.39" y="188.92" width="11.73" height="5.43"/><rect class="cls-5" x="277.94" y="181.05" width="40.97" height="7.01"/><rect class="cls-7" x="299.31" y="181.9" width="18.74" height="5.43"/><rect class="cls-8" x="300.59" y="181.9" width="3.95" height="5.43"/><rect class="cls-6" x="279.2" y="181.9" width="11.73" height="5.43"/><rect class="cls-5" x="280.22" y="174.04" width="40.97" height="7.01"/><rect class="cls-7" x="301.59" y="174.89" width="18.74" height="5.43"/><rect class="cls-8" x="302.88" y="174.89" width="3.95" height="5.43"/><rect class="cls-6" x="281.48" y="174.89" width="11.73" height="5.43"/><rect class="cls-5" x="279.37" y="167.02" width="40.97" height="7.01"/><rect class="cls-7" x="300.74" y="167.87" width="18.74" height="5.43"/><rect class="cls-8" x="302.02" y="167.87" width="3.95" height="5.43"/><rect class="cls-6" x="280.63" y="167.87" width="11.73" height="5.43"/><rect class="cls-5" x="316.61" y="269.66" width="40.97" height="7.01"/><rect class="cls-7" x="337.98" y="270.51" width="18.74" height="5.43"/><rect class="cls-8" x="339.26" y="270.51" width="3.95" height="5.43"/><rect class="cls-6" x="317.87" y="270.51" width="11.73" height="5.43"/><rect class="cls-5" x="311.78" y="262.64" width="40.97" height="7.01"/><rect class="cls-7" x="333.16" y="263.49" width="18.74" height="5.43"/><rect class="cls-8" x="334.44" y="263.49" width="3.95" height="5.43"/><rect class="cls-6" x="313.04" y="263.49" width="11.73" height="5.43"/><rect class="cls-5" x="308.17" y="255.55" width="40.97" height="7.01"/><rect class="cls-7" x="329.54" y="256.4" width="18.74" height="5.43"/><rect class="cls-8" x="330.82" y="256.4" width="3.95" height="5.43"/><rect class="cls-6" x="309.43" y="256.4" width="11.73" height="5.43"/><rect class="cls-5" x="316.61" y="248.45" width="40.97" height="7.01"/><rect class="cls-7" x="337.98" y="249.3" width="18.74" height="5.43"/><rect class="cls-8" x="339.26" y="249.3" width="3.95" height="5.43"/><rect class="cls-6" x="317.87" y="249.3" width="11.73" height="5.43"/><rect class="cls-5" x="315.29" y="241.44" width="40.97" height="7.01"/><rect class="cls-7" x="336.66" y="242.29" width="18.74" height="5.43"/><rect class="cls-8" x="337.95" y="242.29" width="3.95" height="5.43"/><rect class="cls-6" x="316.55" y="242.29" width="11.73" height="5.43"/><rect class="cls-5" x="311.78" y="234.43" width="40.97" height="7.01"/><rect class="cls-7" x="333.16" y="235.28" width="18.74" height="5.43"/><rect class="cls-8" x="334.44" y="235.28" width="3.95" height="5.43"/><rect class="cls-6" x="313.04" y="235.28" width="11.73" height="5.43"/><rect class="cls-5" x="315.29" y="227.42" width="40.97" height="7.01"/><rect class="cls-7" x="336.66" y="228.27" width="18.74" height="5.43"/><rect class="cls-8" x="337.95" y="228.27" width="3.95" height="5.43"/><rect class="cls-6" x="316.55" y="228.27" width="11.73" height="5.43"/><rect class="cls-5" x="316.61" y="220.4" width="40.97" height="7.01"/><rect class="cls-7" x="337.98" y="221.25" width="18.74" height="5.43"/><rect class="cls-8" x="339.26" y="221.25" width="3.95" height="5.43"/><rect class="cls-6" x="317.87" y="221.25" width="11.73" height="5.43"/><rect class="cls-5" x="318.65" y="213.39" width="40.97" height="7.01"/><rect class="cls-7" x="340.02" y="214.24" width="18.74" height="5.43"/><rect class="cls-8" x="341.3" y="214.24" width="3.95" height="5.43"/><rect class="cls-6" x="319.91" y="214.24" width="11.73" height="5.43"/><rect class="cls-5" x="313.68" y="206.38" width="40.97" height="7.01"/><rect class="cls-7" x="335.05" y="207.23" width="18.74" height="5.43"/><rect class="cls-8" x="336.33" y="207.23" width="3.95" height="5.43"/><rect class="cls-6" x="314.94" y="207.23" width="11.73" height="5.43"/><rect class="cls-5" x="309.61" y="199.36" width="40.97" height="7.01"/><rect class="cls-7" x="330.98" y="200.21" width="18.74" height="5.43"/><rect class="cls-8" x="332.26" y="200.21" width="3.95" height="5.43"/><rect class="cls-6" x="310.87" y="200.21" width="11.73" height="5.43"/><rect class="cls-5" x="316.61" y="192.35" width="40.97" height="7.01"/><rect class="cls-7" x="337.98" y="193.2" width="18.74" height="5.43"/><rect class="cls-8" x="339.26" y="193.2" width="3.95" height="5.43"/><rect class="cls-6" x="317.87" y="193.2" width="11.73" height="5.43"/><rect class="cls-5" x="346.5" y="293.12" width="40.97" height="7.01" transform="translate(733.98 593.26) rotate(180)"/><rect class="cls-7" x="347.36" y="293.97" width="18.74" height="5.43" transform="translate(713.46 593.37) rotate(180)"/><rect class="cls-8" x="360.87" y="293.97" width="3.95" height="5.43" transform="translate(725.69 593.37) rotate(180)"/><rect class="cls-6" x="374.49" y="293.97" width="11.73" height="5.43" transform="translate(760.7 593.37) rotate(180)"/><rect class="cls-5" x="351.33" y="286.11" width="40.97" height="7.01" transform="translate(743.62 579.23) rotate(180)"/><rect class="cls-7" x="352.18" y="286.96" width="18.74" height="5.43" transform="translate(723.1 579.34) rotate(180)"/><rect class="cls-8" x="365.69" y="286.96" width="3.95" height="5.43" transform="translate(735.33 579.34) rotate(180)"/><rect class="cls-6" x="379.31" y="286.96" width="11.73" height="5.43" transform="translate(770.34 579.34) rotate(180)"/><rect class="cls-5" x="354.94" y="279.01" width="40.97" height="7.01" transform="translate(750.86 565.04) rotate(180)"/><rect class="cls-7" x="355.8" y="279.86" width="18.74" height="5.43" transform="translate(730.34 565.15) rotate(180)"/><rect class="cls-8" x="369.31" y="279.86" width="3.95" height="5.43" transform="translate(742.57 565.15) rotate(180)"/><rect class="cls-6" x="382.92" y="279.86" width="11.73" height="5.43" transform="translate(777.58 565.15) rotate(180)"/><rect class="cls-5" x="346.5" y="271.92" width="40.97" height="7.01" transform="translate(733.98 550.85) rotate(180)"/><rect class="cls-7" x="347.36" y="272.77" width="18.74" height="5.43" transform="translate(713.46 550.96) rotate(180)"/><rect class="cls-8" x="360.87" y="272.77" width="3.95" height="5.43" transform="translate(725.69 550.96) rotate(180)"/><rect class="cls-6" x="374.49" y="272.77" width="11.73" height="5.43" transform="translate(760.7 550.96) rotate(180)"/><rect class="cls-5" x="347.82" y="264.9" width="40.97" height="7.01" transform="translate(736.61 536.82) rotate(180)"/><rect class="cls-7" x="348.67" y="265.75" width="18.74" height="5.43" transform="translate(716.09 536.93) rotate(180)"/><rect class="cls-8" x="362.19" y="265.75" width="3.95" height="5.43" transform="translate(728.32 536.93) rotate(180)"/><rect class="cls-6" x="375.8" y="265.75" width="11.73" height="5.43" transform="translate(763.33 536.93) rotate(180)"/><rect class="cls-5" x="351.33" y="257.89" width="40.97" height="7.01" transform="translate(743.62 522.8) rotate(180)"/><rect class="cls-7" x="352.18" y="258.74" width="18.74" height="5.43" transform="translate(723.1 522.91) rotate(180)"/><rect class="cls-8" x="365.69" y="258.74" width="3.95" height="5.43" transform="translate(735.33 522.91) rotate(180)"/><rect class="cls-6" x="379.31" y="258.74" width="11.73" height="5.43" transform="translate(770.34 522.91) rotate(180)"/><rect class="cls-5" x="347.82" y="250.88" width="40.97" height="7.01" transform="translate(736.61 508.78) rotate(180)"/><rect class="cls-7" x="348.67" y="251.73" width="18.74" height="5.43" transform="translate(716.09 508.89) rotate(180)"/><rect class="cls-8" x="362.19" y="251.73" width="3.95" height="5.43" transform="translate(728.32 508.89) rotate(180)"/><rect class="cls-6" x="375.8" y="251.73" width="11.73" height="5.43" transform="translate(763.33 508.89) rotate(180)"/><rect class="cls-5" x="346.5" y="243.87" width="40.97" height="7.01" transform="translate(733.98 494.75) rotate(180)"/><rect class="cls-7" x="347.36" y="244.72" width="18.74" height="5.43" transform="translate(713.46 494.86) rotate(180)"/><rect class="cls-8" x="360.87" y="244.72" width="3.95" height="5.43" transform="translate(725.69 494.86) rotate(180)"/><rect class="cls-6" x="374.49" y="244.72" width="11.73" height="5.43" transform="translate(760.7 494.86) rotate(180)"/><rect class="cls-5" x="344.46" y="236.85" width="40.97" height="7.01" transform="translate(729.89 480.72) rotate(180)"/><rect class="cls-7" x="345.32" y="237.7" width="18.74" height="5.43" transform="translate(709.38 480.83) rotate(180)"/><rect class="cls-8" x="358.83" y="237.7" width="3.95" height="5.43" transform="translate(721.61 480.83) rotate(180)"/><rect class="cls-6" x="372.44" y="237.7" width="11.73" height="5.43" transform="translate(756.61 480.83) rotate(180)"/><rect class="cls-5" x="349.43" y="229.84" width="40.97" height="7.01" transform="translate(739.84 466.7) rotate(180)"/><rect class="cls-7" x="350.29" y="230.69" width="18.74" height="5.43" transform="translate(719.32 466.81) rotate(180)"/><rect class="cls-8" x="363.8" y="230.69" width="3.95" height="5.43" transform="translate(731.55 466.81) rotate(180)"/><rect class="cls-6" x="377.41" y="230.69" width="11.73" height="5.43" transform="translate(766.56 466.81) rotate(180)"/><rect class="cls-5" x="353.5" y="222.82" width="40.97" height="7.01" transform="translate(747.97 452.66) rotate(180)"/><rect class="cls-7" x="354.36" y="223.67" width="18.74" height="5.43" transform="translate(727.45 452.77) rotate(180)"/><rect class="cls-8" x="367.87" y="223.67" width="3.95" height="5.43" transform="translate(739.68 452.77) rotate(180)"/><rect class="cls-6" x="381.48" y="223.67" width="11.73" height="5.43" transform="translate(774.69 452.77) rotate(180)"/><rect class="cls-5" x="346.5" y="215.82" width="40.97" height="7.01" transform="translate(733.98 438.65) rotate(180)"/><rect class="cls-7" x="347.36" y="216.67" width="18.74" height="5.43" transform="translate(713.46 438.76) rotate(180)"/><rect class="cls-8" x="360.87" y="216.67" width="3.95" height="5.43" transform="translate(725.69 438.76) rotate(180)"/><rect class="cls-6" x="374.49" y="216.67" width="11.73" height="5.43" transform="translate(760.7 438.76) rotate(180)"/><rect class="cls-5" x="104.58" y="266.45" width="40.97" height="7.01" transform="translate(250.13 539.91) rotate(180)"/><rect class="cls-7" x="105.43" y="267.3" width="18.74" height="5.43" transform="translate(229.61 540.02) rotate(180)"/><rect class="cls-8" x="118.95" y="267.3" width="3.95" height="5.43" transform="translate(241.84 540.02) rotate(180)"/><rect class="cls-6" x="132.56" y="267.3" width="11.73" height="5.43" transform="translate(276.85 540.02) rotate(180)"/><rect class="cls-5" x="109.4" y="259.43" width="40.97" height="7.01" transform="translate(259.77 525.88) rotate(180)"/><rect class="cls-7" x="110.26" y="260.28" width="18.74" height="5.43" transform="translate(239.25 525.99) rotate(180)"/><rect class="cls-8" x="123.77" y="260.28" width="3.95" height="5.43" transform="translate(251.48 525.99) rotate(180)"/><rect class="cls-6" x="137.38" y="260.28" width="11.73" height="5.43" transform="translate(286.49 525.99) rotate(180)"/><rect class="cls-5" x="113.02" y="252.34" width="40.97" height="7.01" transform="translate(267 511.69) rotate(180)"/><rect class="cls-7" x="113.87" y="253.19" width="18.74" height="5.43" transform="translate(246.49 511.8) rotate(180)"/><rect class="cls-8" x="127.39" y="253.19" width="3.95" height="5.43" transform="translate(258.72 511.8) rotate(180)"/><rect class="cls-6" x="141" y="253.19" width="11.73" height="5.43" transform="translate(293.72 511.8) rotate(180)"/><rect class="cls-5" x="104.58" y="245.24" width="40.97" height="7.01" transform="translate(250.13 497.5) rotate(180)"/><rect class="cls-7" x="105.43" y="246.09" width="18.74" height="5.43" transform="translate(229.61 497.61) rotate(180)"/><rect class="cls-8" x="118.95" y="246.09" width="3.95" height="5.43" transform="translate(241.84 497.61) rotate(180)"/><rect class="cls-6" x="132.56" y="246.09" width="11.73" height="5.43" transform="translate(276.85 497.61) rotate(180)"/><rect class="cls-5" x="105.89" y="238.23" width="40.97" height="7.01" transform="translate(252.76 483.47) rotate(180)"/><rect class="cls-7" x="106.75" y="239.08" width="18.74" height="5.43" transform="translate(232.24 483.58) rotate(180)"/><rect class="cls-8" x="120.26" y="239.08" width="3.95" height="5.43" transform="translate(244.47 483.58) rotate(180)"/><rect class="cls-6" x="133.87" y="239.08" width="11.73" height="5.43" transform="translate(279.48 483.58) rotate(180)"/><rect class="cls-5" x="109.4" y="231.22" width="40.97" height="7.01" transform="translate(259.77 469.45) rotate(180)"/><rect class="cls-7" x="110.26" y="232.07" width="18.74" height="5.43" transform="translate(239.25 469.56) rotate(180)"/><rect class="cls-8" x="123.77" y="232.07" width="3.95" height="5.43" transform="translate(251.48 469.56) rotate(180)"/><rect class="cls-6" x="137.38" y="232.07" width="11.73" height="5.43" transform="translate(286.49 469.56) rotate(180)"/><rect class="cls-5" x="105.89" y="224.21" width="40.97" height="7.01" transform="translate(252.76 455.43) rotate(180)"/><rect class="cls-7" x="106.75" y="225.06" width="18.74" height="5.43" transform="translate(232.24 455.54) rotate(180)"/><rect class="cls-8" x="120.26" y="225.06" width="3.95" height="5.43" transform="translate(244.47 455.54) rotate(180)"/><rect class="cls-6" x="133.87" y="225.06" width="11.73" height="5.43" transform="translate(279.48 455.54) rotate(180)"/><rect class="cls-5" x="104.58" y="217.19" width="40.97" height="7.01" transform="translate(250.13 441.4) rotate(180)"/><rect class="cls-7" x="105.43" y="218.04" width="18.74" height="5.43" transform="translate(229.61 441.51) rotate(180)"/><rect class="cls-8" x="118.95" y="218.04" width="3.95" height="5.43" transform="translate(241.84 441.51) rotate(180)"/><rect class="cls-6" x="132.56" y="218.04" width="11.73" height="5.43" transform="translate(276.85 441.51) rotate(180)"/><rect class="cls-5" x="102.54" y="210.18" width="40.97" height="7.01" transform="translate(246.04 427.37) rotate(180)"/><rect class="cls-7" x="103.39" y="211.03" width="18.74" height="5.43" transform="translate(225.52 427.48) rotate(180)"/><rect class="cls-8" x="116.9" y="211.03" width="3.95" height="5.43" transform="translate(237.76 427.48) rotate(180)"/><rect class="cls-6" x="130.52" y="211.03" width="11.73" height="5.43" transform="translate(272.76 427.48) rotate(180)"/><rect class="cls-5" x="107.51" y="203.17" width="40.97" height="7.01" transform="translate(255.99 413.35) rotate(180)"/><rect class="cls-7" x="108.36" y="204.02" width="18.74" height="5.43" transform="translate(235.47 413.46) rotate(180)"/><rect class="cls-8" x="121.88" y="204.02" width="3.95" height="5.43" transform="translate(247.7 413.46) rotate(180)"/><rect class="cls-6" x="135.49" y="204.02" width="11.73" height="5.43" transform="translate(282.71 413.46) rotate(180)"/><rect class="cls-5" x="111.58" y="196.15" width="40.97" height="7.01" transform="translate(264.12 399.31) rotate(180)"/><rect class="cls-7" x="112.43" y="197" width="18.74" height="5.43" transform="translate(243.6 399.42) rotate(180)"/><rect class="cls-8" x="125.94" y="197" width="3.95" height="5.43" transform="translate(255.83 399.42) rotate(180)"/><rect class="cls-6" x="139.56" y="197" width="11.73" height="5.43" transform="translate(290.84 399.42) rotate(180)"/><rect class="cls-5" x="104.58" y="189.14" width="40.97" height="7.01" transform="translate(250.13 385.3) rotate(180)"/><rect class="cls-7" x="105.43" y="189.99" width="18.74" height="5.43" transform="translate(229.61 385.41) rotate(180)"/><rect class="cls-8" x="118.95" y="189.99" width="3.95" height="5.43" transform="translate(241.84 385.41) rotate(180)"/><rect class="cls-6" x="132.56" y="189.99" width="11.73" height="5.43" transform="translate(276.85 385.41) rotate(180)"/><rect class="cls-5" x="179.9" y="250.99" width="40.97" height="7.01"/><rect class="cls-7" x="201.27" y="251.84" width="18.74" height="5.43"/><rect class="cls-8" x="202.56" y="251.84" width="3.95" height="5.43"/><rect class="cls-6" x="181.16" y="251.84" width="11.73" height="5.43"/><rect class="cls-5" x="175.4" y="244.48" width="40.97" height="7.01"/><rect class="cls-7" x="196.77" y="245.33" width="18.74" height="5.43"/><rect class="cls-8" x="198.05" y="245.33" width="3.95" height="5.43"/><rect class="cls-6" x="176.66" y="245.33" width="11.73" height="5.43"/><rect class="cls-5" x="176.29" y="237.47" width="40.97" height="7.01"/><rect class="cls-7" x="197.66" y="238.32" width="18.74" height="5.43"/><rect class="cls-8" x="198.94" y="238.32" width="3.95" height="5.43"/><rect class="cls-6" x="177.55" y="238.32" width="11.73" height="5.43"/><rect class="cls-5" x="175.4" y="231.3" width="40.97" height="7.01"/><rect class="cls-7" x="196.77" y="232.15" width="18.74" height="5.43"/><rect class="cls-8" x="198.05" y="232.15" width="3.95" height="5.43"/><rect class="cls-6" x="176.66" y="232.15" width="11.73" height="5.43"/><rect class="cls-5" x="175.4" y="225.86" width="40.97" height="7.01"/><rect class="cls-7" x="196.77" y="226.71" width="18.74" height="5.43"/><rect class="cls-8" x="198.05" y="226.71" width="3.95" height="5.43"/><rect class="cls-6" x="176.66" y="226.71" width="11.73" height="5.43"/><rect class="cls-5" x="179.9" y="219.08" width="40.97" height="7.01"/><rect class="cls-7" x="201.27" y="219.93" width="18.74" height="5.43"/><rect class="cls-8" x="202.56" y="219.93" width="3.95" height="5.43"/><rect class="cls-6" x="181.16" y="219.93" width="11.73" height="5.43"/><rect class="cls-5" x="176.19" y="212.12" width="40.97" height="7.01"/><rect class="cls-7" x="197.56" y="212.97" width="18.74" height="5.43"/><rect class="cls-8" x="198.84" y="212.97" width="3.95" height="5.43"/><rect class="cls-6" x="177.45" y="212.97" width="11.73" height="5.43"/><rect class="cls-5" x="179.56" y="205.05" width="40.97" height="7.01"/><rect class="cls-7" x="200.93" y="205.9" width="18.74" height="5.43"/><rect class="cls-8" x="202.21" y="205.9" width="3.95" height="5.43"/><rect class="cls-6" x="180.82" y="205.9" width="11.73" height="5.43"/><rect class="cls-5" x="173.44" y="198.04" width="40.97" height="7.01"/><rect class="cls-7" x="194.81" y="198.89" width="18.74" height="5.43"/><rect class="cls-8" x="196.1" y="198.89" width="3.95" height="5.43"/><rect class="cls-6" x="174.7" y="198.89" width="11.73" height="5.43"/><rect class="cls-5" x="176.23" y="191.02" width="40.97" height="7.01"/><rect class="cls-7" x="197.61" y="191.87" width="18.74" height="5.43"/><rect class="cls-8" x="198.89" y="191.87" width="3.95" height="5.43"/><rect class="cls-6" x="177.49" y="191.87" width="11.73" height="5.43"/><rect class="cls-5" x="172.05" y="184.01" width="40.97" height="7.01"/><rect class="cls-7" x="193.42" y="184.86" width="18.74" height="5.43"/><rect class="cls-8" x="194.7" y="184.86" width="3.95" height="5.43"/><rect class="cls-6" x="173.31" y="184.86" width="11.73" height="5.43"/><rect class="cls-5" x="174.33" y="176.99" width="40.97" height="7.01"/><rect class="cls-7" x="195.7" y="177.84" width="18.74" height="5.43"/><rect class="cls-8" x="196.98" y="177.84" width="3.95" height="5.43"/><rect class="cls-6" x="175.59" y="177.84" width="11.73" height="5.43"/><rect class="cls-5" x="173.48" y="169.98" width="40.97" height="7.01"/><rect class="cls-7" x="194.85" y="170.83" width="18.74" height="5.43"/><rect class="cls-8" x="196.13" y="170.83" width="3.95" height="5.43"/><rect class="cls-6" x="174.74" y="170.83" width="11.73" height="5.43"/><rect class="cls-5" x="232.58" y="228.35" width="40.97" height="7.01"/><rect class="cls-7" x="253.95" y="229.2" width="18.74" height="5.43"/><rect class="cls-8" x="255.24" y="229.2" width="3.95" height="5.43"/><rect class="cls-6" x="233.84" y="229.2" width="11.73" height="5.43"/><rect class="cls-5" x="227.76" y="221.33" width="40.97" height="7.01"/><rect class="cls-7" x="249.13" y="222.18" width="18.74" height="5.43"/><rect class="cls-8" x="250.41" y="222.18" width="3.95" height="5.43"/><rect class="cls-6" x="229.02" y="222.18" width="11.73" height="5.43"/><rect class="cls-5" x="224.14" y="214.24" width="40.97" height="7.01"/><rect class="cls-7" x="245.51" y="215.09" width="18.74" height="5.43"/><rect class="cls-8" x="246.8" y="215.09" width="3.95" height="5.43"/><rect class="cls-6" x="225.4" y="215.09" width="11.73" height="5.43"/><rect class="cls-5" x="232.58" y="207.14" width="40.97" height="7.01"/><rect class="cls-7" x="253.95" y="207.99" width="18.74" height="5.43"/><rect class="cls-8" x="255.24" y="207.99" width="3.95" height="5.43"/><rect class="cls-6" x="233.84" y="207.99" width="11.73" height="5.43"/><rect class="cls-5" x="231.27" y="200.13" width="40.97" height="7.01"/><rect class="cls-7" x="252.64" y="200.98" width="18.74" height="5.43"/><rect class="cls-8" x="253.92" y="200.98" width="3.95" height="5.43"/><rect class="cls-6" x="232.53" y="200.98" width="11.73" height="5.43"/><rect class="cls-5" x="227.76" y="193.12" width="40.97" height="7.01"/><rect class="cls-7" x="249.13" y="193.97" width="18.74" height="5.43"/><rect class="cls-8" x="250.41" y="193.97" width="3.95" height="5.43"/><rect class="cls-6" x="229.02" y="193.97" width="11.73" height="5.43"/><rect class="cls-5" x="231.27" y="186.11" width="40.97" height="7.01"/><rect class="cls-7" x="252.64" y="186.96" width="18.74" height="5.43"/><rect class="cls-8" x="253.92" y="186.96" width="3.95" height="5.43"/><rect class="cls-6" x="232.53" y="186.96" width="11.73" height="5.43"/><rect class="cls-5" x="232.58" y="179.09" width="40.97" height="7.01"/><rect class="cls-7" x="253.95" y="179.94" width="18.74" height="5.43"/><rect class="cls-8" x="255.24" y="179.94" width="3.95" height="5.43"/><rect class="cls-6" x="233.84" y="179.94" width="11.73" height="5.43"/><rect class="cls-5" x="234.62" y="172.08" width="40.97" height="7.01"/><rect class="cls-7" x="256" y="172.93" width="18.74" height="5.43"/><rect class="cls-8" x="257.28" y="172.93" width="3.95" height="5.43"/><rect class="cls-6" x="235.88" y="172.93" width="11.73" height="5.43"/><rect class="cls-5" x="229.65" y="165.07" width="40.97" height="7.01"/><rect class="cls-7" x="251.02" y="165.92" width="18.74" height="5.43"/><rect class="cls-8" x="252.31" y="165.92" width="3.95" height="5.43"/><rect class="cls-6" x="230.91" y="165.92" width="11.73" height="5.43"/><rect class="cls-5" x="225.58" y="158.05" width="40.97" height="7.01"/><rect class="cls-7" x="246.96" y="158.9" width="18.74" height="5.43"/><rect class="cls-8" x="248.24" y="158.9" width="3.95" height="5.43"/><rect class="cls-6" x="226.85" y="158.9" width="11.73" height="5.43"/><rect class="cls-5" x="232.58" y="151.04" width="40.97" height="7.01"/><rect class="cls-7" x="253.95" y="151.89" width="18.74" height="5.43"/><rect class="cls-8" x="255.24" y="151.89" width="3.95" height="5.43"/><rect class="cls-6" x="233.84" y="151.89" width="11.73" height="5.43"/><rect class="cls-5" x="283.31" y="312.53" width="40.97" height="7.01"/><rect class="cls-7" x="304.68" y="313.38" width="18.74" height="5.43"/><rect class="cls-8" x="305.96" y="313.38" width="3.95" height="5.43"/><rect class="cls-6" x="284.57" y="313.38" width="11.73" height="5.43"/><rect class="cls-5" x="278.48" y="305.52" width="40.97" height="7.01"/><rect class="cls-7" x="299.86" y="306.37" width="18.74" height="5.43"/><rect class="cls-8" x="301.14" y="306.37" width="3.95" height="5.43"/><rect class="cls-6" x="279.74" y="306.37" width="11.73" height="5.43"/><rect class="cls-5" x="274.87" y="298.42" width="40.97" height="7.01"/><rect class="cls-7" x="296.24" y="299.27" width="18.74" height="5.43"/><rect class="cls-8" x="297.52" y="299.27" width="3.95" height="5.43"/><rect class="cls-6" x="276.13" y="299.27" width="11.73" height="5.43"/><rect class="cls-5" x="283.31" y="291.32" width="40.97" height="7.01"/><rect class="cls-7" x="304.68" y="292.17" width="18.74" height="5.43"/><rect class="cls-8" x="305.96" y="292.17" width="3.95" height="5.43"/><rect class="cls-6" x="284.57" y="292.17" width="11.73" height="5.43"/><rect class="cls-5" x="281.99" y="284.31" width="40.97" height="7.01"/><rect class="cls-7" x="303.36" y="285.16" width="18.74" height="5.43"/><rect class="cls-8" x="304.65" y="285.16" width="3.95" height="5.43"/><rect class="cls-6" x="283.25" y="285.16" width="11.73" height="5.43"/><rect class="cls-5" x="278.48" y="277.3" width="40.97" height="7.01"/><rect class="cls-7" x="299.86" y="278.15" width="18.74" height="5.43"/><rect class="cls-8" x="301.14" y="278.15" width="3.95" height="5.43"/><rect class="cls-6" x="279.74" y="278.15" width="11.73" height="5.43"/><rect class="cls-5" x="281.99" y="270.29" width="40.97" height="7.01"/><rect class="cls-7" x="303.36" y="271.14" width="18.74" height="5.43"/><rect class="cls-8" x="304.65" y="271.14" width="3.95" height="5.43"/><rect class="cls-6" x="283.25" y="271.14" width="11.73" height="5.43"/><rect class="cls-5" x="283.31" y="263.28" width="40.97" height="7.01"/><rect class="cls-7" x="304.68" y="264.13" width="18.74" height="5.43"/><rect class="cls-8" x="305.96" y="264.13" width="3.95" height="5.43"/><rect class="cls-6" x="284.57" y="264.13" width="11.73" height="5.43"/><rect class="cls-5" x="285.35" y="256.26" width="40.97" height="7.01"/><rect class="cls-7" x="306.72" y="257.11" width="18.74" height="5.43"/><rect class="cls-8" x="308" y="257.11" width="3.95" height="5.43"/><rect class="cls-6" x="286.61" y="257.11" width="11.73" height="5.43"/><rect class="cls-5" x="280.38" y="249.25" width="40.97" height="7.01"/><rect class="cls-7" x="301.75" y="250.1" width="18.74" height="5.43"/><rect class="cls-8" x="303.03" y="250.1" width="3.95" height="5.43"/><rect class="cls-6" x="281.64" y="250.1" width="11.73" height="5.43"/><rect class="cls-5" x="276.31" y="242.23" width="40.97" height="7.01"/><rect class="cls-7" x="297.68" y="243.08" width="18.74" height="5.43"/><rect class="cls-8" x="298.96" y="243.08" width="3.95" height="5.43"/><rect class="cls-6" x="277.57" y="243.08" width="11.73" height="5.43"/><rect class="cls-5" x="283.31" y="235.23" width="40.97" height="7.01"/><rect class="cls-7" x="304.68" y="236.08" width="18.74" height="5.43"/><rect class="cls-8" x="305.96" y="236.08" width="3.95" height="5.43"/><rect class="cls-6" x="284.57" y="236.08" width="11.73" height="5.43"/><rect class="cls-5" x="151.96" y="292.41" width="40.97" height="7.01"/><rect class="cls-7" x="173.33" y="293.26" width="18.74" height="5.43"/><rect class="cls-8" x="174.62" y="293.26" width="3.95" height="5.43"/><rect class="cls-6" x="153.22" y="293.26" width="11.73" height="5.43"/><rect class="cls-5" x="147.14" y="285.4" width="40.97" height="7.01"/><rect class="cls-7" x="168.51" y="286.25" width="18.74" height="5.43"/><rect class="cls-8" x="169.79" y="286.25" width="3.95" height="5.43"/><rect class="cls-6" x="148.4" y="286.25" width="11.73" height="5.43"/><rect class="cls-5" x="143.52" y="278.3" width="40.97" height="7.01"/><rect class="cls-7" x="164.89" y="279.15" width="18.74" height="5.43"/><rect class="cls-8" x="166.18" y="279.15" width="3.95" height="5.43"/><rect class="cls-6" x="144.78" y="279.15" width="11.73" height="5.43"/><rect class="cls-5" x="151.96" y="271.21" width="40.97" height="7.01"/><rect class="cls-7" x="173.33" y="272.06" width="18.74" height="5.43"/><rect class="cls-8" x="174.62" y="272.06" width="3.95" height="5.43"/><rect class="cls-6" x="153.22" y="272.06" width="11.73" height="5.43"/><rect class="cls-5" x="150.65" y="264.19" width="40.97" height="7.01"/><rect class="cls-7" x="172.02" y="265.04" width="18.74" height="5.43"/><rect class="cls-8" x="173.3" y="265.04" width="3.95" height="5.43"/><rect class="cls-6" x="151.91" y="265.04" width="11.73" height="5.43"/><rect class="cls-5" x="147.14" y="257.18" width="40.97" height="7.01"/><rect class="cls-7" x="168.51" y="258.03" width="18.74" height="5.43"/><rect class="cls-8" x="169.79" y="258.03" width="3.95" height="5.43"/><rect class="cls-6" x="148.4" y="258.03" width="11.73" height="5.43"/><rect class="cls-5" x="150.65" y="250.17" width="40.97" height="7.01"/><rect class="cls-7" x="172.02" y="251.02" width="18.74" height="5.43"/><rect class="cls-8" x="173.3" y="251.02" width="3.95" height="5.43"/><rect class="cls-6" x="151.91" y="251.02" width="11.73" height="5.43"/><rect class="cls-5" x="151.96" y="243.16" width="40.97" height="7.01"/><rect class="cls-7" x="173.33" y="244.01" width="18.74" height="5.43"/><rect class="cls-8" x="174.62" y="244.01" width="3.95" height="5.43"/><rect class="cls-6" x="153.22" y="244.01" width="11.73" height="5.43"/><rect class="cls-5" x="154" y="236.14" width="40.97" height="7.01"/><rect class="cls-7" x="175.38" y="236.99" width="18.74" height="5.43"/><rect class="cls-8" x="176.66" y="236.99" width="3.95" height="5.43"/><rect class="cls-6" x="155.26" y="236.99" width="11.73" height="5.43"/><rect class="cls-5" x="149.03" y="229.13" width="40.97" height="7.01"/><rect class="cls-7" x="170.4" y="229.98" width="18.74" height="5.43"/><rect class="cls-8" x="171.69" y="229.98" width="3.95" height="5.43"/><rect class="cls-6" x="150.29" y="229.98" width="11.73" height="5.43"/><rect class="cls-5" x="144.97" y="222.11" width="40.97" height="7.01"/><rect class="cls-7" x="166.34" y="222.96" width="18.74" height="5.43"/><rect class="cls-8" x="167.62" y="222.96" width="3.95" height="5.43"/><rect class="cls-6" x="146.23" y="222.96" width="11.73" height="5.43"/><rect class="cls-5" x="151.96" y="215.11" width="40.97" height="7.01"/><rect class="cls-7" x="173.33" y="215.96" width="18.74" height="5.43"/><rect class="cls-8" x="174.62" y="215.96" width="3.95" height="5.43"/><rect class="cls-6" x="153.22" y="215.96" width="11.73" height="5.43"/><rect class="cls-5" x="247.59" y="270.37" width="40.97" height="7.01"/><rect class="cls-7" x="268.97" y="271.22" width="18.74" height="5.43"/><rect class="cls-8" x="270.25" y="271.22" width="3.95" height="5.43"/><rect class="cls-6" x="248.85" y="271.22" width="11.73" height="5.43"/><rect class="cls-5" x="242.74" y="263.36" width="40.97" height="7.01"/><rect class="cls-7" x="264.12" y="264.21" width="18.74" height="5.43"/><rect class="cls-8" x="265.4" y="264.21" width="3.95" height="5.43"/><rect class="cls-6" x="244" y="264.21" width="11.73" height="5.43"/><rect class="cls-5" x="247.59" y="256.34" width="40.97" height="7.01"/><rect class="cls-7" x="268.97" y="257.19" width="18.74" height="5.43"/><rect class="cls-8" x="270.25" y="257.19" width="3.95" height="5.43"/><rect class="cls-6" x="248.85" y="257.19" width="11.73" height="5.43"/><rect class="cls-5" x="248" y="249.33" width="40.97" height="7.01"/><rect class="cls-7" x="269.38" y="250.18" width="18.74" height="5.43"/><rect class="cls-8" x="270.66" y="250.18" width="3.95" height="5.43"/><rect class="cls-6" x="249.26" y="250.18" width="11.73" height="5.43"/><rect class="cls-5" x="245.21" y="242.31" width="40.97" height="7.01"/><rect class="cls-7" x="266.58" y="243.16" width="18.74" height="5.43"/><rect class="cls-8" x="267.86" y="243.16" width="3.95" height="5.43"/><rect class="cls-6" x="246.47" y="243.16" width="11.73" height="5.43"/><rect class="cls-5" x="251.33" y="235.23" width="40.97" height="7.01"/><rect class="cls-7" x="272.7" y="236.08" width="18.74" height="5.43"/><rect class="cls-8" x="273.98" y="236.08" width="3.95" height="5.43"/><rect class="cls-6" x="252.59" y="236.08" width="11.73" height="5.43"/><rect class="cls-5" x="247.59" y="228.26" width="40.97" height="7.01"/><rect class="cls-7" x="268.97" y="229.11" width="18.74" height="5.43"/><rect class="cls-8" x="270.25" y="229.11" width="3.95" height="5.43"/><rect class="cls-6" x="248.85" y="229.11" width="11.73" height="5.43"/><rect class="cls-5" x="251.39" y="221.24" width="40.97" height="7.01"/><rect class="cls-7" x="272.77" y="222.09" width="18.74" height="5.43"/><rect class="cls-8" x="274.05" y="222.09" width="3.95" height="5.43"/><rect class="cls-6" x="252.65" y="222.09" width="11.73" height="5.43"/><rect class="cls-5" x="252.87" y="214.2" width="40.97" height="7.01"/><rect class="cls-7" x="274.24" y="215.05" width="18.74" height="5.43"/><rect class="cls-8" x="275.53" y="215.05" width="3.95" height="5.43"/><rect class="cls-6" x="254.13" y="215.05" width="11.73" height="5.43"/><rect class="cls-5" x="248.85" y="207.18" width="40.97" height="7.01"/><rect class="cls-7" x="270.23" y="208.03" width="18.74" height="5.43"/><rect class="cls-8" x="271.51" y="208.03" width="3.95" height="5.43"/><rect class="cls-6" x="250.11" y="208.03" width="11.73" height="5.43"/><rect class="cls-5" x="212.68" y="282.88" width="40.97" height="7.01"/><rect class="cls-7" x="234.06" y="283.73" width="18.74" height="5.43"/><rect class="cls-8" x="235.34" y="283.73" width="3.95" height="5.43"/><rect class="cls-6" x="213.94" y="283.73" width="11.73" height="5.43"/><rect class="cls-5" x="208.18" y="276.37" width="40.97" height="7.01"/><rect class="cls-7" x="229.55" y="277.22" width="18.74" height="5.43"/><rect class="cls-8" x="230.84" y="277.22" width="3.95" height="5.43"/><rect class="cls-6" x="209.44" y="277.22" width="11.73" height="5.43"/><rect class="cls-5" x="209.07" y="269.35" width="40.97" height="7.01"/><rect class="cls-7" x="230.44" y="270.2" width="18.74" height="5.43"/><rect class="cls-8" x="231.72" y="270.2" width="3.95" height="5.43"/><rect class="cls-6" x="210.33" y="270.2" width="11.73" height="5.43"/><rect class="cls-5" x="208.18" y="263.19" width="40.97" height="7.01"/><rect class="cls-7" x="229.55" y="264.04" width="18.74" height="5.43"/><rect class="cls-8" x="230.84" y="264.04" width="3.95" height="5.43"/><rect class="cls-6" x="209.44" y="264.04" width="11.73" height="5.43"/><rect class="cls-5" x="208.18" y="257.75" width="40.97" height="7.01"/><rect class="cls-7" x="229.55" y="258.6" width="18.74" height="5.43"/><rect class="cls-8" x="230.84" y="258.6" width="3.95" height="5.43"/><rect class="cls-6" x="209.44" y="258.6" width="11.73" height="5.43"/><rect class="cls-5" x="212.68" y="250.96" width="40.97" height="7.01"/><rect class="cls-7" x="234.06" y="251.81" width="18.74" height="5.43"/><rect class="cls-8" x="235.34" y="251.81" width="3.95" height="5.43"/><rect class="cls-6" x="213.94" y="251.81" width="11.73" height="5.43"/><rect class="cls-5" x="208.97" y="244" width="40.97" height="7.01"/><rect class="cls-7" x="230.34" y="244.85" width="18.74" height="5.43"/><rect class="cls-8" x="231.63" y="244.85" width="3.95" height="5.43"/><rect class="cls-6" x="210.23" y="244.85" width="11.73" height="5.43"/><rect class="cls-5" x="212.34" y="236.93" width="40.97" height="7.01"/><rect class="cls-7" x="233.71" y="237.78" width="18.74" height="5.43"/><rect class="cls-8" x="235" y="237.78" width="3.95" height="5.43"/><rect class="cls-6" x="213.6" y="237.78" width="11.73" height="5.43"/><rect class="cls-5" x="206.22" y="229.92" width="40.97" height="7.01"/><rect class="cls-7" x="227.6" y="230.77" width="18.74" height="5.43"/><rect class="cls-8" x="228.88" y="230.77" width="3.95" height="5.43"/><rect class="cls-6" x="207.49" y="230.77" width="11.73" height="5.43"/><rect class="cls-5" x="209.02" y="222.91" width="40.97" height="7.01"/><rect class="cls-7" x="230.39" y="223.76" width="18.74" height="5.43"/><rect class="cls-8" x="231.67" y="223.76" width="3.95" height="5.43"/><rect class="cls-6" x="210.28" y="223.76" width="11.73" height="5.43"/><rect class="cls-5" x="204.83" y="215.89" width="40.97" height="7.01"/><rect class="cls-7" x="226.2" y="216.74" width="18.74" height="5.43"/><rect class="cls-8" x="227.48" y="216.74" width="3.95" height="5.43"/><rect class="cls-6" x="206.09" y="216.74" width="11.73" height="5.43"/><rect class="cls-5" x="207.11" y="208.88" width="40.97" height="7.01"/><rect class="cls-7" x="228.49" y="209.73" width="18.74" height="5.43"/><rect class="cls-8" x="229.77" y="209.73" width="3.95" height="5.43"/><rect class="cls-6" x="208.37" y="209.73" width="11.73" height="5.43"/><rect class="cls-5" x="206.26" y="201.86" width="40.97" height="7.01"/><rect class="cls-7" x="227.63" y="202.71" width="18.74" height="5.43"/><rect class="cls-8" x="228.91" y="202.71" width="3.95" height="5.43"/><rect class="cls-6" x="207.52" y="202.71" width="11.73" height="5.43"/><path class="cls-9" d="M117.18,371.18,92.85,415.57s8.22,5.42,17.26,2l25.48-27.46Z"/><path class="cls-9" d="M381.55,371.18l24.33,44.39s-8.22,5.42-17.26,2l-25.48-27.46Z"/><path class="cls-10" d="M249,243.15H89.89s2.19,102.33,34.63,147.92c0,0,64.88,10.52,124.51,10.52s124.5-10.52,124.5-10.52c32.45-45.59,34.64-147.92,34.64-147.92Z"/><g class="cls-11"><g class="cls-12"><path class="cls-13" d="M401.5,393.14s-42.56-1.11-88.66-1.76-87.86-.1-97.65,3.61,42,16,93.45,20.29c0,0-52.29-6.91-56.32-12.82s19.16-10.72,75.95-6.43,73.41,9.48,73.41,9.48Z"/><path class="cls-13" d="M394.61,407.58S328.8,396.34,306,397.23,288.78,408,317.7,410.59s30.21-1.86,25.58-3.18S326,405.48,326,405.48s13.41,1.36,13.44,3.18S314,410.22,304.79,407s-8.79-8.38,10.4-6.85,59.18,5.78,77.38,11.74S394.61,407.58,394.61,407.58Z"/><path class="cls-13" d="M110.73,390.49c3.12-.42,10.3,4.28,42.28,9.05s65.11,17.55,65.11,17.55l-17.68-1.25s-6.75-8.93-48.17-13.12S98.13,391.2,98.13,391.2Z"/><path class="cls-13" d="M110.34,400.1s21.58,3.57,37.12,6.56,19.47,6.81,19.47,6.81l-4.53-.32s-.45-3.8-15.71-5.64-37.36-4.38-37.36-4.38Z"/><path class="cls-13" d="M109,379.46s22.1,3.26,41.05,5.82,78-2.27,85.85-1.84a146.62,146.62,0,0,0-26.2-.26c-13,1.22-37.38,2.77-56.32.69S108,376,108,376Z"/><path class="cls-13" d="M110.9,374.7s32.06,6.53,46.92,8,36.12,0,36.12,0-25.21.36-37.06-1.93-48-8.68-48-8.68Z"/><path class="cls-13" d="M394.64,354.13a521.41,521.41,0,0,0-87.51-2.56c-46.43,2.78-115.29,8.53-152,4.7s-39.6-14.71-23.47-16.2,53.13-3.73,65.42,1.75-7.78,6.88-15.26,7.06c0,0,20.89,1.24,27.12-4.25s-31.68-11.74-60.41-9.22-36.15,6.41-31.35,11.73,12.78,12.31,78.59,13.48,162.39-11.28,201.71.77Z"/><path class="cls-13" d="M394,363.72s-34-6.64-71.36-4-65.28,8.27-60.11,11.61,133.67,8.19,133.67,8.19l-.05-3.37s-70.68-2.38-96.16-2.7-50.4-4.55-4.08-9.45,91.81,1,100.13,4.27S394,363.72,394,363.72Z"/><path class="cls-13" d="M396,368.27s-43.81-5.62-67-3.42-34.24,2.52-31.45,4.89,49,.26,49,.26-29.72.76-30.14-1,43.26-5.43,79.61,2.63Z"/><path class="cls-13" d="M400.14,297.27s-112.4.53-149.11,4.33-65.73,4.83-94.37-.8S120,284.3,120,284.3l8.42,1.15s10.3,12.71,55.9,15.38,127.49-10.27,221.57-6Z"/><path class="cls-13" d="M392.29,299.17s-72.49,0-116.53,5.37-29.69,20.25,31,21.21,72.61-10.91,68.35-14.64-45.24-4.95-65.13.05c0,0,45.49-4.18,53.07,1.33s-15.11,8-41.63,8.53-51-.86-52.38-8.06,91.71-15,123.3-9.43Z"/><path class="cls-13" d="M102.82,305.1s31.88-2,56.76,2.29,96.76,21.94,96.76,21.94l-14.12-.54s-47.07-13.56-68.38-15.72-71-3.47-71-3.47Z"/><path class="cls-13" d="M101,311.89s61.47.92,74.93,5.82S143.24,322,143.24,322s24.42-.74,24.4-2.19-59.17-5-64.69-5.26-4.36-2.38-4.36-2.38"/><path class="cls-13" d="M396.28,275s-31.74-6.3-62.83-13.66-117.31-12.45-137.15-3.6,32.85,18.18,70.12,16.89c0,0-39.45-2.71-42.68-8.08s15.56-14.3,66.09-6.62,106.93,21,111.66,21.43S396.28,275,396.28,275Z"/><path class="cls-13" d="M97.67,255s53,5.85,74.11,14.21,29.57,11.05,29.57,11.05H187.07S172.83,269.68,145,266.51s-52.59-4.4-52.59-4.4l-8-5.38Z"/></g></g><path class="cls-9" d="M371.34,378.79S327.94,389.32,249,388.88s-125.82-8.77-124.51-10.09,3.13,12.77,3.13,12.77,104.72,28.1,240.62,0Z"/><path class="cls-5" d="M408.17,243.15H89.89c-3.32,104.23,32.22,148.14,32.22,148.14,7.45,7.45,17.8,2,17.8,2C108.51,335.68,110.06,266,110.06,266H388s1.55,69.73-29.85,127.36c0,0,10.34,5.43,17.8-2C376,391.29,411.48,347.38,408.17,243.15Z"/><path class="cls-14" d="M263.91,244.59l-2.09-8.83L249,233.2l-12.79,2.56-2.09,8.83-19.54,4.24s8.61,34.83,12.56,40.18S249,302.5,249,302.5s17.9-8.14,21.86-13.49,12.55-40.18,12.55-40.18Z"/><path class="cls-15" d="M254,259.87A6.07,6.07,0,1,0,244.6,265l-2.75,16.94H254L251.24,265A6.07,6.07,0,0,0,254,259.87Z"/><path class="cls-16" d="M271.7,289.74c-2.74,3.95-20.58,13.7-22.67,13.92-2.1-.22-19.94-10-22.68-13.92s-12.77-40.22-12.77-40.22,7.21,39,11,44.17c4.51,6.06,24.43,17.75,24.43,17.75s19.92-11.69,24.43-17.75c3.81-5.13,10.65-44.17,10.65-44.17S274.44,285.8,271.7,289.74Z"/><polygon class="cls-6" points="215.65 249.52 235.05 245.25 237.19 236.28 249.03 233.66 249.03 237.03 238.51 239.08 236.45 246.97 216.23 251.9 215.65 249.52"/><polygon class="cls-17" points="282.4 249.52 263 245.25 260.87 236.28 249.03 233.66 249.03 237.03 259.55 239.08 261.61 246.97 281.83 251.9 282.4 249.52"/><path class="cls-16" d="M249,283.39v16.87s16.82-7.06,20.51-11.61,10.35-31.22,11-34.07c0,0-6.69,27.71-14,32.2S252.08,290,249,283.39Z"/><path class="cls-16" d="M263.65,291.85s-13.12,5.84-13.65,5.88v-9.12S255.55,294.61,263.65,291.85Z"/><path class="cls-18" d="M138.64,393.14s-10.71-20.1-14.76-34.9c0,0-12.83,1.54-19.84-7.56,0,0,9.39,30.89,19.07,40.22C123.11,390.9,129.07,396.57,138.64,393.14Z"/><path class="cls-19" d="M124.08,361.4s-12.65.86-18-7.08c0,0,6.22,19.09,12.87,27.34,0,0-5.47-10-4.39-13.67s12-.52,13.72,4.67C128.26,372.66,124.4,363.43,124.08,361.4Z"/><path class="cls-20" d="M118.51,342.68,123,356.6s-11.51,1.1-19-7.67c0,0-5.26-17.43-7.34-28.5,0,0,5,20.61,11.72,26.31S119.16,348.05,118.51,342.68Z"/><path class="cls-18" d="M359.81,392.64s10.71-20.1,14.76-34.9c0,0,12.83,1.54,19.84-7.56,0,0-9.39,30.89-19.07,40.22C375.34,390.4,369.38,396.07,359.81,392.64Z"/><path class="cls-19" d="M374.37,360.9s12.65.85,18-7.08c0,0-6.21,19.09-12.86,27.34,0,0,5.47-10,4.39-13.67s-12-.52-13.72,4.67C370.19,372.16,374.05,362.93,374.37,360.9Z"/><path class="cls-20" d="M379.94,342.18l-4.49,13.92s11.51,1.09,19-7.67c0,0,5.26-17.43,7.34-28.5,0,0-5,20.61-11.72,26.3S379.29,347.55,379.94,342.18Z"/><path class="cls-18" d="M121.34,331.39s6.55,32.26,14.3,47.32c0,0,49,8.25,112.75,8.25s112.75-8.25,112.75-8.25c7.75-15.06,14.31-47.32,14.31-47.32C344.09,391.06,152.08,391,121.34,331.39Z"/><polygon class="cls-16" points="229.53 244.26 90.78 244.26 90.78 247.55 211.78 247.55 229.53 244.26"/><polygon class="cls-16" points="268.26 243.97 407.01 243.97 407.01 247.25 286.01 247.25 268.26 243.97"/><polygon class="cls-20" points="94.61 415.13 114.22 380.22 118.51 388.93 97.9 416.44 94.61 415.13"/><polygon class="cls-20" points="404.33 414.55 384.73 379.65 380.44 388.36 401.04 415.87 404.33 414.55"/></g></g></svg>