<svg xmlns="http://www.w3.org/2000/svg" xmlns:xlink="http://www.w3.org/1999/xlink" viewBox="0 0 500 500"><defs><style>.cls-1{fill:none;}.cls-2{isolation:isolate;}.cls-3{fill:#562500;}.cls-4{fill:#d1940d;}.cls-5{fill:#efb933;}.cls-15,.cls-18,.cls-6{fill:#fff;}.cls-15,.cls-6{mix-blend-mode:overlay;}.cls-7{fill:#d3950b;}.cls-8{fill:#8c6239;}.cls-9{opacity:0.64;}.cls-10{clip-path:url(#clip-path);}.cls-11{fill:#63391d;}.cls-12{fill:#ffdd50;}.cls-13{fill:#724f00;}.cls-14,.cls-16,.cls-17,.cls-18{mix-blend-mode:soft-light;}.cls-15{opacity:0.71;}.cls-16{opacity:0.51;}.cls-17{opacity:0.74;}</style><clipPath id="clip-path"><path id="SVGID" class="cls-1" d="M249,243.15H89.89s2.19,102.33,34.63,147.92c0,0,64.88,10.52,124.51,10.52s124.5-10.52,124.5-10.52c32.45-45.59,34.64-147.92,34.64-147.92Z"/></clipPath></defs><title>Prancheta 3</title><g class="cls-2"><g id="OBJECTS"><path class="cls-3" d="M419.12,141c-6.13,59.74-33.33,104.64-33.33,104.64L250,267.84,118.46,246.3l-4.24-.68S87,200.72,80.9,141a56.83,56.83,0,0,1,9-4.6c17.76-7.76,64.24-22.57,160.12-22.57C379.87,113.81,419.12,141,419.12,141Z"/><path class="cls-4" d="M121.33,245.91l-2.87.39-4.24-.68S87,200.72,80.9,141a56.83,56.83,0,0,1,9-4.6C93.86,212.47,121.33,245.91,121.33,245.91Z"/><path class="cls-4" d="M378.69,245.91l2.86.39,4.24-.68S413,200.72,419.12,141a57.36,57.36,0,0,0-9-4.6C406.15,212.47,378.69,245.91,378.69,245.91Z"/><path class="cls-5" d="M413.85,105.91C357.74,79.6,247.73,81.34,247.73,81.34h0c-15.75-.08-110.25.51-161.58,24.57,0,0-14.91,19.29-14.91,42.08,0,0,62-28.93,178.76-28.93S428.76,148,428.76,148C428.76,125.2,413.85,105.91,413.85,105.91Z"/><path class="cls-6" d="M416.37,118.18,412,108.54c-73.39-26.73-156.93-23.9-162.26-23.69-5.32-.21-88.86-3-162.26,23.69l-4.38,9.64s54.05-28.45,166.64-28.49S416.37,118.18,416.37,118.18Z"/><path class="cls-7" d="M117.18,371.18,92.85,415.57s8.22,5.42,17.26,2l25.48-27.46Z"/><path class="cls-7" d="M381.55,371.18l24.33,44.39s-8.22,5.42-17.26,2l-25.48-27.46Z"/><path class="cls-8" d="M249,243.15H89.89s2.19,102.33,34.63,147.92c0,0,64.88,10.52,124.51,10.52s124.5-10.52,124.5-10.52c32.45-45.59,34.64-147.92,34.64-147.92Z"/><g class="cls-9"><g class="cls-10"><path class="cls-11" d="M401.5,393.14s-42.56-1.11-88.66-1.76-87.86-.1-97.65,3.61,42,16,93.45,20.29c0,0-52.29-6.91-56.32-12.82s19.16-10.72,75.95-6.43,73.41,9.48,73.41,9.48Z"/><path class="cls-11" d="M394.61,407.58S328.8,396.34,306,397.23,288.78,408,317.7,410.59s30.21-1.86,25.58-3.18S326,405.48,326,405.48s13.41,1.36,13.44,3.18S314,410.22,304.79,407s-8.79-8.38,10.4-6.85,59.18,5.78,77.38,11.74S394.61,407.58,394.61,407.58Z"/><path class="cls-11" d="M110.73,390.49c3.12-.42,10.3,4.28,42.28,9.05s65.11,17.55,65.11,17.55l-17.68-1.25s-6.75-8.93-48.17-13.12S98.13,391.2,98.13,391.2Z"/><path class="cls-11" d="M110.34,400.1s21.58,3.57,37.12,6.56,19.47,6.81,19.47,6.81l-4.53-.32s-.45-3.8-15.71-5.64-37.36-4.38-37.36-4.38Z"/><path class="cls-11" d="M109,379.46s22.1,3.26,41.05,5.82,78-2.27,85.85-1.84a146.62,146.62,0,0,0-26.2-.26c-13,1.22-37.38,2.77-56.32.69S108,376,108,376Z"/><path class="cls-11" d="M110.9,374.7s32.06,6.53,46.92,8,36.12,0,36.12,0-25.21.36-37.06-1.93-48-8.68-48-8.68Z"/><path class="cls-11" d="M394.64,354.13a521.41,521.41,0,0,0-87.51-2.56c-46.43,2.78-115.29,8.53-152,4.7s-39.6-14.71-23.47-16.2,53.13-3.73,65.42,1.75-7.78,6.88-15.26,7.06c0,0,20.89,1.24,27.12-4.25s-31.68-11.74-60.41-9.22-36.15,6.41-31.35,11.73,12.78,12.31,78.59,13.48,162.39-11.28,201.71.77Z"/><path class="cls-11" d="M394,363.72s-34-6.64-71.36-4-65.28,8.27-60.11,11.61,133.67,8.19,133.67,8.19l-.05-3.37s-70.68-2.38-96.16-2.7-50.4-4.55-4.08-9.45,91.81,1,100.13,4.27S394,363.72,394,363.72Z"/><path class="cls-11" d="M396,368.27s-43.81-5.62-67-3.42-34.24,2.52-31.45,4.89,49,.26,49,.26-29.72.76-30.14-1,43.26-5.43,79.61,2.63Z"/><path class="cls-11" d="M400.14,297.27s-112.4.53-149.11,4.33-65.73,4.83-94.37-.8S120,284.3,120,284.3l8.42,1.15s10.3,12.71,55.9,15.38,127.49-10.27,221.57-6Z"/><path class="cls-11" d="M392.29,299.17s-72.49,0-116.53,5.37-29.69,20.25,31,21.21,72.61-10.91,68.35-14.64-45.24-4.95-65.13.05c0,0,45.49-4.18,53.07,1.33s-15.11,8-41.63,8.53-51-.86-52.38-8.06,91.71-15,123.3-9.43Z"/><path class="cls-11" d="M102.82,305.1s31.88-2,56.76,2.29,96.76,21.94,96.76,21.94l-14.12-.54s-47.07-13.56-68.38-15.72-71-3.47-71-3.47Z"/><path class="cls-11" d="M101,311.89s61.47.92,74.93,5.82S143.24,322,143.24,322s24.42-.74,24.4-2.19-59.17-5-64.69-5.26-4.36-2.38-4.36-2.38"/><path class="cls-11" d="M396.28,275s-31.74-6.3-62.83-13.66-117.31-12.45-137.15-3.6,32.85,18.18,70.12,16.89c0,0-39.45-2.71-42.68-8.08s15.56-14.3,66.09-6.62,106.93,21,111.66,21.43S396.28,275,396.28,275Z"/><path class="cls-11" d="M97.67,255s53,5.85,74.11,14.21,29.57,11.05,29.57,11.05H187.07S172.83,269.68,145,266.51s-52.59-4.4-52.59-4.4l-8-5.38Z"/></g></g><path class="cls-7" d="M371.34,378.79S327.94,389.32,249,388.88s-125.82-8.77-124.51-10.09,3.13,12.77,3.13,12.77,104.72,28.1,240.62,0Z"/><path class="cls-5" d="M408.17,243.15H89.89c-3.32,104.23,32.22,148.14,32.22,148.14,7.45,7.45,17.8,2,17.8,2C108.51,335.68,110.06,266,110.06,266H388s1.55,69.73-29.85,127.36c0,0,10.34,5.43,17.8-2C376,391.29,411.48,347.38,408.17,243.15Z"/><path class="cls-12" d="M263.91,244.59l-2.09-8.83L249,233.2l-12.79,2.56-2.09,8.83-19.54,4.24s8.61,34.83,12.56,40.18S249,302.5,249,302.5s17.9-8.14,21.86-13.49,12.55-40.18,12.55-40.18Z"/><path class="cls-13" d="M254,259.87A6.07,6.07,0,1,0,244.6,265l-2.75,16.94H254L251.24,265A6.07,6.07,0,0,0,254,259.87Z"/><path class="cls-14" d="M271.7,289.74c-2.74,3.95-20.58,13.7-22.67,13.92-2.1-.22-19.94-10-22.68-13.92s-12.77-40.22-12.77-40.22,7.21,39,11,44.17c4.51,6.06,24.43,17.75,24.43,17.75s19.92-11.69,24.43-17.75c3.81-5.13,10.65-44.17,10.65-44.17S274.44,285.8,271.7,289.74Z"/><polygon class="cls-6" points="215.65 249.52 235.05 245.25 237.19 236.28 249.03 233.66 249.03 237.03 238.51 239.08 236.45 246.97 216.23 251.9 215.65 249.52"/><polygon class="cls-15" points="282.4 249.52 263 245.25 260.87 236.28 249.03 233.66 249.03 237.03 259.55 239.08 261.61 246.97 281.83 251.9 282.4 249.52"/><path class="cls-14" d="M249,283.39v16.87s16.82-7.06,20.51-11.61,10.35-31.22,11-34.07c0,0-6.69,27.71-14,32.2S252.08,290,249,283.39Z"/><path class="cls-14" d="M263.65,291.85s-13.12,5.84-13.65,5.88v-9.12S255.55,294.61,263.65,291.85Z"/><path class="cls-16" d="M138.64,393.14s-10.71-20.1-14.76-34.9c0,0-12.83,1.54-19.84-7.56,0,0,9.39,30.89,19.07,40.22C123.11,390.9,129.07,396.57,138.64,393.14Z"/><path class="cls-17" d="M124.08,361.4s-12.65.86-18-7.08c0,0,6.22,19.09,12.87,27.34,0,0-5.47-10-4.39-13.67s12-.52,13.72,4.67C128.26,372.66,124.4,363.43,124.08,361.4Z"/><path class="cls-18" d="M118.51,342.68,123,356.6s-11.51,1.1-19-7.67c0,0-5.26-17.43-7.34-28.5,0,0,5,20.61,11.72,26.31S119.16,348.05,118.51,342.68Z"/><path class="cls-16" d="M359.81,392.64s10.71-20.1,14.76-34.9c0,0,12.83,1.54,19.84-7.56,0,0-9.39,30.89-19.07,40.22C375.34,390.4,369.38,396.07,359.81,392.64Z"/><path class="cls-17" d="M374.37,360.9s12.65.85,18-7.08c0,0-6.21,19.09-12.86,27.34,0,0,5.47-10,4.39-13.67s-12-.52-13.72,4.67C370.19,372.16,374.05,362.93,374.37,360.9Z"/><path class="cls-18" d="M379.94,342.18l-4.49,13.92s11.51,1.09,19-7.67c0,0,5.26-17.43,7.34-28.5,0,0-5,20.61-11.72,26.3S379.29,347.55,379.94,342.18Z"/><path class="cls-16" d="M121.34,331.39s6.55,32.26,14.3,47.32c0,0,49,8.25,112.75,8.25s112.75-8.25,112.75-8.25c7.75-15.06,14.31-47.32,14.31-47.32C344.09,391.06,152.08,391,121.34,331.39Z"/><polygon class="cls-14" points="229.53 244.26 90.78 244.26 90.78 247.55 211.78 247.55 229.53 244.26"/><polygon class="cls-14" points="268.26 243.97 407.01 243.97 407.01 247.25 286.01 247.25 268.26 243.97"/><polygon class="cls-18" points="94.61 415.13 114.22 380.22 118.51 388.93 97.9 416.44 94.61 415.13"/><polygon class="cls-18" points="404.33 414.55 384.73 379.65 380.44 388.36 401.04 415.87 404.33 414.55"/></g></g></svg>