<svg id="Camada_1" data-name="Camada 1" xmlns="http://www.w3.org/2000/svg" viewBox="0 0 500 500"><defs><style>.cls-1{fill:#c1272d;}.cls-2,.cls-3,.cls-4,.cls-5,.cls-6,.cls-7,.cls-8{fill:none;stroke:#a61e23;stroke-linecap:round;stroke-linejoin:round;}.cls-2,.cls-3,.cls-4,.cls-5,.cls-6,.cls-7{stroke-width:2.66px;}.cls-3{stroke-dasharray:10.68 9.35;}.cls-4{stroke-dasharray:10.65 9.32;}.cls-5{stroke-dasharray:10.4 9.1;}.cls-6{stroke-dasharray:10.62 9.29;}.cls-7{stroke-dasharray:10.5 9.19;}.cls-8{stroke-width:2.38px;}.cls-9{fill:#eee;}.cls-10,.cls-11,.cls-12,.cls-13,.cls-14,.cls-15,.cls-9{fill-rule:evenodd;}.cls-10,.cls-16{fill:#9d9d9c;}.cls-11{fill:#b6b6b6;}.cls-12{fill:#d4d4d3;}.cls-13{fill:#c2c2c2;}.cls-14{fill:#dbdbda;}.cls-15{fill:#eaeaea;}</style></defs><title>Prancheta 6</title><path class="cls-1" d="M381.26,202.7c-.67-.49,3-5,3.74-4,8.75,12.58,22.13,19.89,22.13,20.39s-2.55,4.13-3.76,4.08S396.58,213.94,381.26,202.7Z"/><path class="cls-1" d="M384.11,223.1c-.54.64-5.37-3.33-4.23-3.95,11.83-6.41,21.14-20,21.59-20.17s3.66,2.53,3.57,3.74S396,209.13,384.11,223.1Z"/><path class="cls-2" d="M51.54,272.73q-.95-2.55-1.77-5"/><path class="cls-3" d="M47.08,258.77c-22-83.52,75.28-67,123.55-17.69,20.92,21.36,21.75,34.95,14.65,46.83"/><path class="cls-2" d="M182.67,291.78q-1.56,2.07-3.38,4.11"/><path class="cls-1" d="M314.08,346.35c-.56-.62,3.94-4.37,4.46-3.17,6.07,14.07,17.74,23.89,17.65,24.38s-3.33,3.54-4.5,3.26S326.87,360.4,314.08,346.35Z"/><path class="cls-1" d="M312.83,366.91c-.66.51-4.61-4.34-3.36-4.72,12.86-3.94,24.67-15.37,25.16-15.49s3.08,3.22,2.75,4.37S327.21,355.56,312.83,366.91Z"/><path class="cls-1" d="M163.38,298.87c-.41-.73,4.84-3.33,5.07-2,2.63,15.09,11.69,27.36,11.48,27.81-.27.6-4.06,2.68-5.13,2.12S172.54,315.51,163.38,298.87Z"/><path class="cls-1" d="M157.37,318.57c-.76.35-3.47-5.29-2.17-5.37,13.43-.83,27.58-9.2,28.08-9.2s2.25,3.84,1.65,4.89S174,310.89,157.37,318.57Z"/><path class="cls-1" d="M41.28,290.69c-.76-.35,1.9-5.57,2.85-4.67C55.26,296.56,69.85,301,70,301.47s-1.66,4.57-2.85,4.77S58.57,298.56,41.28,290.69Z"/><path class="cls-1" d="M48.23,310.07c-.4.74-5.94-2.16-4.94-3,10.27-8.69,16.62-23.86,17-24.15s4.1,1.74,4.25,2.93S57,294,48.23,310.07Z"/><path class="cls-2" d="M306.73,355.43a50.23,50.23,0,0,0-5-1.83"/><path class="cls-4" d="M292.58,352c-37.82-1.15-40.16,73.56-70.95,90.07-26.08,14-43.49-12.14-45-31.65-.85-10.68,3-19.38,12.88-18.45,12.34,1.16.79,15.83-12.88,18.45-9.75,1.87-20.6-2.41-24.6-22.15-3.91-19.29,3.42-36.53,8.87-51.85"/><path class="cls-2" d="M162.38,332c.57-1.72,1.1-3.41,1.57-5.08"/><path class="cls-2" d="M293.33,99.12c.87-1.58,1.77-3.1,2.7-4.58"/><path class="cls-5" d="M301.23,87.07c38.51-49.9,112.62-37.21,153-2.54,22.45,19.29,23.15,38.77,10.82,54-6.74,8.33-15.57,11.94-22,4.5-8.15-9.35,10.33-12,22-4.5,8.36,5.37,13.26,15.95,2.56,33S438.52,199,421.75,204.83"/><path class="cls-2" d="M417.42,206.25c-1.74.53-3.44,1-5.11,1.45"/><path class="cls-2" d="M61.9,314.67c.81,1.57,1.66,3.13,2.53,4.68"/><path class="cls-6" d="M69.24,327.3c3,4.63,6.2,9.12,9.56,13.39,26,33,25.73,67.91-17.18,73.65"/><path class="cls-2" d="M57,414.83c-1.71.14-3.48.24-5.31.29"/><path class="cls-2" d="M375.2,210.73a43,43,0,0,0-5.09,1.55"/><path class="cls-7" d="M362.12,216.73c-22.26,17.75,1.82,60.88,7.34,67.91,26,33,25.72,67.93-17.23,73.66"/><path class="cls-2" d="M347.66,358.78c-1.71.14-3.48.23-5.31.28"/><circle class="cls-8" cx="34.72" cy="416.42" r="8.43"/><path class="cls-9" d="M200.81,139.57,198.92,138l1.77-2.51c.12,0,.27,0,.33.12.49.52,1,1.06,1.47,1.62Z"/><path class="cls-10" d="M200.26,140.74c-.27-.3-.54-.63-.83-.93a2.75,2.75,0,0,0-2.26-.94c-.6,0-1-.22-1-.5,0-.44.36-.59.69-.75s.45-.18.66-.3a3.74,3.74,0,0,0,2.17-3.5c0-.36,0-.73,0-1.09a1.26,1.26,0,0,1,.15-.51.44.44,0,0,1,.28-.2.4.4,0,0,1,.32.09,14.25,14.25,0,0,0,1.47,2.5,13.93,13.93,0,0,0,.9,1.13,1.49,1.49,0,0,0,1.1.56.6.6,0,0,1,.64.52.62.62,0,0,1-.33.6,7.23,7.23,0,0,0-2,2.28,3.91,3.91,0,0,0-.65,2.23,2.18,2.18,0,0,1-.18.86.54.54,0,0,1-.44.24c-.15,0-.39-.16-.41-.28a10.4,10.4,0,0,1-.15-1.25C200.3,141.26,200.29,141,200.26,140.74Zm.55-1.17,1.68-2.36c-.5-.56-1-1.1-1.47-1.62-.06-.08-.21-.08-.33-.12L198.92,138Z"/><path class="cls-9" d="M287.14,108.24l1.75,2.23a5.75,5.75,0,0,1-1.26,2c-.16,0-.3,0-.36-.11-.62-.64-1.23-1.29-1.88-2,0-.31.41-.3.58-.53s.39-.45.57-.68S286.88,108.64,287.14,108.24Z"/><path class="cls-10" d="M287.49,115.39c-.19-.07-.34-.08-.4-.16a.84.84,0,0,1-.23-.47,3.61,3.61,0,0,0-1.51-2.77,13.54,13.54,0,0,0-1.49-1,3.89,3.89,0,0,0-.51-.21c-.21-.1-.43-.42-.36-.56s.18-.34.33-.4a10.51,10.51,0,0,1,1.35-.53,2,2,0,0,0,1.1-.88,3.09,3.09,0,0,0,.73-2.18.84.84,0,0,1,.1-.52.81.81,0,0,1,.4-.3.36.36,0,0,1,.31.12,3,3,0,0,1,.37.62c.21.43.38.88.59,1.32a4.82,4.82,0,0,0,1.84,2.18,5.5,5.5,0,0,1,.8.73.52.52,0,0,1-.1.65,3.9,3.9,0,0,1-.62.37,2.7,2.7,0,0,0-1.2,1.07,5.08,5.08,0,0,0-1.1,2.44C287.87,115.07,287.62,115.24,287.49,115.39Zm-.35-7.15c-.26.4-.42.65-.6.89s-.39.45-.57.68-.58.22-.58.53c.65.7,1.26,1.35,1.88,2,.06.07.2.07.36.11a5.75,5.75,0,0,0,1.26-2Z"/><path class="cls-9" d="M284.55,94a3.41,3.41,0,0,1-1.37,1.77,5.77,5.77,0,0,0-.48-.93,7.76,7.76,0,0,0-.73-.8c-.06-.55.53-.75.65-1.22a8.4,8.4,0,0,1,.39-1.2.4.4,0,0,1,.27-.2c.06,0,.2.1.22.17a4.65,4.65,0,0,0,.75,1.81A4.79,4.79,0,0,1,284.55,94Z"/><path class="cls-10" d="M286.16,94.44c-.05.14-.05.29-.13.36a1.29,1.29,0,0,1-.45.27,2.31,2.31,0,0,0-1.5,1.68,3.61,3.61,0,0,1-.84,1.58.37.37,0,0,1-.31.12c-.15-.06-.38-.19-.39-.3a12.42,12.42,0,0,0-.51-2.48.72.72,0,0,0-.66-.53c-.3,0-.6,0-.9,0A2.93,2.93,0,0,1,280,95a.44.44,0,0,1-.15-.61l1.2-1.1a2.65,2.65,0,0,0,.74-1.21,13.44,13.44,0,0,1,.84-2,1.27,1.27,0,0,1,1-.71.55.55,0,0,1,.32.1.71.71,0,0,1,.21.28,3.36,3.36,0,0,1,.29.86A6.65,6.65,0,0,0,285.94,94,3.21,3.21,0,0,1,286.16,94.44ZM284.55,94a4.79,4.79,0,0,0-.3-.6,4.65,4.65,0,0,1-.75-1.81c0-.07-.16-.18-.22-.17a.4.4,0,0,0-.27.2,8.4,8.4,0,0,0-.39,1.2c-.12.47-.71.67-.65,1.22a7.76,7.76,0,0,1,.73.8,5.77,5.77,0,0,1,.48.93A3.41,3.41,0,0,0,284.55,94Z"/><path class="cls-11" d="M219.67,111.43c0,.12.07.26,0,.35a6.81,6.81,0,0,1-2,2.1,1.91,1.91,0,0,1-.85.29c-.14,0-.31-.12-.45-.2a.3.3,0,0,0-.45.1,1.12,1.12,0,0,0-.15.49c0,.08.14.21.23.23.3.06.6.09.94.13a1.56,1.56,0,0,1-.18.49c-.43.5-.9,1-1.34,1.49a5,5,0,0,0-.63.88,8,8,0,0,1-.38,1c-.42.58-.92,1.11-1.46,1.76-.05-.27-.13-.43-.09-.56.63-1.9,1.48-3.72,2.27-5.56.35-.84.67-1.69,1-2.52a9.82,9.82,0,0,1,.84-1.61,21.38,21.38,0,0,0,1.84-3.35c.82-1.83,1.7-3.63,2.53-5.45.38-.83.69-1.69,1.06-2.52a2.26,2.26,0,0,1,.56-.91,6.43,6.43,0,0,0,1.84-2.46,1.62,1.62,0,0,1,1.39-1c1.68-.21,3.33-.62,5-.78,1.14-.1,2.26-.44,3.39-.65a3,3,0,0,1,2.29.18,6.85,6.85,0,0,0,1.44-.07,9.66,9.66,0,0,1,3.26-.11,18.87,18.87,0,0,0,2.15.33,1.08,1.08,0,0,1,.91.52c.17.25.34.51.53.74a2,2,0,0,0,1.74.81c.85,0,1.7,0,2.55,0A5.14,5.14,0,0,0,252.2,95a19.41,19.41,0,0,1,2.4-.83,1.8,1.8,0,0,0,1.3-1.38,10.41,10.41,0,0,1,.51-1.55,1.18,1.18,0,0,1,.95-.77c.71-.11,1.45-.12,2.15-.3a12.86,12.86,0,0,0,2.24-.61A2.84,2.84,0,0,1,260.36,91a9.75,9.75,0,0,0-1.19.83,3.43,3.43,0,0,0-1.37,2.28,3.94,3.94,0,0,1-.7,1.66,22.07,22.07,0,0,0-1.28,2.2,10.26,10.26,0,0,0-1.07,5.65,25.18,25.18,0,0,0,.65,2.83c.06.28.3.55.12.86-.12,0-.24.08-.33,0-.85-.33-1.72-.62-2.53-1a3.8,3.8,0,0,0-2.11-.37c-.43,0-.85.07-1.27.14q-4,.61-8.13,1.07c-1.92.21-3.84.58-5.76.85-1.44.21-2.89.4-4.33.57-2.78.32-5.55.68-8.29,1.23-1,.2-2,.54-3,.84a2.24,2.24,0,0,0-.59.39c-.14.11-.07.35.13.42a1.08,1.08,0,0,0,.36,0Zm5.14-10.3a5.8,5.8,0,0,0,2.17.16c1.94-.07,3.89-.17,5.83-.26a45.12,45.12,0,0,0,6.85-.93c1.6-.33,3.21-.64,4.82-1,.59-.12,1.18-.28,1.76-.46a3.34,3.34,0,0,0,.77-.46c.07,0,.07-.2.07-.31s-.1-.1-.14-.09c-2,.36-3.94.71-5.9,1.12a55.41,55.41,0,0,1-7,1.17c-1.81.14-3.63.24-5.45.34A18.58,18.58,0,0,0,224.81,101.13Zm20.6,2.87a3.7,3.7,0,0,0-2-.13c-1,.11-1.93.25-2.88.43a29.48,29.48,0,0,1-6.15.51,62.83,62.83,0,0,0-10,.45c-.24,0-.48,0-.61.31a1.94,1.94,0,0,0,.49.18,19.09,19.09,0,0,0,2,0c2.3-.14,4.6-.21,6.91-.18.91,0,1.82,0,2.73,0,.72,0,1.45-.08,2.17-.15,2.3-.21,4.54-.76,6.81-1.15A2.58,2.58,0,0,0,245.41,104Z"/><path class="cls-11" d="M263,111.3a1.91,1.91,0,0,1-.52-.27,6.89,6.89,0,0,0-2.9-1.81c-.47-.16-.55-.44-.34-1s.12-.62-.15-.76l-.32-.17a4.77,4.77,0,0,1-2.77-4,7.73,7.73,0,0,1,.8-4.59,28.45,28.45,0,0,1,2.94-4.8,5.14,5.14,0,0,1,2.07-1.73c.82-.38,1.57-.9,2.47-1.42a9.1,9.1,0,0,0,3.58-.71,2.22,2.22,0,0,1,.88-.16c1,0,2.07,0,3.1.06a2.15,2.15,0,0,1,.5.12.67.67,0,0,1-.12.7c-.29.39-.61.76-.9,1.15-1,1.37-2,2.71-3,4.13a24.19,24.19,0,0,0-2.56,6c-.55,1.73-1,3.49-1.56,5.23C263.78,108.62,263.37,109.93,263,111.3Zm-5.57-10c.12,0,.28,0,.33-.09a5.06,5.06,0,0,0,.76-1.22,6.74,6.74,0,0,1,1.76-2.72c.39-.38.75-.79,1.11-1.2a.2.2,0,0,0,0-.17c0-.15-.17-.21-.29-.12a11.74,11.74,0,0,0-3.8,5.21C257.24,101,257.35,101.15,257.39,101.26Zm3,1.52a1.34,1.34,0,0,0,.3-.12,4.91,4.91,0,0,0,1.51-2,6.43,6.43,0,0,1,1.65-2.34,6.53,6.53,0,0,0,.58-.7.2.2,0,0,0-.05-.13.17.17,0,0,0-.15,0,7.23,7.23,0,0,0-2.13,2.17,14.35,14.35,0,0,1-1.8,2.69.54.54,0,0,0,0,.34S260.33,102.73,260.38,102.78Zm-3.83-.3-.08-.12a.88.88,0,0,0-.12.21s0,.08.07.12Z"/><path class="cls-12" d="M273.05,87.93c-.84,0-1.68.08-2.52.09a17,17,0,0,0-3.62.29,8.73,8.73,0,0,1-1.62,0c-.55-.45-1.16-.23-1.75-.16a15.07,15.07,0,0,0-2.33.36c-.89.26-1.83.13-2.69.41a16.93,16.93,0,0,1-2.63.68,1.55,1.55,0,0,0-1.34.8.82.82,0,0,1-.64.25,27,27,0,0,0-5.59.6A18.36,18.36,0,0,0,245,92a2.44,2.44,0,0,1-1.44.07,12.36,12.36,0,0,0-4-.2,4,4,0,0,1-2.31-.24,1,1,0,0,0-.7,0,8.36,8.36,0,0,1-3.22.45,10.14,10.14,0,0,0-2.5.42c-.6.12-1.18.27-1.78.4a1.35,1.35,0,0,1-.71.06,4.55,4.55,0,0,0-2.45-.09c-.67-.47-.71-1.15-.89-1.83.17-.1.31-.25.45-.25a8,8,0,0,0,2.65-.57,3.92,3.92,0,0,1,1.06-.26c1.57-.14,3.14-.29,4.71-.38a36.23,36.23,0,0,0,4.16-.45,14.2,14.2,0,0,1,3.26-.07,3.72,3.72,0,0,0,2.28-.41,4.49,4.49,0,0,1,1.55-.47c2.1-.41,4.23-.39,6.34-.67l2.15-.3a4.7,4.7,0,0,1,.91-.1,19.8,19.8,0,0,0,4.85-.58,1.78,1.78,0,0,1,1.39.16,1.65,1.65,0,0,0,1.41.14,5.78,5.78,0,0,1,1.8-.23,3,3,0,0,0,.9-.11,7.94,7.94,0,0,1,2.7-.27c1.4,0,2.79,0,4.19,0a3.26,3.26,0,0,1,1.06.2.54.54,0,0,1,.37.56C273.14,87.28,273.1,87.57,273.05,87.93Z"/><path class="cls-13" d="M207.72,121.35a1.77,1.77,0,0,1,.05-.53,27.51,27.51,0,0,0,1.43-4.12c1.3-3.92,2.72-7.79,4.33-11.59.26-.61.52-1.23.73-1.86a35.32,35.32,0,0,1,1.64-3.85c.49-1,.91-2.11,1.34-3.18a12.66,12.66,0,0,1,1.09-2.29,3.82,3.82,0,0,0,.63-1.69.2.2,0,0,0-.06-.16c-.1,0-.24,0-.29,0A9,9,0,0,0,216.72,95c-1.12,3-2.59,5.75-3.72,8.69s-2.55,6-3.84,9a9.6,9.6,0,0,0-.71,2.44,3.14,3.14,0,0,1-1.16,2.19,2.11,2.11,0,0,0-.68,1.44.64.64,0,0,0,.33.77.64.64,0,0,1,.42.54,1.64,1.64,0,0,1-.18.69,14.1,14.1,0,0,1-.77,1.23c-.06.08-.21.1-.37.18a4.88,4.88,0,0,1-.4-.79c-.2-.63-.3-1.3-.55-1.91a3,3,0,0,1,.52-3.06c.19-.25.41-.47.34-.79a3,3,0,0,1,.35-1.75c.17-.39.36-.77.56-1.15a11.48,11.48,0,0,0,1-2.54,12.51,12.51,0,0,1,1-2.71,16,16,0,0,0,.92-2.18,19.66,19.66,0,0,1,1.18-2.85c.94-1.84,1.7-3.76,2.78-5.53.12-.2.19-.44.32-.65a1.43,1.43,0,0,0,0-1.39c0-.11,0-.24-.08-.36v0a2.17,2.17,0,0,0,.56-.9,2.57,2.57,0,0,1,1-1.28,1.33,1.33,0,0,1,1.33-.18.8.8,0,0,0,0,.32s.18,0,.28,0,0-.25,0-.28-.21,0-.32,0c.06-.11.12-.21.17-.32a2.87,2.87,0,0,1,2.5-1.57c.92-.08,1,.26.9,1.1a2.75,2.75,0,0,1-.34.84c-.26.47-.56.93-.86,1.43a1.84,1.84,0,0,1,.08,1.85c-.43,1.07-.9,2.13-1.35,3.19-.74,1.73-1.46,3.47-2.23,5.19-.6,1.32-1.31,2.6-1.82,4a9.27,9.27,0,0,0-.92,2.55.86.86,0,0,1-.26.46,7.26,7.26,0,0,0-1.49,2.89A33.46,33.46,0,0,1,209.6,118c-.41,1-.79,1.91-1.2,2.86a.67.67,0,0,1-.71.45Z"/><path class="cls-12" d="M222.09,92.69c.88.43,1.14,1.27,1.64,2a8.92,8.92,0,0,1-1,1.75,20.33,20.33,0,0,0-1.57,2.86c-1.3,2.87-2.59,5.76-4,8.57a63.68,63.68,0,0,0-3.53,8,18,18,0,0,1-2.24,4.53c-.44.65-.75,1.38-1.16,2.06a4.1,4.1,0,0,1-.59.66s-.13,0-.18,0a.23.23,0,0,1-.11-.11,1.89,1.89,0,0,1,0-.53c.11-.59.24-1.18.38-1.77a6.45,6.45,0,0,1,1.1-2.65,3.76,3.76,0,0,0,.64-1.09,43.18,43.18,0,0,1,2.41-5.1,30.47,30.47,0,0,0,1.55-3.68c.89-2.58,1.87-5.13,3-7.62.74-1.66,1.41-3.35,2.14-5,.33-.78.72-1.54,1.11-2.28A2.67,2.67,0,0,1,222.09,92.69Zm-.54,2.74c-.33.09-.39.39-.49.65,0,0,0,.11,0,.13a.14.14,0,0,0,.14,0,.78.78,0,0,0,.37-.72c.28,0,.36-.27.48-.46s0-.24-.1-.26a.22.22,0,0,0-.16.06A.66.66,0,0,0,221.55,95.43Z"/><path class="cls-13" d="M214,94.52v0a2.13,2.13,0,0,0-.82,1.56,2.05,2.05,0,0,1-.44,1.17,57.53,57.53,0,0,0-3.36,6.23,5.66,5.66,0,0,0-.27.68c-.11.28-.19.58-.31.86-.58,1.39-1.28,2.75-1.73,4.19a27.41,27.41,0,0,1-1.69,4.21c-.1.21-.22.41-.31.58s-.32,0-.31-.12c0-.54,0-1.08.09-1.62a3.43,3.43,0,0,0-.34-2.29,1.29,1.29,0,0,1-.17-.69,8.43,8.43,0,0,1,.65-3.37c.62-1.32,1.25-2.63,1.88-3.94a6,6,0,0,1,.94-1.55,2.19,2.19,0,0,0,.5-.75,5.35,5.35,0,0,1,1.33-1.92c.61-.67,1.2-1.37,1.77-2.07a6.93,6.93,0,0,1,2.67-2.1C214.43,93.91,214.17,94.21,214,94.52Z"/><path class="cls-11" d="M219.7,111.46a29.68,29.68,0,0,1,7.1-1.46c2.11-.17,4.22-.41,6.32-.67,1.87-.23,3.72-.53,5.58-.8,1.26-.18,2.52-.37,3.78-.54q2.7-.37,5.4-.72c.05,0,.11,0,.18.07-.14.62-.42,1.09-1.16,1.08-.24,0-.48,0-.72,0a2,2,0,0,0-1.5.53,1,1,0,0,1-1.17.25,5.74,5.74,0,0,0-3.57-.1,1,1,0,0,0-.91.78,1.39,1.39,0,0,1-.09.35,3.32,3.32,0,0,0-.65,2c0,.23-.56.44-.75.27a4.18,4.18,0,0,1-.62-.64,1.86,1.86,0,0,0-1.17-.8c-.29-.07-.58-.16-.87-.26A4.53,4.53,0,0,0,231,111a1.88,1.88,0,0,1-1.42.11c-.46-.11-.94-.24-1.41-.32a6.57,6.57,0,0,0-4.91,1.5,2.5,2.5,0,0,0-1,1.29c-.07.23-.15.45-.25.71a6.55,6.55,0,0,0-2.09.57c-.62.37-1.29.65-2,1,0-.59.21-.93,1.1-2.21a8.4,8.4,0,0,0,1.28-1.89c-.23-.28-.5-.21-.72-.29Z"/><path class="cls-12" d="M264.43,112a8.05,8.05,0,0,1,.39-1.89c.77-2.55,1.54-5.11,2.34-7.66.4-1.27.82-2.54,1.29-3.78A20,20,0,0,1,271.16,94s.1,0,.21-.1c0,.16.11.33.07.46-.9,3.4-1.82,6.79-2.72,10.19a18.31,18.31,0,0,0-.56,2.86,9.06,9.06,0,0,1-.36,1.78c-.24.88-.54,1.74-.82,2.6-.19.57-.49.73-1.11.61-.24,0-.46-.18-.7-.21S264.7,112.27,264.43,112Z"/><path class="cls-14" d="M245.93,93a2.07,2.07,0,0,1,.64-.3c1.55-.24,3.1-.47,4.65-.74a15.76,15.76,0,0,1,3.07,0,.38.38,0,0,1,.1.29,1,1,0,0,1-.3.43,12.51,12.51,0,0,1-1.46.74,8.83,8.83,0,0,1-5.11.83C246.74,94.22,246.46,94,245.93,93Z"/><path class="cls-12" d="M270.07,102.71c.07-.42.13-.84.22-1.25.32-1.35.66-2.7,1-4.06a58.53,58.53,0,0,1,2.12-6.74.53.53,0,0,1,.61-.25.57.57,0,0,1,.45.5,1.37,1.37,0,0,1-.05.53c-1.19,3.69-2.45,7.34-4,10.91-.06.14-.25.22-.38.33Z"/><path class="cls-13" d="M207.69,121.33a2.23,2.23,0,0,1-.38,1.66c0,.06-.19,0-.29,0a.17.17,0,0,1-.07-.14,3.45,3.45,0,0,1,.77-1.54Z"/><path class="cls-11" d="M257.49,108.6l.29.48c-.1,0-.19.14-.29.14s-.2-.09-.3-.14Z"/><path class="cls-12" d="M270,102.68c0,.21,0,.41,0,.71-.23-.33,0-.48.06-.68Z"/><path class="cls-13" d="M239.41,161.64c-.16-.24-.4-.2-.62-.17-1.69.18-3.4.05-5.08.36a12.2,12.2,0,0,1-1.82.08l-3.82.19a.63.63,0,0,1-.75-.6c-.06-.42-.12-.84-.15-1.27,0-.6-.06-1.21-.09-1.82-.1-2,0-4-.31-6a4.89,4.89,0,0,1,0-.54c0-.5,0-1,.63-1.17-.17-.31-.3-.51-.4-.72a2.29,2.29,0,0,1-.3-.66,7.65,7.65,0,0,1,.2-3.59,2,2,0,0,1,1.54-1.39c.36-.07.72-.17,1.08-.22l6.49-.87c.9-.12,1.8-.26,2.69-.43a49.62,49.62,0,0,1,5.43-.64c1.45-.11,2.89-.34,4.33-.52.55-.07,1.08-.17,1.63-.22.94-.09,1,0,1.36.8.48,1.18,1,2.35,1.49,3.52a.63.63,0,0,0,.56.41,5.69,5.69,0,0,0,1.8,0c1.57-.46,3.18-.73,4.76-1.15a2.63,2.63,0,0,0,2.06-2.65v-2.05c.35-.32.73-.62,1.05-1a2.6,2.6,0,0,1,1.24-.72,61.62,61.62,0,0,1,6-1.4,23.14,23.14,0,0,1,3.8-.42,19.89,19.89,0,0,0,4.85-.72,2.31,2.31,0,0,1,.52,0,3.2,3.2,0,0,1-.52,2.08,13.5,13.5,0,0,0-1.4.09c-.47.07-.94.2-1.41.31a.65.65,0,0,0-.32.16c-.11.13-.26.29-.25.44a.52.52,0,0,0,.31.37,2.49,2.49,0,0,0,1.43-.05,5.46,5.46,0,0,1,.88-.17c.09,0,.2.11.33.2a52.35,52.35,0,0,1-1.67,5.4,24.61,24.61,0,0,1-4,.38,12.64,12.64,0,0,0-4,.33,2,2,0,0,1-.55,0,25.68,25.68,0,0,0-5.43,1,3.21,3.21,0,0,0,.64.21,4.35,4.35,0,0,0,.72,0,33.23,33.23,0,0,1,5.06-.58c2.16-.48,4.37-.14,6.54-.42a.43.43,0,0,1,.34.05.66.66,0,0,1,.28.4,3,3,0,0,1-.16.89,78.59,78.59,0,0,1-2.36,7.65c-.17.45-.25.94-.39,1.4-.22.76-.45,1.51-.69,2.26a1,1,0,0,1-.8.66,3.54,3.54,0,0,1-.73.05c-.54,0-1.09,0-1.64,0a46.44,46.44,0,0,0-7.26.56c-1.56.2-3.13.39-4.68.65-1.38.23-2.75.51-4.1.83-2.42.58-4.84,1.16-7.24,1.81a50.62,50.62,0,0,1-5,.91c-2.46.4-4.92.76-7.38,1.16-.89.15-1.78.35-2.67.56a13.25,13.25,0,0,1-3.44.21.58.58,0,0,1-.57-.59c0-.67,0-1.33,0-2,0-.43.25-.61.73-.59,1.09.05,2.18.13,3.28.16a12.42,12.42,0,0,0,2.72-.15c.84-.14,1.69-.19,2.53-.27a8.74,8.74,0,0,0,2.48-.55C239.27,161.83,239.33,161.72,239.41,161.64Zm-.64-4.18c-.13.29-.65.21-.65.72a4.56,4.56,0,0,0,.88-.12c.37-.14.82-.06,1.1-.45a2.22,2.22,0,0,0-1.37-.13c.1-.07.19-.19.29-.21a19.91,19.91,0,0,1,2.16-.27,14.69,14.69,0,0,0,4.12-.63,18.73,18.73,0,0,1,3.39-.7c1.56-.19,3.13-.42,4.68-.68,1.8-.29,3.59-.63,5.39-.93,1.14-.19,2.28-.33,3.42-.48a37.55,37.55,0,0,1,6-.52,19.14,19.14,0,0,0,2.71-.27c.14,0,.27-.15.42-.25-.15-.1-.24-.2-.34-.22a18.68,18.68,0,0,0-5.63-.24c-1.75.16-3.49.46-5.24.71-1.2.18-2.4.37-3.59.57-2.58.42-5.13,1-7.74,1.25a11.36,11.36,0,0,0-3,.58,14.46,14.46,0,0,1-4.25.94,9.82,9.82,0,0,0-2.83.67,3,3,0,0,0-.58.38C238.28,157.48,238.54,157.41,238.77,157.46Zm12.22,1a1.76,1.76,0,0,0,.55.15c.48-.07,1-.23,1.43-.27,2.3-.2,4.56-.64,6.83-1.06a26.69,26.69,0,0,1,6-.55,21.78,21.78,0,0,0,2.55-.13,1.32,1.32,0,0,0,.84-.27,2.41,2.41,0,0,1,1.45-.65c.07,0,.12-.16.16-.25s-.07-.12-.12-.13c-.66-.08-1.32-.19-2-.22a1.71,1.71,0,0,0-1,.22,2.36,2.36,0,0,1-1.73.39,24,24,0,0,0-5.61.53c-2.45.46-4.9.86-7.35,1.32a8.75,8.75,0,0,0-1.55.5C251.24,158.07,251.15,158.26,251,158.43ZM231.27,153a2.22,2.22,0,0,0,.32.14,20.53,20.53,0,0,0,7.77-.58,55.42,55.42,0,0,1,7.55-1.2c1.39-.17,2.78-.26,4.17-.39a1.58,1.58,0,0,0,.42-.2c-.11-.08-.16-.14-.21-.14a17.71,17.71,0,0,0-6.16-.11c-.23.05-.49,0-.72.07a35.49,35.49,0,0,0-4,.64,36.7,36.7,0,0,1-8.58,1.53C231.65,152.72,231.4,152.7,231.27,153Zm18.29-6.58s-.06-.11-.1-.12a11.46,11.46,0,0,0-3.6-.2c-1.15.12-2.29.32-3.44.37a48.81,48.81,0,0,0-6.13.73,20,20,0,0,1-3.79.36,10.84,10.84,0,0,0-1.27.09,1.31,1.31,0,0,0-.42.22,1.29,1.29,0,0,0,.37.19,22.52,22.52,0,0,0,5.8-.1c1.49-.25,3-.44,4.51-.54s2.89-.23,4.33-.45c1-.15,1.93-.21,2.89-.32C249,146.57,249.32,146.61,249.56,146.37Zm9.68,3.13,0,.26a2.89,2.89,0,0,0,.69.13c1.27-.06,2.54-.11,3.8-.23,1.56-.14,3.12-.35,4.68-.55.89-.12,1.79-.24,2.67-.44a11.55,11.55,0,0,0,1.69-.65c.09,0,.13-.18.2-.27a.88.88,0,0,0-.3-.16,2.48,2.48,0,0,0-.72,0c-.71.12-1.42.3-2.13.4-1.8.25-3.6.47-5.39.71-1,.14-2,.31-3,.47Zm-31.06,8.95a7.55,7.55,0,0,0,3.37.06c1.25-.19,2.49-.45,3.73-.69.05,0,.09-.08.13-.12s-.13-.23-.22-.25a4.84,4.84,0,0,0-2-.06c-1.49.26-3,.51-4.46.78A2.86,2.86,0,0,0,228.18,158.45Zm45.9-17.72a5.55,5.55,0,0,0-2.86,0,6.35,6.35,0,0,0-3.22.93c.59.29,1.08-.11,1.62-.12,1.14,0,2.28-.14,3.41-.24a4.48,4.48,0,0,0,.88-.2C274,141,274,140.88,274.08,140.73Z"/><path class="cls-13" d="M222.7,163.29l.51,0c0-.14,0-.29,0-.34-.34-.34-.71-.66-1.08-1-1-.86-2.07-1.68-3.06-2.58a54.76,54.76,0,0,0-5.41-4.32c-.45-.31-.88-.64-1.22-.89-.23-.88-.45-1.63-.62-2.39q-.39-1.87-.72-3.75c-.57-3.23-1.13-6.47-1.68-9.7-.1-.54-.17-1.08-.22-1.62a1.1,1.1,0,0,1,.14-.49c.05-.11.45,0,.64.23a6.5,6.5,0,0,1,.59.69,12.21,12.21,0,0,0,2.16,2.21,20.47,20.47,0,0,1,1.55,1.54c1.84,2,3.67,4.06,5.5,6.08.33.36.65.74,1,1.07a14.73,14.73,0,0,1,2.22,2.64,5.65,5.65,0,0,0,.71.83.48.48,0,0,0,.65.05.38.38,0,0,0,0-.49,17.56,17.56,0,0,0-2.44-3.39c-2-2.11-4-4.29-5.93-6.43a21.6,21.6,0,0,0-3.41-3.28,4.51,4.51,0,0,1-.9-.9,8.33,8.33,0,0,0-2.11-2,2.37,2.37,0,0,1-1.11-1.79c-.08-.73-.25-1.44-.37-2.15,0-.25.07-.45.2-.42a.68.68,0,0,1,.33.1c1.71,1.55,3.62,2.87,5.21,4.56.7.76,1.46,1.46,2.18,2.21a20.87,20.87,0,0,0,2.86,2.53,1.6,1.6,0,0,1,.81,1.34,1.54,1.54,0,0,0,.78,1.16,33.8,33.8,0,0,1,3.79,3.68s0,.2-.09.29-.13,0-.16,0c-.53-.4-1.06-.8-1.57-1.22s-.81-.74-1.24-1.07a4.9,4.9,0,0,0-1-.49c-.07,0-.19.07-.28.14s0,.13,0,.17a38.93,38.93,0,0,0,3.26,3.16c.65.55,1.26,1.15,1.87,1.74a1.36,1.36,0,0,1,.42,1c.07,2.24.39,4.47.36,6.73,0,1.51.11,3,.22,4.55a27.23,27.23,0,0,1,0,4.33c-.17.05-.32.15-.39.11a8.16,8.16,0,0,1-3-2.27.52.52,0,0,1,0-.18Zm-12.15-21.91c-.09.06-.24.11-.25.19a.76.76,0,0,0,0,.52,17.17,17.17,0,0,0,1.19,1.37c2.74,2.75,5.48,5.51,8,8.43.28.32.59.62.89.92a34.37,34.37,0,0,1,3.23,3.7,2.47,2.47,0,0,0,.52.5c.08.05.28.07.33,0s.25-.31.22-.43a4.81,4.81,0,0,0-1.12-1.86c-1.35-1.48-2.72-2.94-4-4.43-2.62-3-5.49-5.68-8.29-8.46a3.59,3.59,0,0,0-.57-.44S210.61,141.39,210.55,141.38Zm2.2,8.55-.22.2a2.42,2.42,0,0,0,.33.59,25.34,25.34,0,0,0,1.77,1.82A29.92,29.92,0,0,1,217.1,155c.93,1,1.87,2.07,2.84,3.08a24.49,24.49,0,0,1,3.05,3.61,1.16,1.16,0,0,0,.37.39.61.61,0,0,0,.5.07c.11,0,.18-.3.16-.45a1.28,1.28,0,0,0-.21-.5,15.87,15.87,0,0,0-2.24-2.86c-1.48-1.62-2.94-3.24-4.5-4.78-1.12-1.1-2.38-2.07-3.58-3.08C213.26,150.26,213,150.11,212.75,149.93Z"/><path class="cls-13" d="M222.73,163.26c-.15,0-.31.08-.41-.11,0,0,.09-.07.11-.05a2.61,2.61,0,0,1,.27.19Z"/><path class="cls-12" d="M282.31,129.81a.44.44,0,0,1,.05.15.56.56,0,0,1-.33.58,3.42,3.42,0,0,1-.34.13,37.13,37.13,0,0,0-5.5,1.17,1.74,1.74,0,0,1-.72.09,6.81,6.81,0,0,0-2.67.5,6.23,6.23,0,0,1-2.86.3,8.62,8.62,0,0,0-2.54.07c-2.33.38-4.66.84-7,1.24a25.28,25.28,0,0,0-3.56.74,25.25,25.25,0,0,1-4.65.87,27.56,27.56,0,0,0-4,.56,63.14,63.14,0,0,1-7.73,1.24,13,13,0,0,0-2,.36,42,42,0,0,1-6.08,1.13,17.65,17.65,0,0,1-3.63.18,1.53,1.53,0,0,0-1.09.19c-.06.44-.13.92-.18,1.39a.81.81,0,0,0,.33.8.76.76,0,0,1,.34,1.07,1.4,1.4,0,0,0,0,.5,1.19,1.19,0,0,0,.92.08c.59-.12,1.18-.28,1.77-.4a28.31,28.31,0,0,1,2.86-.56c1.57-.14,3.13-.42,4.68-.69a29.06,29.06,0,0,1,3.07-.43c2.18-.14,4.35-.37,6.51-.71.84-.13,1.7-.15,2.55-.2a3.87,3.87,0,0,1,.9.08.81.81,0,0,1,.69.54c.24,1.09,1,1.92,1.32,3a.64.64,0,0,0,.54.44h.18a13.67,13.67,0,0,0,5-.8.84.84,0,0,0,.47-.52c.22-.82.35-1.66.58-2.48.14-.51-.22-.91-.22-1.39s.13-.75.55-.8a20.35,20.35,0,0,0,3.53-.83c1-.31,2-.49,3-.71a19.29,19.29,0,0,0,2.31-.48c1.69-.59,3.49-.49,5.18-.95,1.47.09,2.88-.38,4.33-.39.42,0,.84-.07,1.27-.11a5,5,0,0,1,.39-.66c.14-.19.41-.31.48-.51a11.26,11.26,0,0,1,1.24-2,4.5,4.5,0,0,0,.75-1.78Zm-24.43,9.26a3.22,3.22,0,0,0-.57,2.4,3.68,3.68,0,0,1-.14.88c-.05.15-.23.35-.37.36a2,2,0,0,1-1.5-.44.48.48,0,0,1-.17-.31,3.35,3.35,0,0,1-.07-.71,1.62,1.62,0,0,0-.35-1.18,1.94,1.94,0,0,1-.38-1.36,1.91,1.91,0,0,1,.51-1.49,1.73,1.73,0,0,1,2.78.33,3.13,3.13,0,0,1,.33.83C258,138.61,258,138.94,257.88,139.07Z"/><path class="cls-12" d="M219,134.84a9.13,9.13,0,0,0,2.54,2.53c1,.64,1.89,1.31,2.85,2,.08,1.19,0,2.33,0,3.57a2.71,2.71,0,0,1-.76-.21,12.37,12.37,0,0,1-1-.79l-3.93-3.24-1.1-1c-.14-.12-.26-.25-.39-.38a60.43,60.43,0,0,0-7.71-6.94,8.25,8.25,0,0,1-1.89-2,6.68,6.68,0,0,1,0-2,.41.41,0,0,1,.44-.23,4.79,4.79,0,0,1,1.66,1.09,18.64,18.64,0,0,0,1.48,1.34,50.39,50.39,0,0,1,5.67,4.85,1.57,1.57,0,0,0,1.07.61A1.16,1.16,0,0,0,219,134.84Z"/><path class="cls-12" d="M219.77,134.85a2.17,2.17,0,0,1,1.44,1c0,.06,0,.2-.06.34a4.85,4.85,0,0,1-1.23-1,.93.93,0,0,1-.13-.32Z"/><path class="cls-12" d="M218.67,134.13h-.76C218.27,133.81,218.27,133.81,218.67,134.13Z"/><path class="cls-12" d="M219,134.87v-.43c.29.07.6.11.76.41l0,0Z"/><path class="cls-15" d="M283.14,129.61a1.41,1.41,0,0,0-.19-.35,34.35,34.35,0,0,1-4-4.89,1.77,1.77,0,0,0-.52-.5,1.5,1.5,0,0,0-.55-.12c0,.72,0,1.4,0,2.06a1.88,1.88,0,0,1-1.08,1.57,4.56,4.56,0,0,1-3.7.22c-.09,0-.14-.16-.21-.25a1.1,1.1,0,0,1,.82-.33c.54,0,1.09-.07,1.63-.14a1.74,1.74,0,0,0,1.68-2,1.37,1.37,0,0,0-.4-1c-.39-.38-.76-.78-1.17-1.14a2.91,2.91,0,0,0-.66-.35,5.17,5.17,0,0,1-2,.93c-.72.08-1.42.26-2.08.39a15.09,15.09,0,0,0-1.46,2.61c-.05.21-.28.39-.46.54-1.33,1.09-1.33,1.09-3.13,1.09-.49,0-1,0-1.46,0a8.78,8.78,0,0,1-1.24-.25,1.53,1.53,0,0,1-1.12-1.31c0-.14.08-.32.13-.48.11,0,.27,0,.33.1a2.23,2.23,0,0,0,1.93.82c.72,0,1.45,0,2.18,0a1.67,1.67,0,0,0,1.47-.92,9.07,9.07,0,0,0,.55-1.26c-.76-.82-1.41-1.78-2.61-2-.39.12-.75.2-1.08.33a4.48,4.48,0,0,1-2.51.18,7.08,7.08,0,0,0-.9-.16,3.44,3.44,0,0,1-2.57-1.53,17.42,17.42,0,0,1-2-3.24l-.71-.26a3.66,3.66,0,0,1-2.24-2.24,6,6,0,0,1-.32-2c0-1,0-1,.74-1.39a4.38,4.38,0,0,1,.83-.37,2.26,2.26,0,0,1,2.52.48c.25.27.59.45.84.7a17.85,17.85,0,0,1,1.5,2.24.84.84,0,0,1,.07.53,3.73,3.73,0,0,1-.17,1.06,1.11,1.11,0,0,0,.28,1.17,2.12,2.12,0,0,0,2,1,14.24,14.24,0,0,1,1.46,0,1.52,1.52,0,0,0,1.29-1.11,2.47,2.47,0,0,0-.73-2.33c-.24-.26-.45-.26-.76,0s-.62.08-.68-.27c-.09-.54-.15-1.08-.24-1.62-.33-1.92-2.38-3.57-4-3.38a.49.49,0,0,0-.51.57.48.48,0,0,1-.51.42,1.83,1.83,0,0,1-1.2-.31,1.4,1.4,0,0,1-.15-.33,3.44,3.44,0,0,0-2.38-2.73l-.51-.18a3.55,3.55,0,0,0-3.16.2c-.31.18-.64.33-1,.52-.14.44-.26.9-.44,1.34a.56.56,0,0,1-.45.19,1,1,0,0,1-.45-.26,2.05,2.05,0,0,0-2.06-.12c-.09,0-.13.18-.18.27a4.27,4.27,0,0,1,1.51,2.62c.46.08.94.19,1.41.24a1.45,1.45,0,0,1,.83.33c.22.2.44.41.68.6a1.41,1.41,0,0,1,.49,1.48l0,0c.19.31.38.62.56.93a.82.82,0,0,1-.09,1c-.32.36-.65.72-1,1.07a3.07,3.07,0,0,1-2.1,1,14,14,0,0,0-2.86.45,1.61,1.61,0,0,1-2.18-1.35c-.08-.35-.1-.71-.15-1.09a2.75,2.75,0,0,0-.57.18,5.09,5.09,0,0,1-2.81.61c-.85,0-1.7,0-2.63,0,0,.44.07.85.08,1.26a14.22,14.22,0,0,1,0,1.46,9.9,9.9,0,0,1-.15,1.44,1.61,1.61,0,0,1-.84,1.14c-.59.31-1.19.62-1.77.94a4.21,4.21,0,0,1-3.52.22,2.31,2.31,0,0,1-1.47-1.27,4.35,4.35,0,0,1-.41-1.57,5.59,5.59,0,0,1,.7-3.34c0-.08,0-.22,0-.34l-.14-.11c-.11-.12-.32-.25-.32-.38s.21-.41.45-.5c.61-.24,1.31-.17,1.9-.45v-1.67a9.28,9.28,0,0,1-.84-1,11.25,11.25,0,0,1-.6-1.27c-2.58-1.16-3.92-.32-5.49.67a1.51,1.51,0,0,0-.68,1.58,20.09,20.09,0,0,1,.27,2.17c0,.78.36,1.64-.14,2.31a4.62,4.62,0,0,1-2.32,1.37,7.15,7.15,0,0,1-1.8.19,3.46,3.46,0,0,1-2.72-.8,2.27,2.27,0,0,0-.41-.24,2.86,2.86,0,0,0-2.05,1.45c-.09.18-.38.26-.59.36s-.38,0-.5.15a5.74,5.74,0,0,0-2.08,2.21,8.41,8.41,0,0,1-.55,1c-.43.36-1,.18-1.2.66a41.25,41.25,0,0,0,4.2,3.48,17.11,17.11,0,0,1,1.53,1.29,6.21,6.21,0,0,0,1.48,1.05,45.61,45.61,0,0,1,5.54,3.49c.78.57,1.49,1.24,2.22,1.88a1,1,0,0,1,.27.64,1,1,0,0,0,1.1.9c.85-.05,1.7-.15,2.55-.14a24.54,24.54,0,0,0,5.6-.57,20.88,20.88,0,0,0,3-.57,23.18,23.18,0,0,1,5.53-1,30.29,30.29,0,0,0,4.66-.82,20,20,0,0,1,3.59-.62,30.66,30.66,0,0,0,6.44-1.16,11.23,11.23,0,0,1,1.42-.32c3.35-.58,6.7-1.14,10.05-1.71a11.72,11.72,0,0,0,1.44-.25,11,11,0,0,1,4.13-.27,5.75,5.75,0,0,0,2.69-.27,5.61,5.61,0,0,1,2.3-.48,4.14,4.14,0,0,0,.89-.18l1.78-.33a.53.53,0,0,1,.47.27h.8A1.38,1.38,0,0,0,283.14,129.61Zm-64.21-3.5c-.06-.07-.08-.26,0-.3a2.35,2.35,0,0,1,.58-.41c.66-.31,1.33-.58,2-.89a1.17,1.17,0,0,0,.57-.68c.09-.25,0-.57-.24-.58l-1.63-.09a10.37,10.37,0,0,0-2.72.24c-.07,0-.2-.09-.28-.17s0-.38.11-.47a2.85,2.85,0,0,1,1.52-.58c1,0,1.94-.05,2.91,0a3.1,3.1,0,0,1,1,.33,1,1,0,0,1,.47.92,2.45,2.45,0,0,1-1.27,2.07,8.66,8.66,0,0,1-2.19.88A.79.79,0,0,1,218.93,126.11Zm6.74,8.14a.58.58,0,0,1-.24.25,2.73,2.73,0,0,1-3.64-1,2,2,0,0,1,0-1.75.62.62,0,0,1,.59-.36,3.38,3.38,0,0,1,2.1.49l-1.56.37a.53.53,0,0,0-.25.75,1.39,1.39,0,0,0,1.16.76c.6,0,1.2,0,1.8,0,0,0,.13.05.13.09A.65.65,0,0,1,225.67,134.25Zm9.27-3c-.43.33-.95.55-1.37.89a4.11,4.11,0,0,1-3.2,1,4.86,4.86,0,0,0-.56,0A3.21,3.21,0,0,1,227,132a1.14,1.14,0,0,1-.36-.61,10.8,10.8,0,0,1,.06-1.8,1.15,1.15,0,0,1,.38-.61,4.83,4.83,0,0,1,1.87-1.09c.52-.17,1.05-.3,1.57-.49a6.89,6.89,0,0,1,3.06-.18,2.68,2.68,0,0,1,2.12,2.23A1.91,1.91,0,0,1,234.94,131.23Zm3.56-6.17a2.07,2.07,0,0,1-.68-1.44,4.24,4.24,0,0,1,.4-2.11.94.94,0,0,1,.32-.43,6.87,6.87,0,0,1,3.7-1.3,2,2,0,0,1,.52.14c.24.09.13.3.14.48a8.83,8.83,0,0,1,3.5,1.72,3.16,3.16,0,0,1,1.24,2.33,1.17,1.17,0,0,1-.47,1.12,18.36,18.36,0,0,1-1.68,1.07,2.12,2.12,0,0,1-.86.23c-.54,0-1.08,0-1.63,0-2,0-1.77.17-3.65-1.18A9.37,9.37,0,0,1,238.5,125.06Zm8.93,7.57a9.21,9.21,0,0,1-4.24.78,1.17,1.17,0,0,1-.92-.51,4.18,4.18,0,0,1-.53-.94,1.29,1.29,0,0,1,0-.7.41.41,0,0,1,.27-.2.38.38,0,0,1,.31.09c.43,1.15,1.35,1.28,2.37,1.13a16.21,16.21,0,0,0,2.3-.49,1.32,1.32,0,0,0,.77-1.78,3.62,3.62,0,0,0-2.35-2.29,1.12,1.12,0,0,1,1,0,3.75,3.75,0,0,1,2.08,2.81A2.18,2.18,0,0,1,247.43,132.63Zm10.51-4.29a6.31,6.31,0,0,1-5.8,1.35,3.36,3.36,0,0,1-2-1.52.87.87,0,0,1-.17-.51,9.74,9.74,0,0,1,.13-1.62c0-.2.28-.37.44-.54a.17.17,0,0,1,.17,0c.09,0,.25.11.25.18,0,.42,0,.84,0,1.26a1.58,1.58,0,0,0,.88,1.3,2.17,2.17,0,0,0,.67.28,5.24,5.24,0,0,0,4.59-1.15,1,1,0,0,0,.38-1,9.84,9.84,0,0,0-.31-1.1,12.77,12.77,0,0,1-1.2-.77,3.26,3.26,0,0,0-2-.61,1.13,1.13,0,0,0-1.11.44.46.46,0,0,1-.28-.13.71.71,0,0,1,.22-1,3.59,3.59,0,0,1,3-.1c.44.2.83.52,1.28.69,1.3.49,1.58,1.58,1.68,2.77A1.93,1.93,0,0,1,257.94,128.34Z"/><path class="cls-15" d="M259.14,119.54a.84.84,0,0,1,.18,0,5.44,5.44,0,0,0,1.23.74,9.08,9.08,0,0,0,1.81.11c.37,0,.73,0,1.09,0A2.73,2.73,0,0,0,266,118.9a.43.43,0,0,0,.09-.16,4.12,4.12,0,0,0-.25-2.66c-.24-.42-.56-.79-.83-1.2a.39.39,0,0,1,0-.31.42.42,0,0,1,.31-.15c.59.1,1.18.22,1.78.34.12,0,.26.11.35.07.81-.42,1.21.09,1.58.68a4.07,4.07,0,0,1,.24.54c-.42.13-.8.24-1.18.38a1.14,1.14,0,0,0-.45.31,1.58,1.58,0,0,0-.35.6.65.65,0,0,0,.2.66.46.46,0,0,0,.65,0,1.61,1.61,0,0,1,1.47-.53,6.63,6.63,0,0,1,2.62.7,3.56,3.56,0,0,1,1.44,1.36,1.85,1.85,0,0,1-1.11,2.62c-1.31.19-2.6.57-3.93.87-.6-.18-1-.7-1.48-1.07.24-.38.48-.72.68-1.08a1.26,1.26,0,0,0-.05-1.38c-.2-.3-.37-.62-.76-.71,0,.05-.08.1-.07.15.05.35.31.67.17,1a2,2,0,0,1-1,1,4.9,4.9,0,0,1-3.31.76c-.36,0-.73,0-1.09-.12a3,3,0,0,1-2.51-2.09Z"/><path class="cls-15" d="M243.12,115.15a1.48,1.48,0,0,1-.79-.71,1.71,1.71,0,0,0-.51-.49.41.41,0,0,0-.34,0,.37.37,0,0,0-.2.26,4.46,4.46,0,0,0,.14.71c-.07.09-.14.19-.22.28-.39.44-.39.44-.21,1.11-.06.27-.3.35-.52.41-.53.15-1.07.24-1.59.41a1.43,1.43,0,0,1-1.37-.22,2.83,2.83,0,0,1-1.32-2.07,1.44,1.44,0,0,1,.51-1.3,1.8,1.8,0,0,1,2-.44,4.23,4.23,0,0,0,.87.2.18.18,0,0,0,.15-.08.68.68,0,0,0,0-.34.64.64,0,0,0-.22-.27c-.26-.15-.61-.27-.54-.63a1.67,1.67,0,0,1,.4-.78,4.71,4.71,0,0,1,2-1.23,1.39,1.39,0,0,1,1.86,1c.09.29.11.59.19.88a.45.45,0,0,0,.75.12,2.88,2.88,0,0,0,.33-.43c.15-.22.32-.38.59-.23s.34.56,0,.91-.69.84-1,1.26a.94.94,0,0,1-.1.23c-.75.12-.78.13-.86.63-.05.29-.06.58-.09.87Z"/><path class="cls-15" d="M235.76,120.16v.73a1.68,1.68,0,0,1-1.14,1.68c-.56.23-1.11.49-1.66.74a2.23,2.23,0,0,1-1.25.15,1.16,1.16,0,0,1-.78-.41,4,4,0,0,0-.64-.87,2.83,2.83,0,0,1-.83-2.31,1.67,1.67,0,0,1,.17-.69,7.67,7.67,0,0,1,.45-.79,1.81,1.81,0,0,1,1.82-1,24.11,24.11,0,0,1,2.52.32,1.74,1.74,0,0,1,1.35,1.69c0,.25,0,.49,0,.73Z"/><path class="cls-15" d="M244,113.68a.94.94,0,0,0,.1-.23,3.67,3.67,0,0,1,2.64-.31c.3.06.6.1.9.14a2.85,2.85,0,0,1,1.86,1c.28.31.44.73.88.89l0,0c0,.23-.09.47-.16.7a2.25,2.25,0,0,1-1.76,1.61,21.82,21.82,0,0,0-2.4.66c-1.9.61-2.6,0-3-1.91a3.53,3.53,0,0,1,.1-1.06l0,0Z"/><path class="cls-15" d="M222.87,118.59l-.53.33a5.27,5.27,0,0,1-3.67.53.74.74,0,0,1-.46-.26,1.65,1.65,0,0,1,.18-2.26,6.22,6.22,0,0,1,2.39-1.21,1.74,1.74,0,0,1,.87-.06c.17,0,.26.37.39.56s.12.25.21.29C223.28,116.91,223.05,117.7,222.87,118.59Z"/><path class="cls-15" d="M258.77,114.31a2.67,2.67,0,0,1,.12,1.64,1.71,1.71,0,0,1-.45.52s-.11,0-.17.06c-2.4.66-3.66-.87-4.1-3.13a.63.63,0,0,1,.5-.66,9.74,9.74,0,0,1,1.43-.12,1.27,1.27,0,0,1,.67.24C257.41,113.3,258,113.77,258.77,114.31Z"/><path class="cls-15" d="M232.48,114.34c0-.38,0-.62.05-.86a.86.86,0,0,0-.39-.76,2.44,2.44,0,0,1-.6-.64.34.34,0,0,1,.09-.31,1.26,1.26,0,0,1,.48-.23,4.11,4.11,0,0,1,2,.09,12.07,12.07,0,0,1,1.54.51.76.76,0,0,1,.25,1.31.74.74,0,0,1-.13.12,2,2,0,0,0-1.1,2.1.45.45,0,0,1-.45.47,4.42,4.42,0,0,1-.89,0,.85.85,0,0,1-.73-.7C232.52,115,232.5,114.62,232.48,114.34Z"/><path class="cls-15" d="M259.16,119.53a2.26,2.26,0,0,1-1-1.2c0-.07.08-.2.16-.38a4.19,4.19,0,0,1,.86,1.59Z"/><path class="cls-15" d="M242.11,121.1a3,3,0,0,1,2.2.63c.44.32.9.6,1.35.91a2.55,2.55,0,0,1,1,1.49.6.6,0,0,1-.23.65,3.55,3.55,0,0,1-2.66.91,1.45,1.45,0,0,0-.36,0,4.65,4.65,0,0,1-3.75-1.47,1.64,1.64,0,0,1,.13-2.39c.15-.1.31-.19.47-.28A2.39,2.39,0,0,1,242.11,121.1Z"/><path class="cls-15" d="M230.25,131.89h-.9a1.79,1.79,0,0,1-1.28-.59.89.89,0,0,1-.2-1c.13-.27.28-.53.41-.8a1.32,1.32,0,0,1,.83-.65,11,11,0,0,1,4.27-.52,1.44,1.44,0,0,1,1.16,1.22.81.81,0,0,1-.26.63,16.83,16.83,0,0,1-2.43,1.54,4.86,4.86,0,0,1-1.59.21Z"/><path class="cls-16" d="M284.32,130.25a1.26,1.26,0,0,0-.19-1.52c-.86-.94-1.72-1.87-2.57-2.81a1.45,1.45,0,0,1-.38-.6,3.58,3.58,0,0,0-1.71-2.25,31.58,31.58,0,0,1-3.14-2.5,9.2,9.2,0,0,1-1.54-1.75,4.87,4.87,0,0,0-3-2.28c-.29-.07-.7-.16-.8-.37-.3-.58-.89-.74-1.33-1.11a8.24,8.24,0,0,1-1.21-1.36.85.85,0,0,1-.13-.68,17.87,17.87,0,0,1,1.45-4.3,9.28,9.28,0,0,0,1-2.72,5.4,5.4,0,0,1,.34-1c.6-1.33,3.74-10.74,4.14-11.57s.68-1.42,1-2.13a1.56,1.56,0,0,0,.07-1.41,4.35,4.35,0,0,1-.32-1.78c0-.72-.08-1.45-.14-2.18a.5.5,0,0,0-.64-.46.72.72,0,0,1-.92-.3.54.54,0,0,0-.64-.24,8.26,8.26,0,0,1-2.71.23l-4.55.06a6.67,6.67,0,0,0-1.27.12,7.76,7.76,0,0,1-3.77,0,5.84,5.84,0,0,0-1.45-.12c-2.13,0-4.25,0-6.38,0a5.4,5.4,0,0,0-1.45.1,10.8,10.8,0,0,1-2.89.3,3.94,3.94,0,0,0-1.08.12,13.21,13.21,0,0,1-2.34.34c-1.51.13-3,.31-4.53.44-1.21.1-2.43.17-3.64.25l-2.18.12c-1.21.08-2.42.18-3.63.28a12.64,12.64,0,0,0-1.63.13c-1.9.42-3.88.26-5.77.79a3.89,3.89,0,0,1-.91,0,13.28,13.28,0,0,0-5.31,1.09,3.6,3.6,0,0,1-1,.33A6.4,6.4,0,0,0,213.94,91a11,11,0,0,1-1.05.74,10,10,0,0,0-3,2.88,6.27,6.27,0,0,0-.42.59A6.82,6.82,0,0,1,208,96.79c-.52.41-1.1.79-.87,1.64,0,.18-.16.43-.27.65-.35.7-.74,1.39-1.08,2.1a35.07,35.07,0,0,0-1.79,4.56,13.48,13.48,0,0,0-.75,3.92c0,1.94,0,3.89,0,5.83a10,10,0,0,0,.65,4.1,12.31,12.31,0,0,1,.47,1.57,6.37,6.37,0,0,0,1.43,2.91,2.39,2.39,0,0,1,.62,1.84c0,.37,0,.73,0,1.1a14.48,14.48,0,0,0,.39,4.15c.31,1.49.6,3,.86,4.48.86,5,1.71,10.05,2.58,15.08a5.18,5.18,0,0,0,.32,1.23,4.31,4.31,0,0,1,.38,2.12,1.91,1.91,0,0,0,.86,1.69c1.54,1.29,3.07,2.59,4.52,4,1.72,1.64,3.51,3.19,5.34,4.7a22,22,0,0,0,2.63,1.94,4.08,4.08,0,0,1,2.06,2.22,1.19,1.19,0,0,0,.09.15.54.54,0,0,0,.67.06c.17-.16.31-.36.48-.55a7.32,7.32,0,0,1,2.83-.5,2.49,2.49,0,0,0,1.87-.52,1.37,1.37,0,0,1,.69-.2l1.62-.22,8.09-1.3a13.79,13.79,0,0,0,3.52-.89,8.39,8.39,0,0,1,1.39-.46q3.7-.93,7.42-1.82a20.42,20.42,0,0,1,2.68-.51c1.87-.2,3.74-.47,5.6-.75a45.4,45.4,0,0,1,8-.58,2.14,2.14,0,0,1,1.51.48.78.78,0,0,0,1.11-.23,2.48,2.48,0,0,0,.27-.47c.16-.52.33-1.05.45-1.58a27,27,0,0,1,1.3-4.73,8.23,8.23,0,0,0,.38-1.22c.53-2.05,1.05-4.11,1.59-6.17.38-1.46.76-2.93,1.21-4.38.4-1.27.9-2.51,1.37-3.76a4.57,4.57,0,0,1,1.72-2.51l.7-.59a.8.8,0,0,0,.28-1,1.61,1.61,0,0,1,0-1.06A13.44,13.44,0,0,1,284.32,130.25ZM269,115.51a4.07,4.07,0,0,1,.24.54c-.42.13-.8.24-1.18.38a1.14,1.14,0,0,0-.45.31,1.58,1.58,0,0,0-.35.6.65.65,0,0,0,.2.66.46.46,0,0,0,.65,0,1.61,1.61,0,0,1,1.47-.53,6.63,6.63,0,0,1,2.62.7,3.56,3.56,0,0,1,1.44,1.36,1.85,1.85,0,0,1-1.11,2.62c-1.31.19-2.6.57-3.93.87-.6-.18-1-.7-1.48-1.07.24-.38.48-.72.68-1.08a1.26,1.26,0,0,0-.05-1.38c-.2-.3-.37-.62-.76-.71,0,.05-.08.1-.07.15.05.35.31.67.17,1a2,2,0,0,1-1,1,4.9,4.9,0,0,1-3.31.76c-.36,0-.73,0-1.09-.12a3.06,3.06,0,0,1-2.5-2.07h0v0a2.23,2.23,0,0,1-1-1.18c0-.07.08-.2.16-.38a4.45,4.45,0,0,1,.86,1.56s0,0,0,0v0a.36.36,0,0,1,.15,0,5.44,5.44,0,0,0,1.23.74,9.08,9.08,0,0,0,1.81.11c.37,0,.73,0,1.09,0A2.73,2.73,0,0,0,266,118.9a.43.43,0,0,0,.09-.16,4.12,4.12,0,0,0-.25-2.66c-.24-.42-.56-.79-.83-1.2a.39.39,0,0,1,0-.31.42.42,0,0,1,.31-.15c.59.1,1.18.22,1.78.34.12,0,.26.11.35.07C268.18,114.41,268.58,114.92,269,115.51Zm-14.78-2.11a.63.63,0,0,1,.5-.66,9.74,9.74,0,0,1,1.43-.12,1.27,1.27,0,0,1,.67.24c.64.44,1.26.91,2,1.45a2.67,2.67,0,0,1,.12,1.64,1.71,1.71,0,0,1-.45.52s-.11,0-.17.06C255.87,117.19,254.61,115.66,254.17,113.4Zm14.55-8.89a18.31,18.31,0,0,0-.56,2.86,9.06,9.06,0,0,1-.36,1.78c-.24.88-.54,1.74-.82,2.6-.19.57-.49.73-1.11.61-.24,0-.46-.18-.7-.21s-.47.12-.74-.13a8.05,8.05,0,0,1,.39-1.89c.77-2.55,1.54-5.11,2.34-7.66.4-1.27.82-2.54,1.29-3.78A20,20,0,0,1,271.16,94s.1,0,.21-.1c0,.16.11.33.07.46C270.54,97.72,269.62,101.11,268.72,104.51Zm-9.67,2.95-.32-.17a4.77,4.77,0,0,1-2.77-4,7.73,7.73,0,0,1,.8-4.59,28.45,28.45,0,0,1,2.94-4.8,5.14,5.14,0,0,1,2.07-1.73c.82-.38,1.57-.9,2.47-1.42a9.1,9.1,0,0,0,3.58-.71,2.22,2.22,0,0,1,.88-.16c1,0,2.07,0,3.1.06a2.15,2.15,0,0,1,.5.12.67.67,0,0,1-.12.7c-.29.39-.61.76-.9,1.15-1,1.37-2,2.71-3,4.13a24.19,24.19,0,0,0-2.56,6c-.55,1.73-1,3.49-1.56,5.23-.4,1.32-.81,2.63-1.22,4a1.91,1.91,0,0,1-.52-.27,6.89,6.89,0,0,0-2.9-1.81c-.47-.16-.55-.44-.34-1S259.32,107.6,259.05,107.46Zm-1.27,1.62c-.1,0-.19.14-.29.14s-.2-.09-.3-.14l.3-.48ZM274,90.41a.57.57,0,0,1,.45.5,1.37,1.37,0,0,1-.05.53c-1.19,3.69-2.45,7.34-4,10.91a1.11,1.11,0,0,1-.34.3v.06a.49.49,0,0,1,0,.11c0,.16,0,.34,0,.57a.47.47,0,0,1,0-.57.66.66,0,0,0,0-.14l0,0c.07-.4.12-.8.21-1.19.32-1.35.66-2.7,1-4.06a58.53,58.53,0,0,1,2.12-6.74A.53.53,0,0,1,274,90.41Zm-48.56.39a8,8,0,0,0,2.65-.57,3.92,3.92,0,0,1,1.06-.26c1.57-.14,3.14-.29,4.71-.38a36.23,36.23,0,0,0,4.16-.45,14.2,14.2,0,0,1,3.26-.07,3.72,3.72,0,0,0,2.28-.41,4.49,4.49,0,0,1,1.55-.47c2.1-.41,4.23-.39,6.34-.67l2.15-.3a4.7,4.7,0,0,1,.91-.1,19.8,19.8,0,0,0,4.85-.58,1.78,1.78,0,0,1,1.39.16,1.65,1.65,0,0,0,1.41.14,5.78,5.78,0,0,1,1.8-.23,3,3,0,0,0,.9-.11,7.94,7.94,0,0,1,2.7-.27c1.4,0,2.79,0,4.19,0a3.26,3.26,0,0,1,1.06.2.54.54,0,0,1,.37.56c0,.29-.06.58-.11.94-.84,0-1.68.08-2.52.09a17,17,0,0,0-3.62.29,8.73,8.73,0,0,1-1.62,0c-.55-.45-1.16-.23-1.75-.16a15.07,15.07,0,0,0-2.33.36c-.89.26-1.83.13-2.69.41a16.93,16.93,0,0,1-2.63.68,1.55,1.55,0,0,0-1.34.8.82.82,0,0,1-.64.25,27,27,0,0,0-5.59.6A18.36,18.36,0,0,0,245,92a2.44,2.44,0,0,1-1.44.07,12.36,12.36,0,0,0-4-.2,4,4,0,0,1-2.31-.24,1,1,0,0,0-.7,0,8.36,8.36,0,0,1-3.22.45,10.14,10.14,0,0,0-2.5.42c-.6.12-1.18.27-1.78.4a1.35,1.35,0,0,1-.71.06,4.55,4.55,0,0,0-2.45-.09c-.67-.47-.71-1.15-.89-1.83C225.14,91,225.28,90.8,225.42,90.8Zm29,1.45a1,1,0,0,1-.3.43,12.51,12.51,0,0,1-1.46.74,8.83,8.83,0,0,1-5.11.83c-.78,0-1.06-.25-1.59-1.27a2.07,2.07,0,0,1,.64-.3c1.55-.24,3.1-.47,4.65-.74a15.76,15.76,0,0,1,3.07,0A.38.38,0,0,1,254.39,92.25Zm-29.5,3.35a1.62,1.62,0,0,1,1.39-1c1.68-.21,3.33-.62,5-.78,1.14-.1,2.26-.44,3.39-.65a3,3,0,0,1,2.29.18,6.85,6.85,0,0,0,1.44-.07,9.66,9.66,0,0,1,3.26-.11,18.87,18.87,0,0,0,2.15.33,1.08,1.08,0,0,1,.91.52c.17.25.34.51.53.74a2,2,0,0,0,1.74.81c.85,0,1.7,0,2.55,0A5.14,5.14,0,0,0,252.2,95a19.41,19.41,0,0,1,2.4-.83,1.8,1.8,0,0,0,1.3-1.38,10.41,10.41,0,0,1,.51-1.55,1.18,1.18,0,0,1,.95-.77c.71-.11,1.45-.12,2.15-.3a12.86,12.86,0,0,0,2.24-.61A2.84,2.84,0,0,1,260.36,91a9.75,9.75,0,0,0-1.19.83,3.43,3.43,0,0,0-1.37,2.28,3.94,3.94,0,0,1-.7,1.66,22.07,22.07,0,0,0-1.28,2.2,10.26,10.26,0,0,0-1.07,5.65,25.18,25.18,0,0,0,.65,2.83c.06.28.3.55.12.86-.12,0-.24.08-.33,0-.85-.33-1.72-.62-2.53-1a3.8,3.8,0,0,0-2.11-.37c-.43,0-.85.07-1.27.14q-4,.61-8.13,1.07c-1.92.21-3.84.58-5.76.85-1.44.21-2.89.4-4.33.57-2.78.32-5.55.68-8.29,1.23-1,.2-2,.54-3,.84a2.24,2.24,0,0,0-.59.39c-.14.11-.07.35.13.42a1.26,1.26,0,0,0,.34,0,0,0,0,0,1,0,0l.07,0A29.35,29.35,0,0,1,226.8,110c2.11-.17,4.22-.41,6.32-.67,1.87-.23,3.72-.53,5.58-.8,1.26-.18,2.52-.37,3.78-.54q2.7-.37,5.4-.72c.05,0,.11,0,.18.07-.14.62-.42,1.09-1.16,1.08-.24,0-.48,0-.72,0a2,2,0,0,0-1.5.53,1,1,0,0,1-1.17.25,5.74,5.74,0,0,0-3.57-.1,1,1,0,0,0-.91.78,1.39,1.39,0,0,1-.09.35,3.32,3.32,0,0,0-.65,2c0,.23-.56.44-.75.27a4.18,4.18,0,0,1-.62-.64,1.86,1.86,0,0,0-1.17-.8c-.29-.07-.58-.16-.87-.26A4.53,4.53,0,0,0,231,111a1.88,1.88,0,0,1-1.42.11c-.46-.11-.94-.24-1.41-.32a6.57,6.57,0,0,0-4.91,1.5,2.5,2.5,0,0,0-1,1.29c-.07.23-.15.45-.25.71a6.55,6.55,0,0,0-2.09.57c-.62.37-1.29.65-2,1,0-.59.21-.93,1.1-2.21a8.4,8.4,0,0,0,1.28-1.89.87.87,0,0,0-.65-.27h-.06c0,.11.06.24,0,.32a6.81,6.81,0,0,1-2,2.1,1.91,1.91,0,0,1-.85.29c-.14,0-.31-.12-.45-.2a.3.3,0,0,0-.45.1,1.12,1.12,0,0,0-.15.49c0,.08.14.21.23.23.3.06.6.09.94.13a1.56,1.56,0,0,1-.18.49c-.43.5-.9,1-1.34,1.49a5,5,0,0,0-.63.88,8,8,0,0,1-.38,1c-.42.58-.92,1.11-1.46,1.76-.05-.27-.13-.43-.09-.56.63-1.9,1.48-3.72,2.27-5.56.35-.84.67-1.69,1-2.52a9.82,9.82,0,0,1,.84-1.61,21.38,21.38,0,0,0,1.84-3.35c.82-1.83,1.7-3.63,2.53-5.45.38-.83.69-1.69,1.06-2.52a2.26,2.26,0,0,1,.56-.91A6.43,6.43,0,0,0,224.89,95.6Zm10.85,18a2,2,0,0,0-1.1,2.1.45.45,0,0,1-.45.47,4.42,4.42,0,0,1-.89,0,.85.85,0,0,1-.73-.7c0-.42-.07-.84-.09-1.12s0-.62.05-.86a.86.86,0,0,0-.39-.76,2.44,2.44,0,0,1-.6-.64.34.34,0,0,1,.09-.31,1.26,1.26,0,0,1,.48-.23,4.11,4.11,0,0,1,2,.09,12.07,12.07,0,0,1,1.54.51.76.76,0,0,1,.25,1.31A.74.74,0,0,1,235.74,113.57Zm0,6.59h0v.73a1.68,1.68,0,0,1-1.14,1.68c-.56.23-1.11.49-1.66.74a2.23,2.23,0,0,1-1.25.15,1.16,1.16,0,0,1-.78-.41,4,4,0,0,0-.64-.87,2.83,2.83,0,0,1-.83-2.31,1.67,1.67,0,0,1,.17-.69,7.67,7.67,0,0,1,.45-.79,1.81,1.81,0,0,1,1.82-1,24.11,24.11,0,0,1,2.52.32,1.74,1.74,0,0,1,1.35,1.69C235.78,119.68,235.77,119.92,235.77,120.16Zm-12.9-1.57-.53.33a5.27,5.27,0,0,1-3.67.53.74.74,0,0,1-.46-.26,1.65,1.65,0,0,1,.18-2.26,6.22,6.22,0,0,1,2.39-1.21,1.74,1.74,0,0,1,.87-.06c.17,0,.26.37.39.56s.12.25.21.29C223.28,116.91,223.05,117.7,222.87,118.59ZM221.59,93.2a2.67,2.67,0,0,1,.5-.51c.88.43,1.14,1.27,1.64,2a8.92,8.92,0,0,1-1,1.75,20.33,20.33,0,0,0-1.57,2.86c-1.3,2.87-2.59,5.76-4,8.57a63.68,63.68,0,0,0-3.53,8,18,18,0,0,1-2.24,4.53c-.44.65-.75,1.38-1.16,2.06a4.1,4.1,0,0,1-.59.66s-.13,0-.18,0a.23.23,0,0,1-.11-.11,1.89,1.89,0,0,1,0-.53c.11-.59.24-1.18.38-1.77a6.45,6.45,0,0,1,1.1-2.65,3.76,3.76,0,0,0,.64-1.09,43.18,43.18,0,0,1,2.41-5.1,30.47,30.47,0,0,0,1.55-3.68c.89-2.58,1.87-5.13,3-7.62.74-1.66,1.41-3.35,2.14-5C220.81,94.7,221.2,93.94,221.59,93.2ZM207,123a.17.17,0,0,1-.07-.14,3.43,3.43,0,0,1,.75-1.5v-.06h0a1.38,1.38,0,0,1,.05-.51,27.51,27.51,0,0,0,1.43-4.12c1.3-3.92,2.72-7.79,4.33-11.59.26-.61.52-1.23.73-1.86a35.32,35.32,0,0,1,1.64-3.85c.49-1,.91-2.11,1.34-3.18a12.66,12.66,0,0,1,1.09-2.29,3.82,3.82,0,0,0,.63-1.69.2.2,0,0,0-.06-.16c-.1,0-.24,0-.29,0A9,9,0,0,0,216.72,95c-1.12,3-2.59,5.75-3.72,8.69s-2.55,6-3.84,9a9.6,9.6,0,0,0-.71,2.44,3.14,3.14,0,0,1-1.16,2.19,2.11,2.11,0,0,0-.68,1.44.64.64,0,0,0,.33.77.64.64,0,0,1,.42.54,1.64,1.64,0,0,1-.18.69,14.1,14.1,0,0,1-.77,1.23c-.06.08-.21.1-.37.18a4.88,4.88,0,0,1-.4-.79c-.2-.63-.3-1.3-.55-1.91a3,3,0,0,1,.52-3.06c.19-.25.41-.47.34-.79a3,3,0,0,1,.35-1.75c.17-.39.36-.77.56-1.15a11.48,11.48,0,0,0,1-2.54,12.51,12.51,0,0,1,1-2.71,16,16,0,0,0,.92-2.18,19.66,19.66,0,0,1,1.18-2.85c.94-1.84,1.7-3.76,2.78-5.53.12-.2.19-.44.32-.65a1.43,1.43,0,0,0,0-1.39c0-.11,0-.24-.08-.36a2.13,2.13,0,0,0-.82,1.56,2.05,2.05,0,0,1-.44,1.17,57.53,57.53,0,0,0-3.36,6.23,5.66,5.66,0,0,0-.27.68c-.11.28-.19.58-.31.86-.58,1.39-1.28,2.75-1.73,4.19a27.41,27.41,0,0,1-1.69,4.21c-.1.21-.22.41-.31.58s-.32,0-.31-.12c0-.54,0-1.08.09-1.62a3.43,3.43,0,0,0-.34-2.29,1.29,1.29,0,0,1-.17-.69,8.43,8.43,0,0,1,.65-3.37c.62-1.32,1.25-2.63,1.88-3.94a6,6,0,0,1,.94-1.55,2.19,2.19,0,0,0,.5-.75,5.35,5.35,0,0,1,1.33-1.92c.61-.67,1.2-1.37,1.77-2.07a6.93,6.93,0,0,1,2.67-2.1c.33.35.07.65-.09,1a2.17,2.17,0,0,0,.56-.9,2.57,2.57,0,0,1,1-1.28,1.34,1.34,0,0,1,1.32-.18l.16-.29a2.87,2.87,0,0,1,2.5-1.57c.92-.08,1,.26.9,1.1a2.75,2.75,0,0,1-.34.84c-.26.47-.56.93-.86,1.43a1.84,1.84,0,0,1,.08,1.85c-.43,1.07-.9,2.13-1.35,3.19-.74,1.73-1.46,3.47-2.23,5.19-.6,1.32-1.31,2.6-1.82,4a9.27,9.27,0,0,0-.92,2.55.86.86,0,0,1-.26.46,7.26,7.26,0,0,0-1.49,2.89A33.46,33.46,0,0,1,209.6,118c-.41,1-.79,1.91-1.2,2.86a.67.67,0,0,1-.68.45v0s0,0,0,0a2.17,2.17,0,0,1-.39,1.6C207.27,123.05,207.12,123,207,123Zm.59,3.42a.41.41,0,0,1,.44-.23,4.79,4.79,0,0,1,1.66,1.09,18.64,18.64,0,0,0,1.48,1.34,50.39,50.39,0,0,1,5.67,4.85,1.57,1.57,0,0,0,1.07.61l0,0c.36-.33.36-.33.76,0l.34.31a1,1,0,0,1,.73.39h0l0,.05a2.12,2.12,0,0,1,1.4.95c0,.06,0,.2-.06.34a4.85,4.85,0,0,1-1.23-1,.73.73,0,0,1-.11-.27l0,0,0,0-.68,0a9.09,9.09,0,0,0,2.52,2.5c1,.64,1.89,1.31,2.85,2,.08,1.19,0,2.33,0,3.57a2.71,2.71,0,0,1-.76-.21,12.37,12.37,0,0,1-1-.79l-3.93-3.24-1.1-1c-.14-.12-.26-.25-.39-.38a60.43,60.43,0,0,0-7.71-6.94,8.25,8.25,0,0,1-1.89-2A6.68,6.68,0,0,1,207.61,126.45Zm18.54,39.15c-.17.05-.32.15-.39.11a8.16,8.16,0,0,1-3-2.27s0-.1,0-.15h0l0,0c-.13,0-.27,0-.35-.12s.09-.07.11-.05a2.07,2.07,0,0,1,.24.17h.06v0l.48,0c0-.14,0-.29,0-.34-.34-.34-.71-.66-1.08-1-1-.86-2.07-1.68-3.06-2.58a54.76,54.76,0,0,0-5.41-4.32c-.45-.31-.88-.64-1.22-.89-.23-.88-.45-1.63-.62-2.39q-.39-1.87-.72-3.75c-.57-3.23-1.13-6.47-1.68-9.7-.1-.54-.17-1.08-.22-1.62a1.1,1.1,0,0,1,.14-.49c.05-.11.45,0,.64.23a6.5,6.5,0,0,1,.59.69,12.21,12.21,0,0,0,2.16,2.21,20.47,20.47,0,0,1,1.55,1.54c1.84,2,3.67,4.06,5.5,6.08.33.36.65.74,1,1.07a14.73,14.73,0,0,1,2.22,2.64,5.65,5.65,0,0,0,.71.83.48.48,0,0,0,.65.05.38.38,0,0,0,0-.49,17.56,17.56,0,0,0-2.44-3.39c-2-2.11-4-4.29-5.93-6.43a21.6,21.6,0,0,0-3.41-3.28,4.51,4.51,0,0,1-.9-.9,8.33,8.33,0,0,0-2.11-2,2.37,2.37,0,0,1-1.11-1.79c-.08-.73-.25-1.44-.37-2.15,0-.25.07-.45.2-.42a.68.68,0,0,1,.33.1c1.71,1.55,3.62,2.87,5.21,4.56.7.76,1.46,1.46,2.18,2.21a20.87,20.87,0,0,0,2.86,2.53,1.6,1.6,0,0,1,.81,1.34,1.54,1.54,0,0,0,.78,1.16,33.8,33.8,0,0,1,3.79,3.68s0,.2-.09.29-.13,0-.16,0c-.53-.4-1.06-.8-1.57-1.22s-.81-.74-1.24-1.07a4.9,4.9,0,0,0-1-.49c-.07,0-.19.07-.28.14s0,.13,0,.17a38.93,38.93,0,0,0,3.26,3.16c.65.55,1.26,1.15,1.87,1.74a1.36,1.36,0,0,1,.42,1c.07,2.24.39,4.47.36,6.73,0,1.51.11,3,.22,4.55A27.23,27.23,0,0,1,226.15,165.6ZM279,138.16a13.5,13.5,0,0,0-1.4.09c-.47.07-.94.2-1.41.31a.65.65,0,0,0-.32.16c-.11.13-.26.29-.25.44a.52.52,0,0,0,.31.37,2.49,2.49,0,0,0,1.43-.05,5.46,5.46,0,0,1,.88-.17c.09,0,.2.11.33.2a52.35,52.35,0,0,1-1.67,5.4,24.61,24.61,0,0,1-4,.38,12.64,12.64,0,0,0-4,.33,2,2,0,0,1-.55,0,25.68,25.68,0,0,0-5.43,1,3.21,3.21,0,0,0,.64.21,4.35,4.35,0,0,0,.72,0,33.23,33.23,0,0,1,5.06-.58c2.16-.48,4.37-.14,6.54-.42a.43.43,0,0,1,.34.05.66.66,0,0,1,.28.4,3,3,0,0,1-.16.89,78.59,78.59,0,0,1-2.36,7.65c-.17.45-.25.94-.39,1.4-.22.76-.45,1.51-.69,2.26a1,1,0,0,1-.8.66,3.54,3.54,0,0,1-.73.05c-.54,0-1.09,0-1.64,0a46.44,46.44,0,0,0-7.26.56c-1.56.2-3.13.39-4.68.65-1.38.23-2.75.51-4.1.83-2.42.58-4.84,1.16-7.24,1.81a50.62,50.62,0,0,1-5,.91c-2.46.4-4.92.76-7.38,1.16-.89.15-1.78.35-2.67.56a13.25,13.25,0,0,1-3.44.21.58.58,0,0,1-.57-.59c0-.67,0-1.33,0-2,0-.43.25-.61.73-.59,1.09.05,2.18.13,3.28.16a12.42,12.42,0,0,0,2.72-.15c.84-.14,1.69-.19,2.53-.27a8.74,8.74,0,0,0,2.48-.55c.1,0,.16-.16.24-.24-.16-.24-.4-.2-.62-.17-1.69.18-3.4.05-5.08.36a12.2,12.2,0,0,1-1.82.08l-3.82.19a.63.63,0,0,1-.75-.6c-.06-.42-.12-.84-.15-1.27,0-.6-.06-1.21-.09-1.82-.1-2,0-4-.31-6a4.89,4.89,0,0,1,0-.54c0-.5,0-1,.63-1.17-.17-.31-.3-.51-.4-.72a2.29,2.29,0,0,1-.3-.66,7.65,7.65,0,0,1,.2-3.59,2,2,0,0,1,1.54-1.39c.36-.07.72-.17,1.08-.22l6.49-.87c.9-.12,1.8-.26,2.69-.43a49.62,49.62,0,0,1,5.43-.64c1.45-.11,2.89-.34,4.33-.52.55-.07,1.08-.17,1.63-.22.94-.09,1,0,1.36.8.48,1.18,1,2.35,1.49,3.52a.63.63,0,0,0,.56.41,5.69,5.69,0,0,0,1.8,0c1.57-.46,3.18-.73,4.76-1.15a2.63,2.63,0,0,0,2.06-2.65v-2.05c.35-.32.73-.62,1.05-1a2.6,2.6,0,0,1,1.24-.72,61.62,61.62,0,0,1,6-1.4,23.14,23.14,0,0,1,3.8-.42,19.89,19.89,0,0,0,4.85-.72,2.31,2.31,0,0,1,.52,0A3.2,3.2,0,0,1,279,138.16Zm3.32-6.57a11.26,11.26,0,0,0-1.24,2c-.07.2-.34.32-.48.51a5,5,0,0,0-.39.66c-.43,0-.85.1-1.27.11-1.45,0-2.86.48-4.33.39-1.69.46-3.49.36-5.18.95a19.29,19.29,0,0,1-2.31.48c-1,.22-2,.4-3,.71a20.35,20.35,0,0,1-3.53.83c-.42.05-.54.32-.55.8s.36.88.22,1.39c-.23.82-.36,1.66-.58,2.48a.84.84,0,0,1-.47.52,13.67,13.67,0,0,1-5,.8h-.18a.64.64,0,0,1-.54-.44c-.29-1.06-1.08-1.89-1.32-3a.81.81,0,0,0-.69-.54,3.87,3.87,0,0,0-.9-.08c-.85.05-1.71.07-2.55.2-2.16.34-4.33.57-6.51.71a29.06,29.06,0,0,0-3.07.43c-1.55.27-3.11.55-4.68.69a28.31,28.31,0,0,0-2.86.56c-.59.12-1.18.28-1.77.4a1.19,1.19,0,0,1-.92-.08,1.4,1.4,0,0,1,0-.5.76.76,0,0,0-.34-1.07.81.81,0,0,1-.33-.8c.05-.47.12-.95.18-1.39a1.53,1.53,0,0,1,1.09-.19,17.65,17.65,0,0,0,3.63-.18,42,42,0,0,0,6.08-1.13,13,13,0,0,1,2-.36,63.14,63.14,0,0,0,7.73-1.24,27.56,27.56,0,0,1,4-.56,25.25,25.25,0,0,0,4.65-.87,25.28,25.28,0,0,1,3.56-.74c2.33-.4,4.66-.86,7-1.24a8.62,8.62,0,0,1,2.54-.07,6.23,6.23,0,0,0,2.86-.3,6.81,6.81,0,0,1,2.67-.5,1.74,1.74,0,0,0,.72-.09,37.13,37.13,0,0,1,5.5-1.17,3.42,3.42,0,0,0,.34-.13.56.56,0,0,0,.33-.58.53.53,0,0,0-.52-.42l-1.78.33a4.14,4.14,0,0,1-.89.18,5.61,5.61,0,0,0-2.3.48,5.75,5.75,0,0,1-2.69.27,11,11,0,0,0-4.13.27,11.72,11.72,0,0,1-1.44.25c-3.35.57-6.7,1.13-10.05,1.71a11.23,11.23,0,0,0-1.42.32,30.66,30.66,0,0,1-6.44,1.16,20,20,0,0,0-3.59.62,30.29,30.29,0,0,1-4.66.82,23.18,23.18,0,0,0-5.53,1,20.88,20.88,0,0,1-3,.57,24.54,24.54,0,0,1-5.6.57c-.85,0-1.7.09-2.55.14a1,1,0,0,1-1.1-.9,1,1,0,0,0-.27-.64c-.73-.64-1.44-1.31-2.22-1.88a45.61,45.61,0,0,0-5.54-3.49,6.21,6.21,0,0,1-1.48-1.05,17.11,17.11,0,0,0-1.53-1.29,41.25,41.25,0,0,1-4.2-3.48c.22-.48.77-.3,1.2-.66a8.41,8.41,0,0,0,.55-1,5.74,5.74,0,0,1,2.08-2.21c.12-.1.34-.07.5-.15s.5-.18.59-.36a2.86,2.86,0,0,1,2.05-1.45,2.27,2.27,0,0,1,.41.24,3.46,3.46,0,0,0,2.72.8,7.15,7.15,0,0,0,1.8-.19,4.62,4.62,0,0,0,2.32-1.37c.5-.67.17-1.53.14-2.31a20.09,20.09,0,0,0-.27-2.17,1.51,1.51,0,0,1,.68-1.58c1.57-1,2.91-1.83,5.49-.67a11.25,11.25,0,0,0,.6,1.27,9.28,9.28,0,0,0,.84,1v1.67c-.59.28-1.29.21-1.9.45-.24.09-.46.25-.45.5s.21.26.32.38l.14.11c0,.12.06.26,0,.34a5.59,5.59,0,0,0-.7,3.34,4.35,4.35,0,0,0,.41,1.57,2.31,2.31,0,0,0,1.47,1.27,4.21,4.21,0,0,0,3.52-.22c.58-.32,1.18-.63,1.77-.94a1.61,1.61,0,0,0,.84-1.14,9.9,9.9,0,0,0,.15-1.44,14.22,14.22,0,0,0,0-1.46c0-.41,0-.82-.08-1.26.93,0,1.78,0,2.63,0a5.09,5.09,0,0,0,2.81-.61,2.75,2.75,0,0,1,.57-.18c0,.38.07.74.15,1.09a1.61,1.61,0,0,0,2.18,1.35,14,14,0,0,1,2.86-.45,3.07,3.07,0,0,0,2.1-1c.33-.35.66-.71,1-1.07a.82.82,0,0,0,.09-1l-.54-.9h0c0,.22-.09.46-.16.68a2.25,2.25,0,0,1-1.76,1.61,21.82,21.82,0,0,0-2.4.66c-1.9.61-2.6,0-3-1.91a3.53,3.53,0,0,1,.1-1.06,1.48,1.48,0,0,1-.79-.71,1.71,1.71,0,0,0-.51-.49.41.41,0,0,0-.34,0,.37.37,0,0,0-.2.26,4.46,4.46,0,0,0,.14.71c-.07.09-.14.19-.22.28-.39.44-.39.44-.21,1.11-.06.27-.3.35-.52.41-.53.15-1.07.24-1.59.41a1.43,1.43,0,0,1-1.37-.22,2.83,2.83,0,0,1-1.32-2.07,1.44,1.44,0,0,1,.51-1.3,1.8,1.8,0,0,1,2-.44,4.23,4.23,0,0,0,.87.2.18.18,0,0,0,.15-.08.68.68,0,0,0,0-.34.64.64,0,0,0-.22-.27c-.26-.15-.61-.27-.54-.63a1.67,1.67,0,0,1,.4-.78,4.71,4.71,0,0,1,2-1.23,1.39,1.39,0,0,1,1.86,1c.09.29.11.59.19.88a.45.45,0,0,0,.75.12,2.88,2.88,0,0,0,.33-.43c.15-.22.32-.38.59-.23s.34.56,0,.91-.69.84-1,1.26a3.67,3.67,0,0,1,2.64-.31c.3.06.6.1.9.14a2.85,2.85,0,0,1,1.86,1c.27.3.44.7.85.87v0l0,0h0a1.41,1.41,0,0,0-.49-1.48c-.24-.19-.46-.4-.68-.6a1.45,1.45,0,0,0-.83-.33c-.47,0-.95-.16-1.41-.24a4.27,4.27,0,0,0-1.51-2.62c.05-.09.09-.24.18-.27a2.05,2.05,0,0,1,2.06.12,1,1,0,0,0,.45.26.56.56,0,0,0,.45-.19c.18-.44.3-.9.44-1.34.37-.19.7-.34,1-.52a3.55,3.55,0,0,1,3.16-.2l.51.18a3.44,3.44,0,0,1,2.38,2.73,1.4,1.4,0,0,0,.15.33,1.83,1.83,0,0,0,1.2.31.48.48,0,0,0,.51-.42.49.49,0,0,1,.51-.57c1.59-.19,3.64,1.46,4,3.38.09.54.15,1.08.24,1.62.06.35.34.5.68.27s.52-.22.76,0a2.47,2.47,0,0,1,.73,2.33,1.52,1.52,0,0,1-1.29,1.11,14.24,14.24,0,0,0-1.46,0,2.12,2.12,0,0,1-2-1,1.11,1.11,0,0,1-.28-1.17,3.73,3.73,0,0,0,.17-1.06.84.84,0,0,0-.07-.53,17.85,17.85,0,0,0-1.5-2.24c-.25-.25-.59-.43-.84-.7a2.26,2.26,0,0,0-2.52-.48,4.38,4.38,0,0,0-.83.37c-.79.38-.79.43-.74,1.39a6,6,0,0,0,.32,2,3.66,3.66,0,0,0,2.24,2.24l.71.26a17.42,17.42,0,0,0,2,3.24,3.44,3.44,0,0,0,2.57,1.53,7.08,7.08,0,0,1,.9.16,4.48,4.48,0,0,0,2.51-.18c.33-.13.69-.21,1.08-.33,1.2.26,1.85,1.22,2.61,2a9.07,9.07,0,0,1-.55,1.26,1.67,1.67,0,0,1-1.47.92c-.73,0-1.46,0-2.18,0a2.23,2.23,0,0,1-1.93-.82c-.06-.08-.22-.07-.33-.1,0,.16-.16.34-.13.48A1.53,1.53,0,0,0,263,127.7a8.78,8.78,0,0,0,1.24.25c.48,0,1,0,1.46,0,1.8,0,1.8,0,3.13-1.09.18-.15.41-.33.46-.54a15.09,15.09,0,0,1,1.46-2.61c.66-.13,1.36-.31,2.08-.39a5.17,5.17,0,0,0,2-.93,2.91,2.91,0,0,1,.66.35c.41.36.78.76,1.17,1.14a1.37,1.37,0,0,1,.4,1,1.74,1.74,0,0,1-1.68,2c-.54.07-1.09.09-1.63.14a1.1,1.1,0,0,0-.82.33c.07.09.12.23.21.25a4.56,4.56,0,0,0,3.7-.22,1.88,1.88,0,0,0,1.08-1.57c.05-.66,0-1.34,0-2.06a1.5,1.5,0,0,1,.55.12,1.77,1.77,0,0,1,.52.5,34.35,34.35,0,0,0,4,4.89,1.41,1.41,0,0,1,.19.35A4.15,4.15,0,0,1,282.36,131.59Z"/><path class="cls-10" d="M219,134.84a1.16,1.16,0,0,1-1.11-.73l0,0h.76l.34.31v.43Z"/><path class="cls-10" d="M242.9,120.4a8.83,8.83,0,0,1,3.5,1.72,3.16,3.16,0,0,1,1.24,2.33,1.17,1.17,0,0,1-.47,1.12,18.36,18.36,0,0,1-1.68,1.07,2.12,2.12,0,0,1-.86.23c-.54,0-1.08,0-1.63,0-2,0-1.77.17-3.65-1.18a9.37,9.37,0,0,1-.85-.68,2.07,2.07,0,0,1-.68-1.44,4.24,4.24,0,0,1,.4-2.11.94.94,0,0,1,.32-.43,6.87,6.87,0,0,1,3.7-1.3,2,2,0,0,1,.52.14C243,120,242.89,120.22,242.9,120.4Zm-.79.7a2.39,2.39,0,0,0-1.88.45c-.16.09-.32.18-.47.28a1.64,1.64,0,0,0-.13,2.39,4.65,4.65,0,0,0,3.75,1.47,1.45,1.45,0,0,1,.36,0,3.55,3.55,0,0,0,2.66-.91.6.6,0,0,0,.23-.65,2.55,2.55,0,0,0-1-1.49c-.45-.31-.91-.59-1.35-.91A3,3,0,0,0,242.11,121.1Z"/><path class="cls-10" d="M230.37,133.1a4.86,4.86,0,0,0-.56,0A3.21,3.21,0,0,1,227,132a1.14,1.14,0,0,1-.36-.61,10.8,10.8,0,0,1,.06-1.8,1.15,1.15,0,0,1,.38-.61,4.83,4.83,0,0,1,1.87-1.09c.52-.17,1.05-.3,1.57-.49a6.89,6.89,0,0,1,3.06-.18,2.68,2.68,0,0,1,2.12,2.23,1.91,1.91,0,0,1-.79,1.75c-.43.33-.95.55-1.37.89A4.11,4.11,0,0,1,230.37,133.1Zm-.12-1.21v.05a4.86,4.86,0,0,0,1.59-.21,16.83,16.83,0,0,0,2.43-1.54.81.81,0,0,0,.26-.63,1.44,1.44,0,0,0-1.16-1.22,11,11,0,0,0-4.27.52,1.32,1.32,0,0,0-.83.65c-.13.27-.28.53-.41.8a.89.89,0,0,0,.2,1,1.79,1.79,0,0,0,1.28.59Z"/><path class="cls-10" d="M257.21,125.26a12.77,12.77,0,0,1-1.2-.77,3.26,3.26,0,0,0-2-.61,1.13,1.13,0,0,0-1.11.44.46.46,0,0,1-.28-.13.71.71,0,0,1,.22-1,3.59,3.59,0,0,1,3-.1c.44.2.83.52,1.28.69,1.3.49,1.58,1.58,1.68,2.77a1.93,1.93,0,0,1-.8,1.75,6.31,6.31,0,0,1-5.8,1.35,3.36,3.36,0,0,1-2-1.52.87.87,0,0,1-.17-.51,9.74,9.74,0,0,1,.13-1.62c0-.2.28-.37.44-.54a.17.17,0,0,1,.17,0c.09,0,.25.11.25.18,0,.42,0,.84,0,1.26a1.58,1.58,0,0,0,.88,1.3,2.17,2.17,0,0,0,.67.28,5.24,5.24,0,0,0,4.59-1.15,1,1,0,0,0,.38-1A9.84,9.84,0,0,0,257.21,125.26Z"/><path class="cls-10" d="M254.33,138.71a1.91,1.91,0,0,1,.51-1.49,1.73,1.73,0,0,1,2.78.33,3.13,3.13,0,0,1,.33.83c0,.23.06.56-.07.69a3.22,3.22,0,0,0-.57,2.4,3.68,3.68,0,0,1-.14.88c-.05.15-.23.35-.37.36a2,2,0,0,1-1.5-.44.48.48,0,0,1-.17-.31,3.35,3.35,0,0,1-.07-.71,1.62,1.62,0,0,0-.35-1.18A1.94,1.94,0,0,1,254.33,138.71Z"/><path class="cls-10" d="M220.17,123.16a10.37,10.37,0,0,0-2.72.24c-.07,0-.2-.09-.28-.17s0-.38.11-.47a2.85,2.85,0,0,1,1.52-.58c1,0,1.94-.05,2.91,0a3.1,3.1,0,0,1,1,.33,1,1,0,0,1,.47.92,2.45,2.45,0,0,1-1.27,2.07,8.66,8.66,0,0,1-2.19.88.79.79,0,0,1-.82-.26c-.06-.07-.08-.26,0-.3a2.35,2.35,0,0,1,.58-.41c.66-.31,1.33-.58,2-.89a1.17,1.17,0,0,0,.57-.68c.09-.25,0-.57-.24-.58Z"/><path class="cls-10" d="M245.44,127.72a1.12,1.12,0,0,1,1,0,3.75,3.75,0,0,1,2.08,2.81,2.18,2.18,0,0,1-1.13,2.11,9.21,9.21,0,0,1-4.24.78,1.17,1.17,0,0,1-.92-.51,4.18,4.18,0,0,1-.53-.94,1.29,1.29,0,0,1,0-.7.41.41,0,0,1,.27-.2.38.38,0,0,1,.31.09c.43,1.15,1.35,1.28,2.37,1.13a16.21,16.21,0,0,0,2.3-.49,1.32,1.32,0,0,0,.77-1.78A3.62,3.62,0,0,0,245.44,127.72Z"/><path class="cls-10" d="M224.43,131.89l-1.56.37a.53.53,0,0,0-.25.75,1.39,1.39,0,0,0,1.16.76c.6,0,1.2,0,1.8,0,0,0,.13.05.13.09a.65.65,0,0,1,0,.34.58.58,0,0,1-.24.25,2.73,2.73,0,0,1-3.64-1,2,2,0,0,1,0-1.75.62.62,0,0,1,.59-.36A3.38,3.38,0,0,1,224.43,131.89Z"/><path class="cls-10" d="M238.77,157.46c-.23-.05-.49,0-.7-.28a3,3,0,0,1,.58-.38,9.82,9.82,0,0,1,2.83-.67,14.46,14.46,0,0,0,4.25-.94,11.36,11.36,0,0,1,3-.58c2.61-.28,5.16-.83,7.74-1.25,1.19-.2,2.39-.39,3.59-.57,1.75-.25,3.49-.55,5.24-.71a18.68,18.68,0,0,1,5.63.24c.1,0,.19.12.34.22-.15.1-.28.24-.42.25a19.14,19.14,0,0,1-2.71.27,37.55,37.55,0,0,0-6,.52c-1.14.15-2.28.29-3.42.48-1.8.3-3.59.64-5.39.93-1.55.26-3.12.49-4.68.68a18.73,18.73,0,0,0-3.39.7,14.69,14.69,0,0,1-4.12.63,19.91,19.91,0,0,0-2.16.27c-.1,0-.19.14-.29.21Z"/><path class="cls-10" d="M251,158.43c.16-.17.25-.36.4-.42a8.75,8.75,0,0,1,1.55-.5c2.45-.46,4.9-.86,7.35-1.32a24,24,0,0,1,5.61-.53,2.36,2.36,0,0,0,1.73-.39,1.71,1.71,0,0,1,1-.22c.67,0,1.33.14,2,.22,0,0,.13.1.12.13s-.09.24-.16.25a2.41,2.41,0,0,0-1.45.65,1.32,1.32,0,0,1-.84.27,21.78,21.78,0,0,1-2.55.13,26.69,26.69,0,0,0-6,.55c-2.27.42-4.53.86-6.83,1.06-.48,0-.95.2-1.43.27A1.76,1.76,0,0,1,251,158.43Z"/><path class="cls-10" d="M231.27,153c.13-.25.38-.23.6-.24a36.7,36.7,0,0,0,8.58-1.53,35.49,35.49,0,0,1,4-.64c.23,0,.49,0,.72-.07a17.71,17.71,0,0,1,6.16.11c.05,0,.1.06.21.14a1.58,1.58,0,0,1-.42.2c-1.39.13-2.78.22-4.17.39a55.42,55.42,0,0,0-7.55,1.2,20.53,20.53,0,0,1-7.77.58A2.22,2.22,0,0,1,231.27,153Z"/><path class="cls-10" d="M249.56,146.37c-.24.24-.55.2-.85.23-1,.11-1.93.17-2.89.32-1.44.22-2.88.35-4.33.45s-3,.29-4.51.54a22.52,22.52,0,0,1-5.8.1,1.29,1.29,0,0,1-.37-.19,1.31,1.31,0,0,1,.42-.22,10.84,10.84,0,0,1,1.27-.09,20,20,0,0,0,3.79-.36,48.81,48.81,0,0,1,6.13-.73c1.15,0,2.29-.25,3.44-.37a11.46,11.46,0,0,1,3.6.2S249.53,146.33,249.56,146.37Z"/><path class="cls-10" d="M259.24,149.5l2.11-.34c1-.16,2-.33,3-.47,1.79-.24,3.59-.46,5.39-.71.71-.1,1.42-.28,2.13-.4a2.48,2.48,0,0,1,.72,0,.88.88,0,0,1,.3.16c-.07.09-.11.23-.2.27a11.55,11.55,0,0,1-1.69.65c-.88.2-1.78.32-2.67.44-1.56.2-3.12.41-4.68.55-1.26.12-2.53.17-3.8.23a2.89,2.89,0,0,1-.69-.13Z"/><path class="cls-10" d="M228.18,158.45a2.86,2.86,0,0,1,.58-.28c1.48-.27,3-.52,4.46-.78a4.84,4.84,0,0,1,2,.06c.09,0,.15.16.22.25s-.08.11-.13.12c-1.24.24-2.48.5-3.73.69A7.55,7.55,0,0,1,228.18,158.45Z"/><path class="cls-10" d="M274.08,140.73c-.07.15-.1.31-.17.33a4.48,4.48,0,0,1-.88.2c-1.13.1-2.27.22-3.41.24-.54,0-1,.41-1.62.12a6.35,6.35,0,0,1,3.22-.93A5.55,5.55,0,0,1,274.08,140.73Z"/><path class="cls-10" d="M238.73,157.48a2.22,2.22,0,0,1,1.37.13c-.28.39-.73.31-1.1.45a4.56,4.56,0,0,1-.88.12c0-.51.52-.43.65-.72Z"/><path class="cls-10" d="M224.81,101.13a18.58,18.58,0,0,1,3.77-.7c1.82-.1,3.64-.2,5.45-.34a55.41,55.41,0,0,0,7-1.17c2-.41,3.93-.76,5.9-1.12,0,0,.14.06.14.09s0,.26-.07.31a3.34,3.34,0,0,1-.77.46c-.58.18-1.17.34-1.76.46-1.61.34-3.22.65-4.82,1a45.12,45.12,0,0,1-6.85.93c-1.94.09-3.89.19-5.83.26A5.8,5.8,0,0,1,224.81,101.13Z"/><path class="cls-10" d="M245.41,104a2.58,2.58,0,0,1-.55.28c-2.27.39-4.51.94-6.81,1.15-.72.07-1.45.13-2.17.15-.91,0-1.82,0-2.73,0-2.31,0-4.61,0-6.91.18a19.09,19.09,0,0,1-2,0,1.94,1.94,0,0,1-.49-.18c.13-.27.37-.28.61-.31a62.83,62.83,0,0,1,10-.45,29.48,29.48,0,0,0,6.15-.51c.95-.18,1.91-.32,2.88-.43A3.7,3.7,0,0,1,245.41,104Z"/><path class="cls-10" d="M210.55,141.38c.06,0,.13,0,.17,0a3.59,3.59,0,0,1,.57.44c2.8,2.78,5.67,5.5,8.29,8.46,1.33,1.49,2.7,2.95,4,4.43a4.81,4.81,0,0,1,1.12,1.86c0,.12-.11.31-.22.43s-.25,0-.33,0a2.47,2.47,0,0,1-.52-.5,34.37,34.37,0,0,0-3.23-3.7c-.3-.3-.61-.6-.89-.92-2.56-2.92-5.3-5.68-8-8.43a17.17,17.17,0,0,1-1.19-1.37.76.76,0,0,1,0-.52C210.31,141.49,210.46,141.44,210.55,141.38Z"/><path class="cls-10" d="M212.75,149.93c.25.18.51.33.74.53,1.2,1,2.46,2,3.58,3.08,1.56,1.54,3,3.16,4.5,4.78a15.87,15.87,0,0,1,2.24,2.86,1.28,1.28,0,0,1,.21.5c0,.15-.05.4-.16.45a.61.61,0,0,1-.5-.07,1.16,1.16,0,0,1-.37-.39,24.49,24.49,0,0,0-3.05-3.61c-1-1-1.91-2-2.84-3.08a29.92,29.92,0,0,0-2.47-2.44,25.34,25.34,0,0,1-1.77-1.82,2.42,2.42,0,0,1-.33-.59Z"/><path class="cls-10" d="M257.39,101.26c0-.11-.15-.23-.12-.31a11.74,11.74,0,0,1,3.8-5.21c.12-.09.25,0,.29.12a.2.2,0,0,1,0,.17c-.36.41-.72.82-1.11,1.2a6.74,6.74,0,0,0-1.76,2.72,5.06,5.06,0,0,1-.76,1.22C257.67,101.24,257.51,101.23,257.39,101.26Z"/><path class="cls-10" d="M260.38,102.78c-.05,0-.13-.08-.13-.13a.54.54,0,0,1,0-.34,14.35,14.35,0,0,0,1.8-2.69,7.23,7.23,0,0,1,2.13-2.17.17.17,0,0,1,.15,0,.2.2,0,0,1,.05.13,6.53,6.53,0,0,1-.58.7,6.43,6.43,0,0,0-1.65,2.34,4.91,4.91,0,0,1-1.51,2A1.34,1.34,0,0,1,260.38,102.78Z"/><path class="cls-10" d="M256.55,102.48l-.13.21s-.08-.09-.07-.12a.88.88,0,0,1,.12-.21Z"/><path class="cls-10" d="M216.83,92.19c.11,0,.24,0,.32,0s0,.18,0,.28-.25,0-.28,0a.8.8,0,0,1,0-.32Z"/><path class="cls-10" d="M221.61,95.49a.78.78,0,0,1-.37.72.14.14,0,0,1-.14,0s-.06-.1,0-.13c.1-.26.16-.56.49-.65Z"/><path class="cls-10" d="M221.55,95.43a.66.66,0,0,1,.28-.6.22.22,0,0,1,.16-.06c.15,0,.19.12.1.26s-.2.43-.48.46Z"/><path class="cls-10" d="M244,113.68l-.95,1.5c0-.29,0-.58.09-.87C243.26,113.81,243.29,113.8,244,113.68Z"/><path class="cls-12" d="M294.29,155.4c.22-.55.45-1.11.66-1.66,0,0,0-.08,0-.14l-.67,0a4.93,4.93,0,0,1,.26-1.77,11.69,11.69,0,0,0,.78-3.5,7.65,7.65,0,0,0,.08-1.79,1.59,1.59,0,0,1,.1-.67,5.43,5.43,0,0,0,.12-2.14,8.12,8.12,0,0,0-.83-.83,2.89,2.89,0,0,1-1-1.62c-.07-.27-.17-.53-.23-.8a1.93,1.93,0,0,1,.06-1.09,6.36,6.36,0,0,1,.92-1.7,2.33,2.33,0,0,1,1.5-.91,6.35,6.35,0,0,1,1-.08,5.77,5.77,0,0,1,2.55,1,2.77,2.77,0,0,1,.82,2.4,3.43,3.43,0,0,1-.66,1.65,1,1,0,0,1-.28.31c-.41.3-.82.58-1.24.87a.41.41,0,0,1-.26.09c-.54,0-.68.39-.79.8a1.65,1.65,0,0,0-.09.54,12.82,12.82,0,0,1-.29,2.47,8.8,8.8,0,0,1-.44,1.89,3.82,3.82,0,0,0-.15.67,2.44,2.44,0,0,0,0,.39,3.88,3.88,0,0,0,1.43,1.09.7.7,0,0,1-.81.45.44.44,0,0,0-.56.28,4.41,4.41,0,0,0-.38,1.6.61.61,0,0,0,.31.58,1.42,1.42,0,0,0,1.19.24,1.46,1.46,0,0,1,1.19.16.47.47,0,0,1,.15.61c-.08.16-.31.32-.44.28s-.53-.18-.8-.24a3.05,3.05,0,0,0-.67-.07c-.36,0-.56.16-.59.44a.51.51,0,0,0,.48.57,7.19,7.19,0,0,1,.81.13,5.59,5.59,0,0,1,.67.25.7.7,0,0,1-.67.2c-.28-.06-.54-.17-.81-.2a.45.45,0,0,0-.32.2.38.38,0,0,0,.08.49l.88.38c.16.06.37,0,.48.2a.45.45,0,0,1-.56.27,4.13,4.13,0,0,1-.52-.19l-.37-.12a1.69,1.69,0,0,0-.27.11c-.21.1-.41.23-.65.11s-.58-.34-.57-.72a2.18,2.18,0,0,0-.57-1.51Zm1.85-13.82a2.26,2.26,0,0,0,1.75.15,1.54,1.54,0,0,0,1-.69,3.57,3.57,0,0,0,.39-.87,1.46,1.46,0,0,0-.67-1.78,3.63,3.63,0,0,0-1.28-.48,1.81,1.81,0,0,0-2.32,1.71,3,3,0,0,0,0,.42C295,141.2,295.13,141.2,296.14,141.58Zm-1.36,0a6.85,6.85,0,0,0-.61-1.46s-.15,0-.23,0-.05.08-.05.12a2.61,2.61,0,0,0,.63,1.45.16.16,0,0,0,.12,0S294.71,141.66,294.78,141.6Z"/><path class="cls-12" d="M294,156.23c.1.19.34.31.3.58,0,0-.05.07-.08.09a.14.14,0,0,1-.1,0c0-.22-.06-.44-.09-.66Z"/><path class="cls-12" d="M294.28,155.37l-.33.86h0c-.18-.57-.18-.57.31-.82Z"/><path class="cls-10" d="M298,144.52a5.09,5.09,0,0,1-.15,1.84c-.2.8-.32,1.63-.45,2.45a1.47,1.47,0,0,0,0,.9,7.48,7.48,0,0,0,1.3.62.7.7,0,0,1,.32.71,2.68,2.68,0,0,1-.07.27c-.09.21-.17.43-.26.64a.69.69,0,0,1-.75.49l-1,0a.35.35,0,0,0-.32.48.59.59,0,0,0,.16.2.21.21,0,0,0,.13,0,4.91,4.91,0,0,1,1.91,0,1.07,1.07,0,0,1,.4.1.59.59,0,0,1,.41.51,3.28,3.28,0,0,1,0,.83,18.74,18.74,0,0,1-.85,3.21,1.43,1.43,0,0,1-1.63,1c-.92-.08-1.84-.19-2.76-.26-.45,0-.92,0-1.38,0a.48.48,0,0,1-.46-.43,4.29,4.29,0,0,1,.08-1.78,6.87,6.87,0,0,0,.22-1.37,11.45,11.45,0,0,1,.36-1.62,19.63,19.63,0,0,0,.38-2,5.7,5.7,0,0,0,.09-.83,34.84,34.84,0,0,1,.79-5.47,1.27,1.27,0,0,0-.35-1.28c-.36-.35-.74-.69-1.11-1a1.47,1.47,0,0,1-.48-.82,3.91,3.91,0,0,0-.14-.68,2.27,2.27,0,0,1,.07-1.5,11.78,11.78,0,0,1,1-2.13,3.42,3.42,0,0,1,2.71-1.67,3.87,3.87,0,0,1,2.3.32,6.51,6.51,0,0,0,.77.31,3,3,0,0,1,1.95,2.33,3.39,3.39,0,0,1-.31,2.54c-.13.24-.26.49-.38.74a1.59,1.59,0,0,1-.73.8A6.35,6.35,0,0,0,298,144.52ZM294,156.23l.33-.86a2.18,2.18,0,0,1,.57,1.51c0,.38.27.57.57.72s.44,0,.65-.11a1.69,1.69,0,0,1,.27-.11l.37.12a4.13,4.13,0,0,0,.52.19.45.45,0,0,0,.56-.27c-.11-.2-.32-.14-.48-.2l-.88-.38a.38.38,0,0,1-.08-.49.45.45,0,0,1,.32-.2c.27,0,.53.14.81.2a.7.7,0,0,0,.67-.2,5.59,5.59,0,0,0-.67-.25,7.19,7.19,0,0,0-.81-.13.51.51,0,0,1-.48-.57c0-.28.23-.45.59-.44a3.05,3.05,0,0,1,.67.07c.27.06.53.17.8.24s.36-.12.44-.28a.47.47,0,0,0-.15-.61,1.46,1.46,0,0,0-1.19-.16,1.42,1.42,0,0,1-1.19-.24.61.61,0,0,1-.31-.58,4.41,4.41,0,0,1,.38-1.6.44.44,0,0,1,.56-.28.7.7,0,0,0,.81-.45,3.88,3.88,0,0,1-1.43-1.09,2.44,2.44,0,0,1,0-.39,3.82,3.82,0,0,1,.15-.67,8.8,8.8,0,0,0,.44-1.89,12.82,12.82,0,0,0,.29-2.47,1.65,1.65,0,0,1,.09-.54c.11-.41.25-.81.79-.8a.41.41,0,0,0,.26-.09c.42-.29.83-.57,1.24-.87a1,1,0,0,0,.28-.31,3.43,3.43,0,0,0,.66-1.65,2.77,2.77,0,0,0-.82-2.4,5.77,5.77,0,0,0-2.55-1,6.35,6.35,0,0,0-1,.08,2.33,2.33,0,0,0-1.5.91,6.36,6.36,0,0,0-.92,1.7,1.93,1.93,0,0,0-.06,1.09c.06.27.16.53.23.8a2.89,2.89,0,0,0,1,1.62,8.12,8.12,0,0,1,.83.83,5.43,5.43,0,0,1-.12,2.14,1.59,1.59,0,0,0-.1.67,7.65,7.65,0,0,1-.08,1.79,11.69,11.69,0,0,1-.78,3.5,4.93,4.93,0,0,0-.26,1.77l.67,0c0,.06,0,.11,0,.14-.21.55-.44,1.11-.66,1.66-.49.25-.49.25-.31.82,0,.22,0,.44.09.66a.14.14,0,0,0,.1,0s.08-.06.08-.09C294.29,156.54,294.05,156.42,294,156.23Z"/><path class="cls-10" d="M296.14,141.58c-1-.38-1.1-.38-1.17-1.54a3,3,0,0,1,0-.42,1.81,1.81,0,0,1,2.32-1.71,3.63,3.63,0,0,1,1.28.48,1.46,1.46,0,0,1,.67,1.78,3.57,3.57,0,0,1-.39.87,1.54,1.54,0,0,1-1,.69A2.26,2.26,0,0,1,296.14,141.58Zm-.14-2a2.63,2.63,0,0,0-.11.48c0,.13,0,.31.12.37a1.67,1.67,0,0,0,1.8.24.75.75,0,0,0,.32-.23,1,1,0,0,0-.49-1.62,3,3,0,0,0-.39-.13,1,1,0,0,0-1.05.48C296.13,139.32,296.08,139.44,296,139.61Z"/><path class="cls-10" d="M294.78,141.6c-.07.06-.1.09-.14.1a.16.16,0,0,1-.12,0,2.61,2.61,0,0,1-.63-1.45s0-.12.05-.12.21,0,.23,0A6.85,6.85,0,0,1,294.78,141.6Z"/></svg>